font1.ufo
<glyph name="exclamdown" format="1">
  <advance width="286"/>
  <unicode hex="00A1"/>
  <outline>
    <contour>
      <point x="143" y="488" type="curve" smooth="yes"/>
      <point x="108" y="488"/>
      <point x="80" y="459"/>
      <point x="80" y="425" type="curve" smooth="yes"/>
      <point x="80" y="391"/>
      <point x="108" y="361"/>
      <point x="143" y="361" type="curve" smooth="yes"/>
      <point x="178" y="361"/>
      <point x="206" y="391"/>
      <point x="206" y="425" type="curve" smooth="yes"/>
      <point x="206" y="459"/>
      <point x="178" y="488"/>
    </contour>
    <contour>
      <point x="143" y="-210" type="curve" smooth="yes"/>
      <point x="177" y="-210"/>
      <point x="198" y="-192"/>
      <point x="198" y="-149" type="curve" smooth="yes"/>
      <point x="198" y="-112"/>
      <point x="187" y="-17"/>
      <point x="174" y="123" type="curve" smooth="yes"/>
      <point x="161" y="262" type="line"/>
      <point x="125" y="262" type="line"/>
      <point x="112" y="123" type="line" smooth="yes"/>
      <point x="99" y="-17"/>
      <point x="88" y="-112"/>
      <point x="88" y="-149" type="curve" smooth="yes"/>
      <point x="88" y="-192"/>
      <point x="109" y="-210"/>
    </contour>
  </outline>
</glyph>
<glyph name="dieresis" format="1">
  <advance width="400"/>
  <unicode hex="00A8"/>
  <outline>
    <contour>
      <point x="304" y="597" type="curve" smooth="yes"/>
      <point x="336" y="597"/>
      <point x="362" y="621"/>
      <point x="362" y="653" type="curve" smooth="yes"/>
      <point x="362" y="685"/>
      <point x="336" y="709"/>
      <point x="304" y="709" type="curve" smooth="yes"/>
      <point x="272" y="709"/>
      <point x="245" y="685"/>
      <point x="245" y="653" type="curve" smooth="yes"/>
      <point x="245" y="621"/>
      <point x="272" y="597"/>
    </contour>
    <contour>
      <point x="96" y="597" type="curve" smooth="yes"/>
      <point x="128" y="597"/>
      <point x="155" y="621"/>
      <point x="155" y="653" type="curve" smooth="yes"/>
      <point x="155" y="685"/>
      <point x="128" y="709"/>
      <point x="96" y="709" type="curve" smooth="yes"/>
      <point x="64" y="709"/>
      <point x="38" y="685"/>
      <point x="38" y="653" type="curve" smooth="yes"/>
      <point x="38" y="621"/>
      <point x="64" y="597"/>
    </contour>
    <contour>
      <point x="200" y="506" type="move" name="_aboveLC"/>
    </contour>
  </outline>
</glyph>
<glyph name="guillemotleft" format="1">
  <advance width="483"/>
  <unicode hex="00AB"/>
  <outline>
    <contour>
      <point x="233" y="51" type="line"/>
      <point x="257" y="78" type="line"/>
      <point x="91" y="272" type="line"/>
      <point x="91" y="233" type="line"/>
      <point x="257" y="427" type="line"/>
      <point x="233" y="454" type="line"/>
      <point x="30" y="279" type="line"/>
      <point x="30" y="226" type="line"/>
    </contour>
    <contour>
      <point x="434" y="51" type="line"/>
      <point x="458" y="78" type="line"/>
      <point x="292" y="272" type="line"/>
      <point x="292" y="233" type="line"/>
      <point x="458" y="427" type="line"/>
      <point x="434" y="454" type="line"/>
      <point x="231" y="279" type="line"/>
      <point x="231" y="226" type="line"/>
    </contour>
  </outline>
</glyph>
<glyph name="acute" format="1">
  <advance width="400"/>
  <unicode hex="00B4"/>
  <outline>
    <contour>
      <point x="142" y="576" type="curve"/>
      <point x="167" y="557" type="line"/>
      <point x="209" y="594"/>
      <point x="249" y="630"/>
      <point x="289" y="667" type="curve" smooth="yes"/>
      <point x="316" y="692"/>
      <point x="321" y="707"/>
      <point x="321" y="720" type="curve" smooth="yes"/>
      <point x="321" y="745"/>
      <point x="303" y="757"/>
      <point x="284" y="757" type="curve" smooth="yes"/>
      <point x="267" y="757"/>
      <point x="250" y="747"/>
      <point x="231" y="717" type="curve" smooth="yes"/>
      <point x="200" y="670"/>
      <point x="171" y="623"/>
    </contour>
    <contour>
      <point x="200" y="506" type="move" name="_aboveLC"/>
    </contour>
  </outline>
</glyph>
<glyph name="periodcentered" format="1">
  <advance width="300"/>
  <unicode hex="00B7"/>
  <outline>
    <contour>
      <point x="150" y="262" type="curve" smooth="yes"/>
      <point x="189" y="262"/>
      <point x="220" y="294"/>
      <point x="220" y="332" type="curve" smooth="yes"/>
      <point x="220" y="371"/>
      <point x="189" y="403"/>
      <point x="150" y="403" type="curve" smooth="yes"/>
      <point x="111" y="403"/>
      <point x="80" y="371"/>
      <point x="80" y="332" type="curve" smooth="yes"/>
      <point x="80" y="294"/>
      <point x="111" y="262"/>
    </contour>
  </outline>
</glyph>
<glyph name="cedilla" format="1">
  <advance width="400"/>
  <unicode hex="00B8"/>
  <outline>
    <contour>
      <point x="147" y="-86" type="line"/>
      <point x="196" y="-93"/>
      <point x="219" y="-107"/>
      <point x="219" y="-138" type="curve" smooth="yes"/>
      <point x="219" y="-166"/>
      <point x="200" y="-184"/>
      <point x="161" y="-184" type="curve" smooth="yes"/>
      <point x="143" y="-184"/>
      <point x="129" y="-183"/>
      <point x="113" y="-181" type="curve"/>
      <point x="106" y="-211" type="line"/>
      <point x="119" y="-215"/>
      <point x="140" y="-220"/>
      <point x="168" y="-220" type="curve" smooth="yes"/>
      <point x="241" y="-220"/>
      <point x="279" y="-186"/>
      <point x="279" y="-140" type="curve" smooth="yes"/>
      <point x="279" y="-85"/>
      <point x="225" y="-59"/>
      <point x="166" y="-56" type="curve"/>
      <point x="186" y="-77" type="line"/>
      <point x="196" y="3" type="line"/>
      <point x="160" y="3" type="line"/>
    </contour>
    <contour>
      <point x="172" y="0" type="move" name="_baseLC"/>
    </contour>
  </outline>
</glyph>
<glyph name="guillemotright" format="1">
  <advance width="483"/>
  <unicode hex="00BB"/>
  <outline>
    <contour>
      <point x="49" y="454" type="line"/>
      <point x="25" y="427" type="line"/>
      <point x="191" y="233" type="line"/>
      <point x="191" y="272" type="line"/>
      <point x="25" y="78" type="line"/>
      <point x="49" y="51" type="line"/>
      <point x="252" y="226" type="line"/>
      <point x="252" y="279" type="line"/>
    </contour>
    <contour>
      <point x="250" y="454" type="line"/>
      <point x="226" y="427" type="line"/>
      <point x="392" y="233" type="line"/>
      <point x="392" y="272" type="line"/>
      <point x="226" y="78" type="line"/>
      <point x="250" y="51" type="line"/>
      <point x="453" y="226" type="line"/>
      <point x="453" y="279" type="line"/>
    </contour>
  </outline>
</glyph>
<glyph name="onequarter" format="1">
  <advance width="860"/>
  <unicode hex="00BC"/>
  <outline>
    <contour>
      <point x="237" y="-25" type="line"/>
      <point x="703" y="645" type="line"/>
      <point x="673" y="670" type="line"/>
      <point x="207" y="0" type="line"/>
    </contour>
    <contour>
      <point x="80" y="625" type="line"/>
      <point x="80" y="589" type="line"/>
      <point x="158" y="595" type="line"/>
      <point x="158" y="254" type="line"/>
      <point x="227" y="254" type="line"/>
      <point x="227" y="651" type="line"/>
      <point x="218" y="657" type="line"/>
    </contour>
    <contour>
      <point x="221" y="300" type="line"/>
      <point x="162" y="300" type="line"/>
      <point x="67" y="283" type="line"/>
      <point x="67" y="254" type="line"/>
      <point x="315" y="254" type="line"/>
      <point x="315" y="283" type="line"/>
    </contour>
    <contour>
      <point x="480" y="101" type="line"/>
      <point x="778" y="101" type="line"/>
      <point x="778" y="158" type="line"/>
      <point x="510" y="158" type="line"/>
      <point x="519" y="144" type="line"/>
      <point x="665" y="353" type="line"/>
      <point x="651" y="353" type="line"/>
      <point x="651" y="0" type="line"/>
      <point x="714" y="0" type="line"/>
      <point x="714" y="403" type="line"/>
      <point x="668" y="403" type="line"/>
      <point x="480" y="147" type="line"/>
    </contour>
  </outline>
</glyph>
<glyph name="onehalf" format="1">
  <advance width="860"/>
  <unicode hex="00BD"/>
  <outline>
    <contour>
      <point x="204" y="-25" type="line"/>
      <point x="670" y="645" type="line"/>
      <point x="640" y="670" type="line"/>
      <point x="174" y="0" type="line"/>
    </contour>
    <contour>
      <point x="72" y="625" type="line"/>
      <point x="72" y="589" type="line"/>
      <point x="150" y="595" type="line"/>
      <point x="150" y="254" type="line"/>
      <point x="219" y="254" type="line"/>
      <point x="219" y="651" type="line"/>
      <point x="210" y="657" type="line"/>
    </contour>
    <contour>
      <point x="213" y="300" type="line"/>
      <point x="154" y="300" type="line"/>
      <point x="59" y="283" type="line"/>
      <point x="59" y="254" type="line"/>
      <point x="307" y="254" type="line"/>
      <point x="307" y="283" type="line"/>
    </contour>
    <contour>
      <point x="518" y="0" type="line"/>
      <point x="785" y="0" type="line"/>
      <point x="785" y="69" type="line"/>
      <point x="561" y="69" type="line"/>
      <point x="547" y="29" type="line"/>
      <point x="642" y="117" type="line" smooth="yes"/>
      <point x="732" y="201"/>
      <point x="770" y="245"/>
      <point x="770" y="302" type="curve" smooth="yes"/>
      <point x="770" y="355"/>
      <point x="736" y="406"/>
      <point x="649" y="406" type="curve" smooth="yes"/>
      <point x="579" y="406"/>
      <point x="517" y="373"/>
      <point x="512" y="305" type="curve"/>
      <point x="520" y="291"/>
      <point x="532" y="282"/>
      <point x="548" y="282" type="curve" smooth="yes"/>
      <point x="566" y="282"/>
      <point x="578" y="293"/>
      <point x="587" y="331" type="curve" smooth="yes"/>
      <point x="601" y="387" type="line"/>
      <point x="561" y="359" type="line"/>
      <point x="585" y="369"/>
      <point x="606" y="372"/>
      <point x="623" y="372" type="curve" smooth="yes"/>
      <point x="671" y="372"/>
      <point x="699" y="345"/>
      <point x="699" y="294" type="curve" smooth="yes"/>
      <point x="699" y="243"/>
      <point x="670" y="196"/>
      <point x="611" y="139" type="curve" smooth="yes"/>
      <point x="518" y="49" type="line"/>
    </contour>
  </outline>
</glyph>
<glyph name="threequarters" format="1">
  <advance width="860"/>
  <unicode hex="00BE"/>
  <outline>
    <contour>
      <point x="246" y="-25" type="line"/>
      <point x="712" y="645" type="line"/>
      <point x="682" y="670" type="line"/>
      <point x="216" y="0" type="line"/>
    </contour>
    <contour>
      <point x="162" y="482" type="line"/>
      <point x="162" y="442" type="line"/>
      <point x="193" y="442" type="line" smooth="yes"/>
      <point x="258" y="442"/>
      <point x="286" y="412"/>
      <point x="286" y="363" type="curve" smooth="yes"/>
      <point x="286" y="310"/>
      <point x="253" y="278"/>
      <point x="194" y="278" type="curve" smooth="yes"/>
      <point x="176" y="278"/>
      <point x="159" y="281"/>
      <point x="138" y="288" type="curve"/>
      <point x="164" y="261" type="line"/>
      <point x="152" y="318" type="line" smooth="yes"/>
      <point x="145" y="355"/>
      <point x="131" y="365"/>
      <point x="113" y="365" type="curve" smooth="yes"/>
      <point x="99" y="365"/>
      <point x="86" y="359"/>
      <point x="79" y="339" type="curve"/>
      <point x="89" y="279"/>
      <point x="135" y="245"/>
      <point x="212" y="245" type="curve" smooth="yes"/>
      <point x="285" y="245"/>
      <point x="357" y="277"/>
      <point x="357" y="360" type="curve" smooth="yes"/>
      <point x="357" y="428"/>
      <point x="309" y="467"/>
      <point x="225" y="467" type="curve"/>
      <point x="232" y="459" type="line"/>
      <point x="292" y="459"/>
      <point x="339" y="504"/>
      <point x="339" y="562" type="curve" smooth="yes"/>
      <point x="339" y="621"/>
      <point x="289" y="660"/>
      <point x="216" y="660" type="curve" smooth="yes"/>
      <point x="153" y="660"/>
      <point x="101" y="631"/>
      <point x="92" y="568" type="curve"/>
      <point x="99" y="554"/>
      <point x="112" y="547"/>
      <point x="126" y="547" type="curve" smooth="yes"/>
      <point x="144" y="547"/>
      <point x="160" y="559"/>
      <point x="165" y="588" type="curve" smooth="yes"/>
      <point x="175" y="641" type="line"/>
      <point x="146" y="618" type="line"/>
      <point x="168" y="624"/>
      <point x="184" y="626"/>
      <point x="197" y="626" type="curve" smooth="yes"/>
      <point x="242" y="626"/>
      <point x="270" y="601"/>
      <point x="270" y="554" type="curve" smooth="yes"/>
      <point x="270" y="507"/>
      <point x="243" y="482"/>
      <point x="188" y="482" type="curve" smooth="yes"/>
    </contour>
    <contour>
      <point x="489" y="101" type="line"/>
      <point x="787" y="101" type="line"/>
      <point x="787" y="158" type="line"/>
      <point x="519" y="158" type="line"/>
      <point x="528" y="144" type="line"/>
      <point x="674" y="353" type="line"/>
      <point x="660" y="353" type="line"/>
      <point x="660" y="0" type="line"/>
      <point x="723" y="0" type="line"/>
      <point x="723" y="403" type="line"/>
      <point x="677" y="403" type="line"/>
      <point x="489" y="147" type="line"/>
    </contour>
  </outline>
</glyph>
<glyph name="questiondown" format="1">
  <advance width="414"/>
  <unicode hex="00BF"/>
  <outline>
    <contour>
      <point x="266" y="488" type="curve" smooth="yes"/>
      <point x="231" y="488"/>
      <point x="203" y="459"/>
      <point x="203" y="425" type="curve" smooth="yes"/>
      <point x="203" y="391"/>
      <point x="231" y="361"/>
      <point x="266" y="361" type="curve" smooth="yes"/>
      <point x="301" y="361"/>
      <point x="329" y="391"/>
      <point x="329" y="425" type="curve" smooth="yes"/>
      <point x="329" y="459"/>
      <point x="301" y="488"/>
    </contour>
    <contour>
      <point x="67" y="13" type="curve" smooth="yes"/>
      <point x="67" y="-117"/>
      <point x="211" y="-202"/>
      <point x="294" y="-210" type="curve"/>
      <point x="330" y="-201"/>
      <point x="348" y="-186"/>
      <point x="348" y="-156" type="curve" smooth="yes"/>
      <point x="348" y="-132"/>
      <point x="336" y="-114"/>
      <point x="277" y="-103" type="curve" smooth="yes"/>
      <point x="92" y="-70" type="line"/>
      <point x="201" y="-141" type="line"/>
      <point x="160" y="-104"/>
      <point x="120" y="-52"/>
      <point x="120" y="-3" type="curve" smooth="yes"/>
      <point x="120" y="31"/>
      <point x="140" y="55"/>
      <point x="177" y="67" type="curve" smooth="yes"/>
      <point x="232" y="85" type="line" smooth="yes"/>
      <point x="292" y="104"/>
      <point x="312" y="122"/>
      <point x="312" y="151" type="curve" smooth="yes"/>
      <point x="312" y="163"/>
      <point x="309" y="181"/>
      <point x="297" y="221" type="curve" smooth="yes"/>
      <point x="284" y="263" type="line"/>
      <point x="247" y="263" type="line"/>
      <point x="247" y="206" type="line" smooth="yes"/>
      <point x="247" y="173"/>
      <point x="242" y="164"/>
      <point x="199" y="150" type="curve" smooth="yes"/>
      <point x="166" y="139" type="line" smooth="yes"/>
      <point x="99" y="117"/>
      <point x="67" y="75"/>
    </contour>
  </outline>
</glyph>
<glyph name="Agrave" format="1">
  <advance width="663"/>
  <unicode hex="00C0"/>
  <outline>
    <contour>
      <point x="5" y="0" type="line"/>
      <point x="235" y="0" type="line"/>
      <point x="235" y="40" type="line"/>
      <point x="125" y="55" type="line"/>
      <point x="105" y="55" type="line"/>
      <point x="5" y="40" type="line"/>
    </contour>
    <contour>
      <point x="170" y="219" type="line"/>
      <point x="472" y="219" type="line"/>
      <point x="456" y="265" type="line"/>
      <point x="186" y="265" type="line"/>
    </contour>
    <contour>
      <point x="383" y="0" type="line"/>
      <point x="653" y="0" type="line"/>
      <point x="653" y="40" type="line"/>
      <point x="529" y="55" type="line"/>
      <point x="509" y="55" type="line"/>
      <point x="383" y="40" type="line"/>
    </contour>
    <contour>
      <point x="71" y="0" type="line"/>
      <point x="118" y="0" type="line"/>
      <point x="310" y="565" type="line"/>
      <point x="500" y="0" type="line"/>
      <point x="593" y="0" type="line"/>
      <point x="363" y="675" type="line"/>
      <point x="303" y="675" type="line"/>
    </contour>
    <contour>
      <point x="397" y="746" type="line"/>
      <point x="367" y="777"/>
      <point x="336" y="808"/>
      <point x="304" y="839" type="curve" smooth="yes"/>
      <point x="276" y="867"/>
      <point x="259" y="877"/>
      <point x="242" y="877" type="curve" smooth="yes"/>
      <point x="222" y="877"/>
      <point x="205" y="864"/>
      <point x="205" y="844" type="curve" smooth="yes"/>
      <point x="205" y="826"/>
      <point x="218" y="809"/>
      <point x="255" y="789" type="curve" smooth="yes"/>
      <point x="295" y="767"/>
      <point x="337" y="744"/>
      <point x="379" y="722" type="curve"/>
    </contour>
  </outline>
</glyph>
<glyph name="Aacute" format="1">
  <advance width="663"/>
  <unicode hex="00C1"/>
  <outline>
    <contour>
      <point x="5" y="0" type="line"/>
      <point x="235" y="0" type="line"/>
      <point x="235" y="40" type="line"/>
      <point x="125" y="55" type="line"/>
      <point x="105" y="55" type="line"/>
      <point x="5" y="40" type="line"/>
    </contour>
    <contour>
      <point x="170" y="219" type="line"/>
      <point x="472" y="219" type="line"/>
      <point x="456" y="265" type="line"/>
      <point x="186" y="265" type="line"/>
    </contour>
    <contour>
      <point x="383" y="0" type="line"/>
      <point x="653" y="0" type="line"/>
      <point x="653" y="40" type="line"/>
      <point x="529" y="55" type="line"/>
      <point x="509" y="55" type="line"/>
      <point x="383" y="40" type="line"/>
    </contour>
    <contour>
      <point x="71" y="0" type="line"/>
      <point x="118" y="0" type="line"/>
      <point x="310" y="565" type="line"/>
      <point x="500" y="0" type="line"/>
      <point x="593" y="0" type="line"/>
      <point x="363" y="675" type="line"/>
      <point x="303" y="675" type="line"/>
    </contour>
    <contour>
      <point x="265" y="746" type="curve"/>
      <point x="283" y="722" type="line"/>
      <point x="324" y="743"/>
      <point x="366" y="766"/>
      <point x="407" y="789" type="curve" smooth="yes"/>
      <point x="444" y="810"/>
      <point x="457" y="826"/>
      <point x="457" y="844" type="curve" smooth="yes"/>
      <point x="457" y="864"/>
      <point x="440" y="877"/>
      <point x="420" y="877" type="curve" smooth="yes"/>
      <point x="403" y="877"/>
      <point x="386" y="867"/>
      <point x="358" y="839" type="curve" smooth="yes"/>
      <point x="327" y="809"/>
      <point x="296" y="778"/>
    </contour>
  </outline>
</glyph>
<glyph name="Atilde" format="1">
  <advance width="663"/>
  <unicode hex="00C3"/>
  <outline>
    <contour>
      <point x="5" y="0" type="line"/>
      <point x="235" y="0" type="line"/>
      <point x="235" y="40" type="line"/>
      <point x="125" y="55" type="line"/>
      <point x="105" y="55" type="line"/>
      <point x="5" y="40" type="line"/>
    </contour>
    <contour>
      <point x="170" y="219" type="line"/>
      <point x="472" y="219" type="line"/>
      <point x="456" y="265" type="line"/>
      <point x="186" y="265" type="line"/>
    </contour>
    <contour>
      <point x="383" y="0" type="line"/>
      <point x="653" y="0" type="line"/>
      <point x="653" y="40" type="line"/>
      <point x="529" y="55" type="line"/>
      <point x="509" y="55" type="line"/>
      <point x="383" y="40" type="line"/>
    </contour>
    <contour>
      <point x="71" y="0" type="line"/>
      <point x="118" y="0" type="line"/>
      <point x="310" y="565" type="line"/>
      <point x="500" y="0" type="line"/>
      <point x="593" y="0" type="line"/>
      <point x="363" y="675" type="line"/>
      <point x="303" y="675" type="line"/>
    </contour>
    <contour>
      <point x="151" y="735" type="curve"/>
      <point x="180" y="726" type="line"/>
      <point x="196" y="776"/>
      <point x="216" y="807"/>
      <point x="249" y="807" type="curve" smooth="yes"/>
      <point x="279" y="807"/>
      <point x="300" y="779"/>
      <point x="325" y="758" type="curve" smooth="yes"/>
      <point x="347" y="740"/>
      <point x="370" y="724"/>
      <point x="407" y="724" type="curve" smooth="yes"/>
      <point x="469" y="724"/>
      <point x="498" y="775"/>
      <point x="511" y="852" type="curve"/>
      <point x="482" y="861" type="line"/>
      <point x="466" y="811"/>
      <point x="447" y="780"/>
      <point x="413" y="780" type="curve" smooth="yes"/>
      <point x="383" y="780"/>
      <point x="362" y="808"/>
      <point x="337" y="829" type="curve" smooth="yes"/>
      <point x="314" y="847"/>
      <point x="292" y="863"/>
      <point x="255" y="863" type="curve" smooth="yes"/>
      <point x="194" y="863"/>
      <point x="163" y="812"/>
    </contour>
  </outline>
</glyph>
<glyph name="Adieresis" format="1">
  <advance width="663"/>
  <unicode hex="00C4"/>
  <outline>
    <contour>
      <point x="5" y="0" type="line"/>
      <point x="235" y="0" type="line"/>
      <point x="235" y="40" type="line"/>
      <point x="125" y="55" type="line"/>
      <point x="105" y="55" type="line"/>
      <point x="5" y="40" type="line"/>
    </contour>
    <contour>
      <point x="170" y="219" type="line"/>
      <point x="472" y="219" type="line"/>
      <point x="456" y="265" type="line"/>
      <point x="186" y="265" type="line"/>
    </contour>
    <contour>
      <point x="383" y="0" type="line"/>
      <point x="653" y="0" type="line"/>
      <point x="653" y="40" type="line"/>
      <point x="529" y="55" type="line"/>
      <point x="509" y="55" type="line"/>
      <point x="383" y="40" type="line"/>
    </contour>
    <contour>
      <point x="71" y="0" type="line"/>
      <point x="118" y="0" type="line"/>
      <point x="310" y="565" type="line"/>
      <point x="500" y="0" type="line"/>
      <point x="593" y="0" type="line"/>
      <point x="363" y="675" type="line"/>
      <point x="303" y="675" type="line"/>
    </contour>
    <contour>
      <point x="220" y="746" type="curve" smooth="yes"/>
      <point x="251" y="746"/>
      <point x="276" y="769"/>
      <point x="276" y="800" type="curve" smooth="yes"/>
      <point x="276" y="831"/>
      <point x="251" y="854"/>
      <point x="220" y="854" type="curve" smooth="yes"/>
      <point x="189" y="854"/>
      <point x="163" y="831"/>
      <point x="163" y="800" type="curve" smooth="yes"/>
      <point x="163" y="769"/>
      <point x="189" y="746"/>
    </contour>
    <contour>
      <point x="441" y="746" type="curve" smooth="yes"/>
      <point x="472" y="746"/>
      <point x="498" y="769"/>
      <point x="498" y="800" type="curve" smooth="yes"/>
      <point x="498" y="831"/>
      <point x="472" y="854"/>
      <point x="441" y="854" type="curve" smooth="yes"/>
      <point x="410" y="854"/>
      <point x="385" y="831"/>
      <point x="385" y="800" type="curve" smooth="yes"/>
      <point x="385" y="769"/>
      <point x="410" y="746"/>
    </contour>
  </outline>
</glyph>
<glyph name="Aring" format="1">
  <advance width="663"/>
  <unicode hex="00C5"/>
  <outline>
    <contour>
      <point x="5" y="0" type="line"/>
      <point x="235" y="0" type="line"/>
      <point x="235" y="40" type="line"/>
      <point x="125" y="55" type="line"/>
      <point x="105" y="55" type="line"/>
      <point x="5" y="40" type="line"/>
    </contour>
    <contour>
      <point x="170" y="219" type="line"/>
      <point x="472" y="219" type="line"/>
      <point x="456" y="265" type="line"/>
      <point x="186" y="265" type="line"/>
    </contour>
    <contour>
      <point x="383" y="0" type="line"/>
      <point x="653" y="0" type="line"/>
      <point x="653" y="40" type="line"/>
      <point x="529" y="55" type="line"/>
      <point x="509" y="55" type="line"/>
      <point x="383" y="40" type="line"/>
    </contour>
    <contour>
      <point x="71" y="0" type="line"/>
      <point x="118" y="0" type="line"/>
      <point x="310" y="565" type="line"/>
      <point x="500" y="0" type="line"/>
      <point x="593" y="0" type="line"/>
      <point x="363" y="675" type="line"/>
      <point x="303" y="675" type="line"/>
    </contour>
    <contour>
      <point x="331" y="723" type="curve" smooth="yes"/>
      <point x="379" y="723"/>
      <point x="427" y="758"/>
      <point x="427" y="815" type="curve" smooth="yes"/>
      <point x="427" y="875"/>
      <point x="379" y="908"/>
      <point x="331" y="908" type="curve" smooth="yes"/>
      <point x="283" y="908"/>
      <point x="235" y="873"/>
      <point x="235" y="815" type="curve" smooth="yes"/>
      <point x="235" y="756"/>
      <point x="283" y="723"/>
    </contour>
    <contour>
      <point x="331" y="758" type="curve" smooth="yes"/>
      <point x="297" y="758"/>
      <point x="279" y="787"/>
      <point x="279" y="815" type="curve" smooth="yes"/>
      <point x="279" y="844"/>
      <point x="298" y="871"/>
      <point x="331" y="871" type="curve" smooth="yes"/>
      <point x="365" y="871"/>
      <point x="383" y="844"/>
      <point x="383" y="815" type="curve" smooth="yes"/>
      <point x="383" y="787"/>
      <point x="364" y="758"/>
    </contour>
  </outline>
</glyph>
<glyph name="Egrave" format="1">
  <advance width="604"/>
  <unicode hex="00C8"/>
  <outline>
    <contour>
      <point x="175" y="615" type="line"/>
      <point x="185" y="615" type="line"/>
      <point x="185" y="670" type="line"/>
      <point x="45" y="670" type="line"/>
      <point x="45" y="630" type="line"/>
    </contour>
    <contour>
      <point x="175" y="55" type="line"/>
      <point x="45" y="40" type="line"/>
      <point x="45" y="0" type="line"/>
      <point x="185" y="0" type="line"/>
      <point x="185" y="55" type="line"/>
    </contour>
    <contour>
      <point x="140" y="310" type="line" smooth="yes"/>
      <point x="140" y="205"/>
      <point x="140" y="101"/>
      <point x="137" y="0" type="curve"/>
      <point x="233" y="0" type="line"/>
      <point x="230" y="103"/>
      <point x="230" y="207"/>
      <point x="230" y="322" type="curve" smooth="yes"/>
      <point x="230" y="360" type="line" smooth="yes"/>
      <point x="230" y="465"/>
      <point x="230" y="569"/>
      <point x="233" y="670" type="curve"/>
      <point x="137" y="670" type="line"/>
      <point x="140" y="567"/>
      <point x="140" y="463"/>
      <point x="140" y="360" type="curve" smooth="yes"/>
    </contour>
    <contour>
      <point x="379" y="335" type="line"/>
      <point x="394" y="224" type="line"/>
      <point x="439" y="224" type="line"/>
      <point x="439" y="461" type="line"/>
      <point x="394" y="461" type="line"/>
      <point x="379" y="355" type="line"/>
    </contour>
    <contour>
      <point x="411" y="365" type="line"/>
      <point x="185" y="365" type="line"/>
      <point x="185" y="319" type="line"/>
      <point x="411" y="319" type="line"/>
    </contour>
    <contour>
      <point x="493" y="492" type="line"/>
      <point x="549" y="492" type="line"/>
      <point x="542" y="670" type="line"/>
      <point x="185" y="670" type="line"/>
      <point x="185" y="620" type="line"/>
      <point x="471" y="620" type="line"/>
    </contour>
    <contour>
      <point x="513" y="178" type="line"/>
      <point x="491" y="50" type="line"/>
      <point x="185" y="50" type="line"/>
      <point x="185" y="0" type="line"/>
      <point x="562" y="0" type="line"/>
      <point x="569" y="178" type="line"/>
    </contour>
    <contour>
      <point x="368" y="746" type="line"/>
      <point x="338" y="777"/>
      <point x="307" y="808"/>
      <point x="275" y="839" type="curve" smooth="yes"/>
      <point x="247" y="867"/>
      <point x="230" y="877"/>
      <point x="213" y="877" type="curve" smooth="yes"/>
      <point x="193" y="877"/>
      <point x="176" y="864"/>
      <point x="176" y="844" type="curve" smooth="yes"/>
      <point x="176" y="826"/>
      <point x="189" y="809"/>
      <point x="226" y="789" type="curve" smooth="yes"/>
      <point x="266" y="767"/>
      <point x="308" y="744"/>
      <point x="350" y="722" type="curve"/>
    </contour>
  </outline>
</glyph>
<glyph name="Eacute" format="1">
  <advance width="604"/>
  <unicode hex="00C9"/>
  <outline>
    <contour>
      <point x="175" y="615" type="line"/>
      <point x="185" y="615" type="line"/>
      <point x="185" y="670" type="line"/>
      <point x="45" y="670" type="line"/>
      <point x="45" y="630" type="line"/>
    </contour>
    <contour>
      <point x="175" y="55" type="line"/>
      <point x="45" y="40" type="line"/>
      <point x="45" y="0" type="line"/>
      <point x="185" y="0" type="line"/>
      <point x="185" y="55" type="line"/>
    </contour>
    <contour>
      <point x="140" y="310" type="line" smooth="yes"/>
      <point x="140" y="205"/>
      <point x="140" y="101"/>
      <point x="137" y="0" type="curve"/>
      <point x="233" y="0" type="line"/>
      <point x="230" y="103"/>
      <point x="230" y="207"/>
      <point x="230" y="322" type="curve" smooth="yes"/>
      <point x="230" y="360" type="line" smooth="yes"/>
      <point x="230" y="465"/>
      <point x="230" y="569"/>
      <point x="233" y="670" type="curve"/>
      <point x="137" y="670" type="line"/>
      <point x="140" y="567"/>
      <point x="140" y="463"/>
      <point x="140" y="360" type="curve" smooth="yes"/>
    </contour>
    <contour>
      <point x="379" y="335" type="line"/>
      <point x="394" y="224" type="line"/>
      <point x="439" y="224" type="line"/>
      <point x="439" y="461" type="line"/>
      <point x="394" y="461" type="line"/>
      <point x="379" y="355" type="line"/>
    </contour>
    <contour>
      <point x="411" y="365" type="line"/>
      <point x="185" y="365" type="line"/>
      <point x="185" y="319" type="line"/>
      <point x="411" y="319" type="line"/>
    </contour>
    <contour>
      <point x="493" y="492" type="line"/>
      <point x="549" y="492" type="line"/>
      <point x="542" y="670" type="line"/>
      <point x="185" y="670" type="line"/>
      <point x="185" y="620" type="line"/>
      <point x="471" y="620" type="line"/>
    </contour>
    <contour>
      <point x="513" y="178" type="line"/>
      <point x="491" y="50" type="line"/>
      <point x="185" y="50" type="line"/>
      <point x="185" y="0" type="line"/>
      <point x="562" y="0" type="line"/>
      <point x="569" y="178" type="line"/>
    </contour>
    <contour>
      <point x="276" y="746" type="curve"/>
      <point x="294" y="722" type="line"/>
      <point x="335" y="743"/>
      <point x="377" y="766"/>
      <point x="418" y="789" type="curve" smooth="yes"/>
      <point x="455" y="810"/>
      <point x="468" y="826"/>
      <point x="468" y="844" type="curve" smooth="yes"/>
      <point x="468" y="864"/>
      <point x="451" y="877"/>
      <point x="431" y="877" type="curve" smooth="yes"/>
      <point x="414" y="877"/>
      <point x="397" y="867"/>
      <point x="369" y="839" type="curve" smooth="yes"/>
      <point x="338" y="809"/>
      <point x="307" y="778"/>
    </contour>
  </outline>
</glyph>
<glyph name="Igrave" format="1">
  <advance width="370"/>
  <unicode hex="00CC"/>
  <outline>
    <contour>
      <point x="175" y="55" type="line"/>
      <point x="45" y="40" type="line"/>
      <point x="45" y="0" type="line"/>
      <point x="325" y="0" type="line"/>
      <point x="325" y="40" type="line"/>
      <point x="195" y="55" type="line"/>
    </contour>
    <contour>
      <point x="175" y="615" type="line"/>
      <point x="195" y="615" type="line"/>
      <point x="325" y="630" type="line"/>
      <point x="325" y="670" type="line"/>
      <point x="45" y="670" type="line"/>
      <point x="45" y="630" type="line"/>
    </contour>
    <contour>
      <point x="140" y="310" type="line" smooth="yes"/>
      <point x="140" y="205"/>
      <point x="140" y="101"/>
      <point x="137" y="0" type="curve"/>
      <point x="233" y="0" type="line"/>
      <point x="230" y="103"/>
      <point x="230" y="207"/>
      <point x="230" y="310" type="curve" smooth="yes"/>
      <point x="230" y="360" type="line" smooth="yes"/>
      <point x="230" y="465"/>
      <point x="230" y="569"/>
      <point x="233" y="670" type="curve"/>
      <point x="137" y="670" type="line"/>
      <point x="140" y="567"/>
      <point x="140" y="463"/>
      <point x="140" y="360" type="curve" smooth="yes"/>
    </contour>
    <contour>
      <point x="251" y="746" type="line"/>
      <point x="221" y="777"/>
      <point x="190" y="808"/>
      <point x="158" y="839" type="curve" smooth="yes"/>
      <point x="130" y="867"/>
      <point x="113" y="877"/>
      <point x="96" y="877" type="curve" smooth="yes"/>
      <point x="76" y="877"/>
      <point x="59" y="864"/>
      <point x="59" y="844" type="curve" smooth="yes"/>
      <point x="59" y="826"/>
      <point x="72" y="809"/>
      <point x="109" y="789" type="curve" smooth="yes"/>
      <point x="149" y="767"/>
      <point x="191" y="744"/>
      <point x="233" y="722" type="curve"/>
    </contour>
  </outline>
</glyph>
<glyph name="Iacute" format="1">
  <advance width="370"/>
  <unicode hex="00CD"/>
  <outline>
    <contour>
      <point x="175" y="55" type="line"/>
      <point x="45" y="40" type="line"/>
      <point x="45" y="0" type="line"/>
      <point x="325" y="0" type="line"/>
      <point x="325" y="40" type="line"/>
      <point x="195" y="55" type="line"/>
    </contour>
    <contour>
      <point x="175" y="615" type="line"/>
      <point x="195" y="615" type="line"/>
      <point x="325" y="630" type="line"/>
      <point x="325" y="670" type="line"/>
      <point x="45" y="670" type="line"/>
      <point x="45" y="630" type="line"/>
    </contour>
    <contour>
      <point x="140" y="310" type="line" smooth="yes"/>
      <point x="140" y="205"/>
      <point x="140" y="101"/>
      <point x="137" y="0" type="curve"/>
      <point x="233" y="0" type="line"/>
      <point x="230" y="103"/>
      <point x="230" y="207"/>
      <point x="230" y="310" type="curve" smooth="yes"/>
      <point x="230" y="360" type="line" smooth="yes"/>
      <point x="230" y="465"/>
      <point x="230" y="569"/>
      <point x="233" y="670" type="curve"/>
      <point x="137" y="670" type="line"/>
      <point x="140" y="567"/>
      <point x="140" y="463"/>
      <point x="140" y="360" type="curve" smooth="yes"/>
    </contour>
    <contour>
      <point x="139" y="746" type="curve"/>
      <point x="157" y="722" type="line"/>
      <point x="198" y="743"/>
      <point x="240" y="766"/>
      <point x="281" y="789" type="curve" smooth="yes"/>
      <point x="318" y="810"/>
      <point x="331" y="826"/>
      <point x="331" y="844" type="curve" smooth="yes"/>
      <point x="331" y="864"/>
      <point x="314" y="877"/>
      <point x="294" y="877" type="curve" smooth="yes"/>
      <point x="277" y="877"/>
      <point x="260" y="867"/>
      <point x="232" y="839" type="curve" smooth="yes"/>
      <point x="201" y="809"/>
      <point x="170" y="778"/>
    </contour>
  </outline>
</glyph>
<glyph name="Ntilde" format="1">
  <advance width="735"/>
  <unicode hex="00D1"/>
  <outline>
    <contour>
      <point x="40" y="0" type="line"/>
      <point x="280" y="0" type="line"/>
      <point x="280" y="40" type="line"/>
      <point x="165" y="55" type="line"/>
      <point x="145" y="55" type="line"/>
      <point x="40" y="40" type="line"/>
    </contour>
    <contour>
      <point x="125" y="0" type="line"/>
      <point x="175" y="0" type="line"/>
      <point x="175" y="647" type="line"/>
      <point x="125" y="647" type="line"/>
    </contour>
    <contour>
      <point x="455" y="630" type="line"/>
      <point x="575" y="615" type="line"/>
      <point x="595" y="615" type="line"/>
      <point x="695" y="630" type="line"/>
      <point x="695" y="670" type="line"/>
      <point x="455" y="670" type="line"/>
    </contour>
    <contour>
      <point x="578" y="-7" type="line"/>
      <point x="610" y="-7" type="line"/>
      <point x="610" y="670" type="line"/>
      <point x="560" y="670" type="line"/>
      <point x="560" y="168" type="line"/>
      <point x="195" y="670" type="line"/>
      <point x="45" y="670" type="line"/>
      <point x="45" y="630" type="line"/>
      <point x="116" y="621" type="line"/>
    </contour>
    <contour>
      <point x="197" y="725" type="curve"/>
      <point x="226" y="716" type="line"/>
      <point x="242" y="766"/>
      <point x="262" y="797"/>
      <point x="295" y="797" type="curve" smooth="yes"/>
      <point x="325" y="797"/>
      <point x="346" y="769"/>
      <point x="371" y="748" type="curve" smooth="yes"/>
      <point x="393" y="730"/>
      <point x="416" y="714"/>
      <point x="453" y="714" type="curve" smooth="yes"/>
      <point x="515" y="714"/>
      <point x="544" y="765"/>
      <point x="557" y="842" type="curve"/>
      <point x="528" y="851" type="line"/>
      <point x="512" y="801"/>
      <point x="493" y="770"/>
      <point x="459" y="770" type="curve" smooth="yes"/>
      <point x="429" y="770"/>
      <point x="408" y="798"/>
      <point x="383" y="819" type="curve" smooth="yes"/>
      <point x="360" y="837"/>
      <point x="338" y="853"/>
      <point x="301" y="853" type="curve" smooth="yes"/>
      <point x="240" y="853"/>
      <point x="209" y="802"/>
    </contour>
  </outline>
</glyph>
<glyph name="Ograve" format="1">
  <advance width="707"/>
  <unicode hex="00D2"/>
  <outline>
    <contour>
      <point x="153" y="335" type="curve" smooth="yes"/>
      <point x="153" y="485"/>
      <point x="213" y="635"/>
      <point x="354" y="635" type="curve" smooth="yes"/>
      <point x="495" y="635"/>
      <point x="554" y="485"/>
      <point x="554" y="335" type="curve" smooth="yes"/>
      <point x="554" y="185"/>
      <point x="495" y="35"/>
      <point x="354" y="35" type="curve" smooth="yes"/>
      <point x="213" y="35"/>
      <point x="153" y="185"/>
    </contour>
    <contour>
      <point x="354" y="685" type="curve" smooth="yes"/>
      <point x="200" y="685"/>
      <point x="48" y="554"/>
      <point x="48" y="335" type="curve" smooth="yes"/>
      <point x="48" y="107"/>
      <point x="199" y="-15"/>
      <point x="354" y="-15" type="curve" smooth="yes"/>
      <point x="509" y="-15"/>
      <point x="659" y="116"/>
      <point x="659" y="335" type="curve" smooth="yes"/>
      <point x="659" y="563"/>
      <point x="508" y="685"/>
    </contour>
    <contour>
      <point x="419" y="746" type="line"/>
      <point x="389" y="777"/>
      <point x="358" y="808"/>
      <point x="326" y="839" type="curve" smooth="yes"/>
      <point x="298" y="867"/>
      <point x="281" y="877"/>
      <point x="264" y="877" type="curve" smooth="yes"/>
      <point x="244" y="877"/>
      <point x="227" y="864"/>
      <point x="227" y="844" type="curve" smooth="yes"/>
      <point x="227" y="826"/>
      <point x="240" y="809"/>
      <point x="277" y="789" type="curve" smooth="yes"/>
      <point x="317" y="767"/>
      <point x="359" y="744"/>
      <point x="401" y="722" type="curve"/>
    </contour>
  </outline>
</glyph>
<glyph name="Oacute" format="1">
  <advance width="707"/>
  <unicode hex="00D3"/>
  <outline>
    <contour>
      <point x="153" y="335" type="curve" smooth="yes"/>
      <point x="153" y="485"/>
      <point x="213" y="635"/>
      <point x="354" y="635" type="curve" smooth="yes"/>
      <point x="495" y="635"/>
      <point x="554" y="485"/>
      <point x="554" y="335" type="curve" smooth="yes"/>
      <point x="554" y="185"/>
      <point x="495" y="35"/>
      <point x="354" y="35" type="curve" smooth="yes"/>
      <point x="213" y="35"/>
      <point x="153" y="185"/>
    </contour>
    <contour>
      <point x="354" y="685" type="curve" smooth="yes"/>
      <point x="200" y="685"/>
      <point x="48" y="554"/>
      <point x="48" y="335" type="curve" smooth="yes"/>
      <point x="48" y="107"/>
      <point x="199" y="-15"/>
      <point x="354" y="-15" type="curve" smooth="yes"/>
      <point x="509" y="-15"/>
      <point x="659" y="116"/>
      <point x="659" y="335" type="curve" smooth="yes"/>
      <point x="659" y="563"/>
      <point x="508" y="685"/>
    </contour>
    <contour>
      <point x="308" y="746" type="curve"/>
      <point x="326" y="722" type="line"/>
      <point x="367" y="743"/>
      <point x="409" y="766"/>
      <point x="450" y="789" type="curve" smooth="yes"/>
      <point x="487" y="810"/>
      <point x="500" y="826"/>
      <point x="500" y="844" type="curve" smooth="yes"/>
      <point x="500" y="864"/>
      <point x="483" y="877"/>
      <point x="463" y="877" type="curve" smooth="yes"/>
      <point x="446" y="877"/>
      <point x="429" y="867"/>
      <point x="401" y="839" type="curve" smooth="yes"/>
      <point x="370" y="809"/>
      <point x="339" y="778"/>
    </contour>
  </outline>
</glyph>
<glyph name="Ocircumflex" format="1">
  <advance width="707"/>
  <unicode hex="00D4"/>
  <outline>
    <contour>
      <point x="153" y="335" type="curve" smooth="yes"/>
      <point x="153" y="485"/>
      <point x="213" y="635"/>
      <point x="354" y="635" type="curve" smooth="yes"/>
      <point x="495" y="635"/>
      <point x="554" y="485"/>
      <point x="554" y="335" type="curve" smooth="yes"/>
      <point x="554" y="185"/>
      <point x="495" y="35"/>
      <point x="354" y="35" type="curve" smooth="yes"/>
      <point x="213" y="35"/>
      <point x="153" y="185"/>
    </contour>
    <contour>
      <point x="354" y="685" type="curve" smooth="yes"/>
      <point x="200" y="685"/>
      <point x="48" y="554"/>
      <point x="48" y="335" type="curve" smooth="yes"/>
      <point x="48" y="107"/>
      <point x="199" y="-15"/>
      <point x="354" y="-15" type="curve" smooth="yes"/>
      <point x="509" y="-15"/>
      <point x="659" y="116"/>
      <point x="659" y="335" type="curve" smooth="yes"/>
      <point x="659" y="563"/>
      <point x="508" y="685"/>
    </contour>
    <contour>
      <point x="370" y="855" type="line"/>
      <point x="338" y="855" type="line"/>
      <point x="208" y="742" type="line"/>
      <point x="227" y="718" type="line"/>
      <point x="396" y="815" type="line"/>
      <point x="312" y="815" type="line"/>
      <point x="481" y="718" type="line"/>
      <point x="500" y="742" type="line"/>
    </contour>
  </outline>
</glyph>
<glyph name="Odieresis" format="1">
  <advance width="707"/>
  <unicode hex="00D6"/>
  <outline>
    <contour>
      <point x="153" y="335" type="curve" smooth="yes"/>
      <point x="153" y="485"/>
      <point x="213" y="635"/>
      <point x="354" y="635" type="curve" smooth="yes"/>
      <point x="495" y="635"/>
      <point x="554" y="485"/>
      <point x="554" y="335" type="curve" smooth="yes"/>
      <point x="554" y="185"/>
      <point x="495" y="35"/>
      <point x="354" y="35" type="curve" smooth="yes"/>
      <point x="213" y="35"/>
      <point x="153" y="185"/>
    </contour>
    <contour>
      <point x="354" y="685" type="curve" smooth="yes"/>
      <point x="200" y="685"/>
      <point x="48" y="554"/>
      <point x="48" y="335" type="curve" smooth="yes"/>
      <point x="48" y="107"/>
      <point x="199" y="-15"/>
      <point x="354" y="-15" type="curve" smooth="yes"/>
      <point x="509" y="-15"/>
      <point x="659" y="116"/>
      <point x="659" y="335" type="curve" smooth="yes"/>
      <point x="659" y="563"/>
      <point x="508" y="685"/>
    </contour>
    <contour>
      <point x="243" y="746" type="curve" smooth="yes"/>
      <point x="274" y="746"/>
      <point x="299" y="769"/>
      <point x="299" y="800" type="curve" smooth="yes"/>
      <point x="299" y="831"/>
      <point x="274" y="854"/>
      <point x="243" y="854" type="curve" smooth="yes"/>
      <point x="212" y="854"/>
      <point x="186" y="831"/>
      <point x="186" y="800" type="curve" smooth="yes"/>
      <point x="186" y="769"/>
      <point x="212" y="746"/>
    </contour>
    <contour>
      <point x="464" y="746" type="curve" smooth="yes"/>
      <point x="495" y="746"/>
      <point x="521" y="769"/>
      <point x="521" y="800" type="curve" smooth="yes"/>
      <point x="521" y="831"/>
      <point x="495" y="854"/>
      <point x="464" y="854" type="curve" smooth="yes"/>
      <point x="433" y="854"/>
      <point x="408" y="831"/>
      <point x="408" y="800" type="curve" smooth="yes"/>
      <point x="408" y="769"/>
      <point x="433" y="746"/>
    </contour>
  </outline>
</glyph>
<glyph name="Yacute" format="1">
  <advance width="633"/>
  <unicode hex="00DD"/>
  <outline>
    <contour>
      <point x="308" y="55" type="line"/>
      <point x="168" y="40" type="line"/>
      <point x="168" y="0" type="line"/>
      <point x="468" y="0" type="line"/>
      <point x="468" y="40" type="line"/>
      <point x="328" y="55" type="line"/>
    </contour>
    <contour>
      <point x="145" y="615" type="line"/>
      <point x="165" y="615" type="line"/>
      <point x="295" y="630" type="line"/>
      <point x="295" y="670" type="line"/>
      <point x="15" y="670" type="line"/>
      <point x="15" y="630" type="line"/>
    </contour>
    <contour>
      <point x="523" y="615" type="line"/>
      <point x="623" y="630" type="line"/>
      <point x="623" y="670" type="line"/>
      <point x="393" y="670" type="line"/>
      <point x="393" y="630" type="line"/>
      <point x="504" y="615" type="line"/>
    </contour>
    <contour>
      <point x="270" y="0" type="curve"/>
      <point x="366" y="0" type="line"/>
      <point x="363" y="89"/>
      <point x="363" y="186"/>
      <point x="363" y="300" type="curve"/>
      <point x="273" y="300" type="line"/>
      <point x="273" y="185"/>
      <point x="273" y="87"/>
    </contour>
    <contour>
      <point x="345" y="225" type="line"/>
      <point x="560" y="670" type="line"/>
      <point x="509" y="670" type="line"/>
      <point x="322" y="276" type="line"/>
      <point x="357" y="276" type="line"/>
      <point x="175" y="670" type="line"/>
      <point x="71" y="670" type="line"/>
      <point x="290" y="225" type="line"/>
    </contour>
    <contour>
      <point x="305" y="736" type="curve"/>
      <point x="323" y="712" type="line"/>
      <point x="364" y="733"/>
      <point x="406" y="756"/>
      <point x="447" y="779" type="curve" smooth="yes"/>
      <point x="484" y="800"/>
      <point x="497" y="816"/>
      <point x="497" y="834" type="curve" smooth="yes"/>
      <point x="497" y="854"/>
      <point x="480" y="867"/>
      <point x="460" y="867" type="curve" smooth="yes"/>
      <point x="443" y="867"/>
      <point x="426" y="857"/>
      <point x="398" y="829" type="curve" smooth="yes"/>
      <point x="367" y="799"/>
      <point x="336" y="768"/>
    </contour>
  </outline>
</glyph>
<glyph name="ccedilla" format="1">
  <advance width="486"/>
  <unicode hex="00E7"/>
  <outline>
    <contour>
      <point x="275" y="442" type="curve" smooth="yes"/>
      <point x="303" y="442"/>
      <point x="337" y="435"/>
      <point x="371" y="417" type="curve"/>
      <point x="325" y="454" type="line"/>
      <point x="350" y="366" type="line" smooth="yes"/>
      <point x="357" y="341"/>
      <point x="370" y="321"/>
      <point x="403" y="321" type="curve" smooth="yes"/>
      <point x="428" y="321"/>
      <point x="443" y="333"/>
      <point x="448" y="358" type="curve"/>
      <point x="435" y="432"/>
      <point x="361" y="487"/>
      <point x="272" y="487" type="curve" smooth="yes"/>
      <point x="153" y="487"/>
      <point x="43" y="393"/>
      <point x="43" y="236" type="curve" smooth="yes"/>
      <point x="43" y="83"/>
      <point x="129" y="-13"/>
      <point x="266" y="-13" type="curve" smooth="yes"/>
      <point x="360" y="-13"/>
      <point x="424" y="33"/>
      <point x="451" y="116" type="curve"/>
      <point x="427" y="128" type="line"/>
      <point x="396" y="78"/>
      <point x="345" y="50"/>
      <point x="287" y="50" type="curve" smooth="yes"/>
      <point x="193" y="50"/>
      <point x="126" y="119"/>
      <point x="126" y="245" type="curve" smooth="yes"/>
      <point x="126" y="373"/>
      <point x="188" y="442"/>
    </contour>
    <contour>
      <point x="238" y="-86" type="line"/>
      <point x="287" y="-93"/>
      <point x="310" y="-107"/>
      <point x="310" y="-138" type="curve" smooth="yes"/>
      <point x="310" y="-166"/>
      <point x="291" y="-184"/>
      <point x="252" y="-184" type="curve" smooth="yes"/>
      <point x="234" y="-184"/>
      <point x="220" y="-183"/>
      <point x="204" y="-181" type="curve"/>
      <point x="197" y="-211" type="line"/>
      <point x="210" y="-215"/>
      <point x="231" y="-220"/>
      <point x="259" y="-220" type="curve" smooth="yes"/>
      <point x="332" y="-220"/>
      <point x="370" y="-186"/>
      <point x="370" y="-140" type="curve" smooth="yes"/>
      <point x="370" y="-85"/>
      <point x="316" y="-59"/>
      <point x="257" y="-56" type="curve"/>
      <point x="277" y="-77" type="line"/>
      <point x="287" y="3" type="line"/>
      <point x="251" y="3" type="line"/>
    </contour>
  </outline>
</glyph>
<glyph name="egrave" format="1">
  <advance width="509"/>
  <unicode hex="00E8"/>
  <outline>
    <contour>
      <point x="274" y="487" type="curve" smooth="yes"/>
      <point x="150" y="487"/>
      <point x="46" y="385"/>
      <point x="46" y="232" type="curve" smooth="yes"/>
      <point x="46" y="80"/>
      <point x="133" y="-13"/>
      <point x="267" y="-13" type="curve" smooth="yes"/>
      <point x="358" y="-13"/>
      <point x="422" y="32"/>
      <point x="458" y="103" type="curve"/>
      <point x="435" y="121" type="line"/>
      <point x="399" y="79"/>
      <point x="359" y="50"/>
      <point x="295" y="50" type="curve" smooth="yes"/>
      <point x="195" y="50"/>
      <point x="131" y="118"/>
      <point x="131" y="245" type="curve" smooth="yes"/>
      <point x="131" y="388"/>
      <point x="205" y="442"/>
      <point x="269" y="442" type="curve" smooth="yes"/>
      <point x="332" y="442"/>
      <point x="380" y="390"/>
      <point x="380" y="333" type="curve" smooth="yes"/>
      <point x="380" y="305"/>
      <point x="369" y="282"/>
      <point x="321" y="282" type="curve" smooth="yes"/>
      <point x="83" y="282" type="line"/>
      <point x="83" y="240" type="line"/>
      <point x="452" y="240" type="line"/>
      <point x="456" y="253"/>
      <point x="459" y="273"/>
      <point x="459" y="296" type="curve" smooth="yes"/>
      <point x="459" y="417"/>
      <point x="377" y="487"/>
    </contour>
    <contour>
      <point x="308" y="576" type="line"/>
      <point x="279" y="623"/>
      <point x="250" y="670"/>
      <point x="219" y="717" type="curve" smooth="yes"/>
      <point x="200" y="747"/>
      <point x="183" y="757"/>
      <point x="166" y="757" type="curve" smooth="yes"/>
      <point x="147" y="757"/>
      <point x="129" y="745"/>
      <point x="129" y="720" type="curve" smooth="yes"/>
      <point x="129" y="707"/>
      <point x="134" y="692"/>
      <point x="161" y="667" type="curve" smooth="yes"/>
      <point x="201" y="630"/>
      <point x="241" y="594"/>
      <point x="283" y="557" type="curve"/>
    </contour>
  </outline>
</glyph>
<glyph name="eacute" format="1">
  <advance width="509"/>
  <unicode hex="00E9"/>
  <outline>
    <contour>
      <point x="274" y="487" type="curve" smooth="yes"/>
      <point x="150" y="487"/>
      <point x="46" y="385"/>
      <point x="46" y="232" type="curve" smooth="yes"/>
      <point x="46" y="80"/>
      <point x="133" y="-13"/>
      <point x="267" y="-13" type="curve" smooth="yes"/>
      <point x="358" y="-13"/>
      <point x="422" y="32"/>
      <point x="458" y="103" type="curve"/>
      <point x="435" y="121" type="line"/>
      <point x="399" y="79"/>
      <point x="359" y="50"/>
      <point x="295" y="50" type="curve" smooth="yes"/>
      <point x="195" y="50"/>
      <point x="131" y="118"/>
      <point x="131" y="245" type="curve" smooth="yes"/>
      <point x="131" y="388"/>
      <point x="205" y="442"/>
      <point x="269" y="442" type="curve" smooth="yes"/>
      <point x="332" y="442"/>
      <point x="380" y="390"/>
      <point x="380" y="333" type="curve" smooth="yes"/>
      <point x="380" y="305"/>
      <point x="369" y="282"/>
      <point x="321" y="282" type="curve" smooth="yes"/>
      <point x="83" y="282" type="line"/>
      <point x="83" y="240" type="line"/>
      <point x="452" y="240" type="line"/>
      <point x="456" y="253"/>
      <point x="459" y="273"/>
      <point x="459" y="296" type="curve" smooth="yes"/>
      <point x="459" y="417"/>
      <point x="377" y="487"/>
    </contour>
    <contour>
      <point x="226" y="576" type="curve"/>
      <point x="251" y="557" type="line"/>
      <point x="293" y="594"/>
      <point x="333" y="630"/>
      <point x="373" y="667" type="curve" smooth="yes"/>
      <point x="400" y="692"/>
      <point x="405" y="707"/>
      <point x="405" y="720" type="curve" smooth="yes"/>
      <point x="405" y="745"/>
      <point x="387" y="757"/>
      <point x="368" y="757" type="curve" smooth="yes"/>
      <point x="351" y="757"/>
      <point x="334" y="747"/>
      <point x="315" y="717" type="curve" smooth="yes"/>
      <point x="284" y="670"/>
      <point x="255" y="623"/>
    </contour>
  </outline>
</glyph>
<glyph name="igrave" format="1">
  <advance width="297"/>
  <unicode hex="00EC"/>
  <outline>
    <contour>
      <point x="110" y="0" type="curve"/>
      <point x="196" y="0" type="line"/>
      <point x="194" y="45"/>
      <point x="193" y="148"/>
      <point x="193" y="210" type="curve" smooth="yes"/>
      <point x="193" y="342" type="line"/>
      <point x="196" y="477" type="line"/>
      <point x="181" y="487" type="line"/>
      <point x="30" y="427" type="line"/>
      <point x="30" y="392" type="line"/>
      <point x="110" y="383" type="line"/>
      <point x="112" y="343"/>
      <point x="113" y="312"/>
      <point x="113" y="257" type="curve" smooth="yes"/>
      <point x="113" y="210" type="line" smooth="yes"/>
      <point x="113" y="148"/>
      <point x="112" y="45"/>
    </contour>
    <contour>
      <point x="35" y="0" type="line"/>
      <point x="265" y="0" type="line"/>
      <point x="265" y="35" type="line"/>
      <point x="165" y="55" type="line"/>
      <point x="145" y="55" type="line"/>
      <point x="35" y="35" type="line"/>
    </contour>
    <contour>
      <point x="195" y="576" type="line"/>
      <point x="166" y="623"/>
      <point x="137" y="670"/>
      <point x="106" y="717" type="curve" smooth="yes"/>
      <point x="87" y="747"/>
      <point x="70" y="757"/>
      <point x="53" y="757" type="curve" smooth="yes"/>
      <point x="34" y="757"/>
      <point x="16" y="745"/>
      <point x="16" y="720" type="curve" smooth="yes"/>
      <point x="16" y="707"/>
      <point x="21" y="692"/>
      <point x="48" y="667" type="curve" smooth="yes"/>
      <point x="88" y="630"/>
      <point x="128" y="594"/>
      <point x="170" y="557" type="curve"/>
    </contour>
  </outline>
</glyph>
<glyph name="iacute" format="1">
  <advance width="297"/>
  <unicode hex="00ED"/>
  <outline>
    <contour>
      <point x="110" y="0" type="curve"/>
      <point x="196" y="0" type="line"/>
      <point x="194" y="45"/>
      <point x="193" y="148"/>
      <point x="193" y="210" type="curve" smooth="yes"/>
      <point x="193" y="342" type="line"/>
      <point x="196" y="477" type="line"/>
      <point x="181" y="487" type="line"/>
      <point x="30" y="427" type="line"/>
      <point x="30" y="392" type="line"/>
      <point x="110" y="383" type="line"/>
      <point x="112" y="343"/>
      <point x="113" y="312"/>
      <point x="113" y="257" type="curve" smooth="yes"/>
      <point x="113" y="210" type="line" smooth="yes"/>
      <point x="113" y="148"/>
      <point x="112" y="45"/>
    </contour>
    <contour>
      <point x="35" y="0" type="line"/>
      <point x="265" y="0" type="line"/>
      <point x="265" y="35" type="line"/>
      <point x="165" y="55" type="line"/>
      <point x="145" y="55" type="line"/>
      <point x="35" y="35" type="line"/>
    </contour>
    <contour>
      <point x="108" y="576" type="curve"/>
      <point x="133" y="557" type="line"/>
      <point x="175" y="594"/>
      <point x="215" y="630"/>
      <point x="255" y="667" type="curve" smooth="yes"/>
      <point x="282" y="692"/>
      <point x="287" y="707"/>
      <point x="287" y="720" type="curve" smooth="yes"/>
      <point x="287" y="745"/>
      <point x="269" y="757"/>
      <point x="250" y="757" type="curve" smooth="yes"/>
      <point x="233" y="757"/>
      <point x="216" y="747"/>
      <point x="197" y="717" type="curve" smooth="yes"/>
      <point x="166" y="670"/>
      <point x="137" y="623"/>
    </contour>
  </outline>
</glyph>
<glyph name="icircumflex" format="1">
  <advance width="297"/>
  <unicode hex="00EE"/>
  <outline>
    <contour>
      <point x="110" y="0" type="curve"/>
      <point x="196" y="0" type="line"/>
      <point x="194" y="45"/>
      <point x="193" y="148"/>
      <point x="193" y="210" type="curve" smooth="yes"/>
      <point x="193" y="342" type="line"/>
      <point x="196" y="477" type="line"/>
      <point x="181" y="487" type="line"/>
      <point x="30" y="427" type="line"/>
      <point x="30" y="392" type="line"/>
      <point x="110" y="383" type="line"/>
      <point x="112" y="343"/>
      <point x="113" y="312"/>
      <point x="113" y="257" type="curve" smooth="yes"/>
      <point x="113" y="210" type="line" smooth="yes"/>
      <point x="113" y="148"/>
      <point x="112" y="45"/>
    </contour>
    <contour>
      <point x="35" y="0" type="line"/>
      <point x="265" y="0" type="line"/>
      <point x="265" y="35" type="line"/>
      <point x="165" y="55" type="line"/>
      <point x="145" y="55" type="line"/>
      <point x="35" y="35" type="line"/>
    </contour>
    <contour>
      <point x="276" y="546" type="line"/>
      <point x="299" y="567" type="line"/>
      <point x="167" y="743" type="line"/>
      <point x="135" y="743" type="line"/>
      <point x="3" y="567" type="line"/>
      <point x="26" y="546" type="line"/>
      <point x="193" y="699" type="line"/>
      <point x="109" y="699" type="line"/>
    </contour>
  </outline>
</glyph>
<glyph name="ntilde" format="1">
  <advance width="605"/>
  <unicode hex="00F1"/>
  <outline>
    <contour>
      <point x="201" y="0" type="line"/>
      <point x="199" y="45"/>
      <point x="198" y="148"/>
      <point x="198" y="210" type="curve" smooth="yes"/>
      <point x="198" y="361" type="line"/>
      <point x="186" y="477" type="line"/>
      <point x="171" y="487" type="line"/>
      <point x="35" y="427" type="line"/>
      <point x="35" y="392" type="line"/>
      <point x="115" y="383" type="line"/>
      <point x="117" y="343"/>
      <point x="118" y="312"/>
      <point x="118" y="257" type="curve" smooth="yes"/>
      <point x="118" y="210" type="line" smooth="yes"/>
      <point x="118" y="148"/>
      <point x="117" y="45"/>
      <point x="115" y="0" type="curve"/>
    </contour>
    <contour>
      <point x="171" y="55" type="line"/>
      <point x="151" y="55" type="line"/>
      <point x="41" y="35" type="line"/>
      <point x="41" y="0" type="line"/>
      <point x="271" y="0" type="line"/>
      <point x="271" y="35" type="line"/>
    </contour>
    <contour>
      <point x="455" y="55" type="line"/>
      <point x="345" y="35" type="line"/>
      <point x="345" y="0" type="line"/>
      <point x="575" y="0" type="line"/>
      <point x="575" y="35" type="line"/>
      <point x="475" y="55" type="line"/>
    </contour>
    <contour>
      <point x="375" y="487" type="curve" smooth="yes"/>
      <point x="304" y="487"/>
      <point x="224" y="438"/>
      <point x="177" y="375" type="curve"/>
      <point x="190" y="348" type="line"/>
      <point x="247" y="397"/>
      <point x="288" y="417"/>
      <point x="338" y="417" type="curve" smooth="yes"/>
      <point x="398" y="417"/>
      <point x="422" y="387"/>
      <point x="422" y="294" type="curve" smooth="yes"/>
      <point x="422" y="210" type="line" smooth="yes"/>
      <point x="422" y="146"/>
      <point x="421" y="45"/>
      <point x="419" y="0" type="curve"/>
      <point x="505" y="0" type="line"/>
      <point x="503" y="45"/>
      <point x="502" y="146"/>
      <point x="502" y="210" type="curve" smooth="yes"/>
      <point x="502" y="302" type="line" smooth="yes"/>
      <point x="502" y="434"/>
      <point x="461" y="487"/>
    </contour>
    <contour>
      <point x="140" y="586" type="curve"/>
      <point x="166" y="577" type="line"/>
      <point x="180" y="627"/>
      <point x="198" y="658"/>
      <point x="228" y="658" type="curve" smooth="yes"/>
      <point x="255" y="658"/>
      <point x="274" y="630"/>
      <point x="297" y="609" type="curve" smooth="yes"/>
      <point x="316" y="591"/>
      <point x="337" y="575"/>
      <point x="370" y="575" type="curve" smooth="yes"/>
      <point x="426" y="575"/>
      <point x="452" y="626"/>
      <point x="464" y="703" type="curve"/>
      <point x="438" y="712" type="line"/>
      <point x="424" y="662"/>
      <point x="406" y="631"/>
      <point x="376" y="631" type="curve" smooth="yes"/>
      <point x="349" y="631"/>
      <point x="330" y="659"/>
      <point x="307" y="680" type="curve" smooth="yes"/>
      <point x="287" y="698"/>
      <point x="267" y="714"/>
      <point x="234" y="714" type="curve" smooth="yes"/>
      <point x="179" y="714"/>
      <point x="151" y="663"/>
    </contour>
  </outline>
</glyph>
<glyph name="ograve" format="1">
  <advance width="548"/>
  <unicode hex="00F2"/>
  <outline>
    <contour>
      <point x="274" y="-13" type="curve" smooth="yes"/>
      <point x="387" y="-13"/>
      <point x="502" y="69"/>
      <point x="502" y="235" type="curve" smooth="yes"/>
      <point x="502" y="401"/>
      <point x="387" y="487"/>
      <point x="274" y="487" type="curve" smooth="yes"/>
      <point x="159" y="487"/>
      <point x="46" y="401"/>
      <point x="46" y="235" type="curve" smooth="yes"/>
      <point x="46" y="69"/>
      <point x="159" y="-13"/>
    </contour>
    <contour>
      <point x="274" y="32" type="curve" smooth="yes"/>
      <point x="185" y="32"/>
      <point x="136" y="101"/>
      <point x="136" y="235" type="curve" smooth="yes"/>
      <point x="136" y="369"/>
      <point x="185" y="442"/>
      <point x="274" y="442" type="curve" smooth="yes"/>
      <point x="361" y="442"/>
      <point x="412" y="369"/>
      <point x="412" y="235" type="curve" smooth="yes"/>
      <point x="412" y="101"/>
      <point x="361" y="32"/>
    </contour>
    <contour>
      <point x="318" y="576" type="line"/>
      <point x="289" y="623"/>
      <point x="260" y="670"/>
      <point x="229" y="717" type="curve" smooth="yes"/>
      <point x="210" y="747"/>
      <point x="193" y="757"/>
      <point x="176" y="757" type="curve" smooth="yes"/>
      <point x="157" y="757"/>
      <point x="139" y="745"/>
      <point x="139" y="720" type="curve" smooth="yes"/>
      <point x="139" y="707"/>
      <point x="144" y="692"/>
      <point x="171" y="667" type="curve" smooth="yes"/>
      <point x="211" y="630"/>
      <point x="251" y="594"/>
      <point x="293" y="557" type="curve"/>
    </contour>
  </outline>
</glyph>
<glyph name="ocircumflex" format="1">
  <advance width="548"/>
  <unicode hex="00F4"/>
  <outline>
    <contour>
      <point x="274" y="-13" type="curve" smooth="yes"/>
      <point x="387" y="-13"/>
      <point x="502" y="69"/>
      <point x="502" y="235" type="curve" smooth="yes"/>
      <point x="502" y="401"/>
      <point x="387" y="487"/>
      <point x="274" y="487" type="curve" smooth="yes"/>
      <point x="159" y="487"/>
      <point x="46" y="401"/>
      <point x="46" y="235" type="curve" smooth="yes"/>
      <point x="46" y="69"/>
      <point x="159" y="-13"/>
    </contour>
    <contour>
      <point x="274" y="32" type="curve" smooth="yes"/>
      <point x="185" y="32"/>
      <point x="136" y="101"/>
      <point x="136" y="235" type="curve" smooth="yes"/>
      <point x="136" y="369"/>
      <point x="185" y="442"/>
      <point x="274" y="442" type="curve" smooth="yes"/>
      <point x="361" y="442"/>
      <point x="412" y="369"/>
      <point x="412" y="235" type="curve" smooth="yes"/>
      <point x="412" y="101"/>
      <point x="361" y="32"/>
    </contour>
    <contour>
      <point x="399" y="546" type="line"/>
      <point x="422" y="567" type="line"/>
      <point x="290" y="743" type="line"/>
      <point x="258" y="743" type="line"/>
      <point x="126" y="567" type="line"/>
      <point x="149" y="546" type="line"/>
      <point x="316" y="699" type="line"/>
      <point x="232" y="699" type="line"/>
    </contour>
  </outline>
</glyph>
<glyph name="otilde" format="1">
  <advance width="548"/>
  <unicode hex="00F5"/>
  <outline>
    <contour>
      <point x="274" y="-13" type="curve" smooth="yes"/>
      <point x="387" y="-13"/>
      <point x="502" y="69"/>
      <point x="502" y="235" type="curve" smooth="yes"/>
      <point x="502" y="401"/>
      <point x="387" y="487"/>
      <point x="274" y="487" type="curve" smooth="yes"/>
      <point x="159" y="487"/>
      <point x="46" y="401"/>
      <point x="46" y="235" type="curve" smooth="yes"/>
      <point x="46" y="69"/>
      <point x="159" y="-13"/>
    </contour>
    <contour>
      <point x="274" y="32" type="curve" smooth="yes"/>
      <point x="185" y="32"/>
      <point x="136" y="101"/>
      <point x="136" y="235" type="curve" smooth="yes"/>
      <point x="136" y="369"/>
      <point x="185" y="442"/>
      <point x="274" y="442" type="curve" smooth="yes"/>
      <point x="361" y="442"/>
      <point x="412" y="369"/>
      <point x="412" y="235" type="curve" smooth="yes"/>
      <point x="412" y="101"/>
      <point x="361" y="32"/>
    </contour>
    <contour>
      <point x="112" y="586" type="curve"/>
      <point x="138" y="577" type="line"/>
      <point x="152" y="627"/>
      <point x="170" y="658"/>
      <point x="200" y="658" type="curve" smooth="yes"/>
      <point x="227" y="658"/>
      <point x="246" y="630"/>
      <point x="269" y="609" type="curve" smooth="yes"/>
      <point x="288" y="591"/>
      <point x="309" y="575"/>
      <point x="342" y="575" type="curve" smooth="yes"/>
      <point x="398" y="575"/>
      <point x="424" y="626"/>
      <point x="436" y="703" type="curve"/>
      <point x="410" y="712" type="line"/>
      <point x="396" y="662"/>
      <point x="378" y="631"/>
      <point x="348" y="631" type="curve" smooth="yes"/>
      <point x="321" y="631"/>
      <point x="302" y="659"/>
      <point x="279" y="680" type="curve" smooth="yes"/>
      <point x="259" y="698"/>
      <point x="239" y="714"/>
      <point x="206" y="714" type="curve" smooth="yes"/>
      <point x="151" y="714"/>
      <point x="123" y="663"/>
    </contour>
  </outline>
</glyph>
<glyph name="ugrave" format="1">
  <advance width="582"/>
  <unicode hex="00F9"/>
  <outline>
    <contour>
      <point x="174" y="330" type="line"/>
      <point x="179" y="470" type="line"/>
      <point x="169" y="480" type="line"/>
      <point x="25" y="467" type="line"/>
      <point x="25" y="432" type="line"/>
      <point x="118" y="412" type="line"/>
      <point x="97" y="431" type="line"/>
      <point x="94" y="167" type="line" smooth="yes"/>
      <point x="93" y="35"/>
      <point x="143" y="-13"/>
      <point x="223" y="-13" type="curve" smooth="yes"/>
      <point x="288" y="-13"/>
      <point x="356" y="19"/>
      <point x="413" y="96" type="curve"/>
      <point x="408" y="132" type="line"/>
      <point x="358" y="82"/>
      <point x="306" y="57"/>
      <point x="255" y="57" type="curve" smooth="yes"/>
      <point x="200" y="57"/>
      <point x="174" y="88"/>
      <point x="174" y="177" type="curve" smooth="yes"/>
    </contour>
    <contour>
      <point x="547" y="0" type="line"/>
      <point x="547" y="35" type="line"/>
      <point x="478" y="50" type="line"/>
      <point x="478" y="330" type="line"/>
      <point x="481" y="470" type="line"/>
      <point x="471" y="480" type="line"/>
      <point x="329" y="467" type="line"/>
      <point x="329" y="432" type="line"/>
      <point x="401" y="417" type="line"/>
      <point x="398" y="109" type="line"/>
      <point x="412" y="-8" type="line"/>
    </contour>
    <contour>
      <point x="320" y="576" type="line"/>
      <point x="291" y="623"/>
      <point x="262" y="670"/>
      <point x="231" y="717" type="curve" smooth="yes"/>
      <point x="212" y="747"/>
      <point x="195" y="757"/>
      <point x="178" y="757" type="curve" smooth="yes"/>
      <point x="159" y="757"/>
      <point x="141" y="745"/>
      <point x="141" y="720" type="curve" smooth="yes"/>
      <point x="141" y="707"/>
      <point x="146" y="692"/>
      <point x="173" y="667" type="curve" smooth="yes"/>
      <point x="213" y="630"/>
      <point x="253" y="594"/>
      <point x="295" y="557" type="curve"/>
    </contour>
  </outline>
</glyph>
<glyph name="uacute" format="1">
  <advance width="582"/>
  <unicode hex="00FA"/>
  <outline>
    <contour>
      <point x="174" y="330" type="line"/>
      <point x="179" y="470" type="line"/>
      <point x="169" y="480" type="line"/>
      <point x="25" y="467" type="line"/>
      <point x="25" y="432" type="line"/>
      <point x="118" y="412" type="line"/>
      <point x="97" y="431" type="line"/>
      <point x="94" y="167" type="line" smooth="yes"/>
      <point x="93" y="35"/>
      <point x="143" y="-13"/>
      <point x="223" y="-13" type="curve" smooth="yes"/>
      <point x="288" y="-13"/>
      <point x="356" y="19"/>
      <point x="413" y="96" type="curve"/>
      <point x="408" y="132" type="line"/>
      <point x="358" y="82"/>
      <point x="306" y="57"/>
      <point x="255" y="57" type="curve" smooth="yes"/>
      <point x="200" y="57"/>
      <point x="174" y="88"/>
      <point x="174" y="177" type="curve" smooth="yes"/>
    </contour>
    <contour>
      <point x="547" y="0" type="line"/>
      <point x="547" y="35" type="line"/>
      <point x="478" y="50" type="line"/>
      <point x="478" y="330" type="line"/>
      <point x="481" y="470" type="line"/>
      <point x="471" y="480" type="line"/>
      <point x="329" y="467" type="line"/>
      <point x="329" y="432" type="line"/>
      <point x="401" y="417" type="line"/>
      <point x="398" y="109" type="line"/>
      <point x="412" y="-8" type="line"/>
    </contour>
    <contour>
      <point x="238" y="576" type="curve"/>
      <point x="263" y="557" type="line"/>
      <point x="305" y="594"/>
      <point x="345" y="630"/>
      <point x="385" y="667" type="curve" smooth="yes"/>
      <point x="412" y="692"/>
      <point x="417" y="707"/>
      <point x="417" y="720" type="curve" smooth="yes"/>
      <point x="417" y="745"/>
      <point x="399" y="757"/>
      <point x="380" y="757" type="curve" smooth="yes"/>
      <point x="363" y="757"/>
      <point x="346" y="747"/>
      <point x="327" y="717" type="curve" smooth="yes"/>
      <point x="296" y="670"/>
      <point x="267" y="623"/>
    </contour>
  </outline>
</glyph>
<glyph name="udieresis" format="1">
  <advance width="582"/>
  <unicode hex="00FC"/>
  <outline>
    <contour>
      <point x="174" y="330" type="line"/>
      <point x="179" y="470" type="line"/>
      <point x="169" y="480" type="line"/>
      <point x="25" y="467" type="line"/>
      <point x="25" y="432" type="line"/>
      <point x="118" y="412" type="line"/>
      <point x="97" y="431" type="line"/>
      <point x="94" y="167" type="line" smooth="yes"/>
      <point x="93" y="35"/>
      <point x="143" y="-13"/>
      <point x="223" y="-13" type="curve" smooth="yes"/>
      <point x="288" y="-13"/>
      <point x="356" y="19"/>
      <point x="413" y="96" type="curve"/>
      <point x="408" y="132" type="line"/>
      <point x="358" y="82"/>
      <point x="306" y="57"/>
      <point x="255" y="57" type="curve" smooth="yes"/>
      <point x="200" y="57"/>
      <point x="174" y="88"/>
      <point x="174" y="177" type="curve" smooth="yes"/>
    </contour>
    <contour>
      <point x="547" y="0" type="line"/>
      <point x="547" y="35" type="line"/>
      <point x="478" y="50" type="line"/>
      <point x="478" y="330" type="line"/>
      <point x="481" y="470" type="line"/>
      <point x="471" y="480" type="line"/>
      <point x="329" y="467" type="line"/>
      <point x="329" y="432" type="line"/>
      <point x="401" y="417" type="line"/>
      <point x="398" y="109" type="line"/>
      <point x="412" y="-8" type="line"/>
    </contour>
    <contour>
      <point x="395" y="597" type="curve" smooth="yes"/>
      <point x="427" y="597"/>
      <point x="453" y="621"/>
      <point x="453" y="653" type="curve" smooth="yes"/>
      <point x="453" y="685"/>
      <point x="427" y="709"/>
      <point x="395" y="709" type="curve" smooth="yes"/>
      <point x="363" y="709"/>
      <point x="336" y="685"/>
      <point x="336" y="653" type="curve" smooth="yes"/>
      <point x="336" y="621"/>
      <point x="363" y="597"/>
    </contour>
    <contour>
      <point x="187" y="597" type="curve" smooth="yes"/>
      <point x="219" y="597"/>
      <point x="246" y="621"/>
      <point x="246" y="653" type="curve" smooth="yes"/>
      <point x="246" y="685"/>
      <point x="219" y="709"/>
      <point x="187" y="709" type="curve" smooth="yes"/>
      <point x="155" y="709"/>
      <point x="129" y="685"/>
      <point x="129" y="653" type="curve" smooth="yes"/>
      <point x="129" y="621"/>
      <point x="155" y="597"/>
    </contour>
  </outline>
</glyph>
<glyph name="ydieresis" format="1">
  <advance width="511"/>
  <unicode hex="00FF"/>
  <outline>
    <contour>
      <point x="441" y="424" type="line"/>
      <point x="511" y="439" type="line"/>
      <point x="511" y="474" type="line"/>
      <point x="315" y="474" type="line"/>
      <point x="315" y="439" type="line"/>
      <point x="421" y="424" type="line"/>
    </contour>
    <contour>
      <point x="122" y="424" type="line"/>
      <point x="242" y="438" type="line"/>
      <point x="242" y="474" type="line"/>
      <point x="4" y="474" type="line"/>
      <point x="4" y="439" type="line"/>
      <point x="102" y="424" type="line"/>
    </contour>
    <contour>
      <point x="292" y="48" type="line"/>
      <point x="135" y="474" type="line"/>
      <point x="42" y="474" type="line"/>
      <point x="251" y="-52" type="line"/>
    </contour>
    <contour>
      <point x="91" y="-250" type="curve" smooth="yes"/>
      <point x="173" y="-250"/>
      <point x="229" y="-174"/>
      <point x="297" y="6" type="curve" smooth="yes"/>
      <point x="475" y="474" type="line"/>
      <point x="421" y="474" type="line"/>
      <point x="267" y="49" type="line"/>
      <point x="236" y="-38" type="line" smooth="yes"/>
      <point x="211" y="-108"/>
      <point x="171" y="-177"/>
      <point x="104" y="-210" type="curve"/>
      <point x="131" y="-232" type="line"/>
      <point x="170" y="-210" type="line"/>
      <point x="139" y="-179" type="line" smooth="yes"/>
      <point x="112" y="-152"/>
      <point x="92" y="-142"/>
      <point x="66" y="-142" type="curve" smooth="yes"/>
      <point x="36" y="-142"/>
      <point x="7" y="-156"/>
      <point x="0" y="-184" type="curve"/>
      <point x="0" y="-223"/>
      <point x="42" y="-250"/>
    </contour>
    <contour>
      <point x="386" y="597" type="curve" smooth="yes"/>
      <point x="418" y="597"/>
      <point x="444" y="621"/>
      <point x="444" y="653" type="curve" smooth="yes"/>
      <point x="444" y="685"/>
      <point x="418" y="709"/>
      <point x="386" y="709" type="curve" smooth="yes"/>
      <point x="354" y="709"/>
      <point x="327" y="685"/>
      <point x="327" y="653" type="curve" smooth="yes"/>
      <point x="327" y="621"/>
      <point x="354" y="597"/>
    </contour>
    <contour>
      <point x="178" y="597" type="curve" smooth="yes"/>
      <point x="210" y="597"/>
      <point x="237" y="621"/>
      <point x="237" y="653" type="curve" smooth="yes"/>
      <point x="237" y="685"/>
      <point x="210" y="709"/>
      <point x="178" y="709" type="curve" smooth="yes"/>
      <point x="146" y="709"/>
      <point x="120" y="685"/>
      <point x="120" y="653" type="curve" smooth="yes"/>
      <point x="120" y="621"/>
      <point x="146" y="597"/>
    </contour>
  </outline>
</glyph>
<glyph name="Abreve" format="1">
  <advance width="663"/>
  <unicode hex="0102"/>
  <outline>
    <contour>
      <point x="5" y="0" type="line"/>
      <point x="235" y="0" type="line"/>
      <point x="235" y="40" type="line"/>
      <point x="125" y="55" type="line"/>
      <point x="105" y="55" type="line"/>
      <point x="5" y="40" type="line"/>
    </contour>
    <contour>
      <point x="170" y="219" type="line"/>
      <point x="472" y="219" type="line"/>
      <point x="456" y="265" type="line"/>
      <point x="186" y="265" type="line"/>
    </contour>
    <contour>
      <point x="383" y="0" type="line"/>
      <point x="653" y="0" type="line"/>
      <point x="653" y="40" type="line"/>
      <point x="529" y="55" type="line"/>
      <point x="509" y="55" type="line"/>
      <point x="383" y="40" type="line"/>
    </contour>
    <contour>
      <point x="71" y="0" type="line"/>
      <point x="118" y="0" type="line"/>
      <point x="310" y="565" type="line"/>
      <point x="500" y="0" type="line"/>
      <point x="593" y="0" type="line"/>
      <point x="363" y="675" type="line"/>
      <point x="303" y="675" type="line"/>
    </contour>
    <contour>
      <point x="192" y="849" type="line"/>
      <point x="201" y="790"/>
      <point x="246" y="722"/>
      <point x="335" y="722" type="curve" smooth="yes"/>
      <point x="424" y="722"/>
      <point x="469" y="790"/>
      <point x="478" y="849" type="curve"/>
      <point x="448" y="860" type="line"/>
      <point x="431" y="815"/>
      <point x="395" y="782"/>
      <point x="335" y="782" type="curve" smooth="yes"/>
      <point x="276" y="782"/>
      <point x="237" y="815"/>
      <point x="222" y="860" type="curve"/>
    </contour>
  </outline>
</glyph>
<glyph name="Aogonek" format="1">
  <advance width="663"/>
  <unicode hex="0104"/>
  <outline>
    <contour>
      <point x="5" y="0" type="line"/>
      <point x="235" y="0" type="line"/>
      <point x="235" y="40" type="line"/>
      <point x="125" y="55" type="line"/>
      <point x="105" y="55" type="line"/>
      <point x="5" y="40" type="line"/>
    </contour>
    <contour>
      <point x="170" y="219" type="line"/>
      <point x="472" y="219" type="line"/>
      <point x="456" y="265" type="line"/>
      <point x="186" y="265" type="line"/>
    </contour>
    <contour>
      <point x="383" y="0" type="line"/>
      <point x="653" y="0" type="line"/>
      <point x="653" y="40" type="line"/>
      <point x="529" y="55" type="line"/>
      <point x="509" y="55" type="line"/>
      <point x="383" y="40" type="line"/>
    </contour>
    <contour>
      <point x="71" y="0" type="line"/>
      <point x="118" y="0" type="line"/>
      <point x="310" y="565" type="line"/>
      <point x="500" y="0" type="line"/>
      <point x="593" y="0" type="line"/>
      <point x="363" y="675" type="line"/>
      <point x="303" y="675" type="line"/>
    </contour>
    <contour>
      <point x="451" y="-132" type="curve" smooth="yes"/>
      <point x="451" y="-187"/>
      <point x="490" y="-220"/>
      <point x="544" y="-220" type="curve" smooth="yes"/>
      <point x="579" y="-220"/>
      <point x="622" y="-207"/>
      <point x="645" y="-174" type="curve"/>
      <point x="632" y="-150" type="line"/>
      <point x="612" y="-162"/>
      <point x="592" y="-165"/>
      <point x="579" y="-165" type="curve" smooth="yes"/>
      <point x="541" y="-165"/>
      <point x="512" y="-140"/>
      <point x="512" y="-97" type="curve" smooth="yes"/>
      <point x="512" y="-57"/>
      <point x="537" y="-14"/>
      <point x="579" y="13" type="curve"/>
      <point x="551" y="13" type="line"/>
      <point x="498" y="-14"/>
      <point x="451" y="-71"/>
    </contour>
    <contour>
      <point x="321" y="691" type="move" name="aboveUC"/>
    </contour>
  </outline>
</glyph>
<glyph name="Ccircumflex" format="1">
  <advance width="632"/>
  <unicode hex="0108"/>
  <outline>
    <contour>
      <point x="390" y="35" type="curve" smooth="yes"/>
      <point x="251" y="35"/>
      <point x="153" y="140"/>
      <point x="153" y="335" type="curve" smooth="yes"/>
      <point x="153" y="530"/>
      <point x="262" y="635"/>
      <point x="397" y="635" type="curve" smooth="yes"/>
      <point x="445" y="635"/>
      <point x="501" y="618"/>
      <point x="558" y="565" type="curve"/>
      <point x="558" y="626" type="line"/>
      <point x="496" y="640" type="line"/>
      <point x="521" y="492" type="line"/>
      <point x="582" y="492" type="line"/>
      <point x="578" y="637" type="line"/>
      <point x="510" y="676"/>
      <point x="439" y="685"/>
      <point x="385" y="685" type="curve" smooth="yes"/>
      <point x="190" y="685"/>
      <point x="48" y="535"/>
      <point x="48" y="335" type="curve" smooth="yes"/>
      <point x="48" y="131"/>
      <point x="184" y="-15"/>
      <point x="386" y="-15" type="curve" smooth="yes"/>
      <point x="456" y="-15"/>
      <point x="525" y="-1"/>
      <point x="588" y="33" type="curve"/>
      <point x="592" y="178" type="line"/>
      <point x="531" y="178" type="line"/>
      <point x="506" y="30" type="line"/>
      <point x="568" y="44" type="line"/>
      <point x="568" y="99" type="line"/>
      <point x="511" y="52"/>
      <point x="447" y="35"/>
    </contour>
    <contour>
      <point x="395" y="855" type="line"/>
      <point x="363" y="855" type="line"/>
      <point x="233" y="742" type="line"/>
      <point x="252" y="718" type="line"/>
      <point x="421" y="815" type="line"/>
      <point x="337" y="815" type="line"/>
      <point x="506" y="718" type="line"/>
      <point x="525" y="742" type="line"/>
    </contour>
  </outline>
</glyph>
<glyph name="ccircumflex" format="1">
  <advance width="486"/>
  <unicode hex="0109"/>
  <outline>
    <contour>
      <point x="275" y="442" type="curve" smooth="yes"/>
      <point x="303" y="442"/>
      <point x="337" y="435"/>
      <point x="371" y="417" type="curve"/>
      <point x="325" y="454" type="line"/>
      <point x="350" y="366" type="line" smooth="yes"/>
      <point x="357" y="341"/>
      <point x="370" y="321"/>
      <point x="403" y="321" type="curve" smooth="yes"/>
      <point x="428" y="321"/>
      <point x="443" y="333"/>
      <point x="448" y="358" type="curve"/>
      <point x="435" y="432"/>
      <point x="361" y="487"/>
      <point x="272" y="487" type="curve" smooth="yes"/>
      <point x="153" y="487"/>
      <point x="43" y="393"/>
      <point x="43" y="236" type="curve" smooth="yes"/>
      <point x="43" y="83"/>
      <point x="129" y="-13"/>
      <point x="266" y="-13" type="curve" smooth="yes"/>
      <point x="360" y="-13"/>
      <point x="424" y="33"/>
      <point x="451" y="116" type="curve"/>
      <point x="427" y="128" type="line"/>
      <point x="396" y="78"/>
      <point x="345" y="50"/>
      <point x="287" y="50" type="curve" smooth="yes"/>
      <point x="193" y="50"/>
      <point x="126" y="119"/>
      <point x="126" y="245" type="curve" smooth="yes"/>
      <point x="126" y="373"/>
      <point x="188" y="442"/>
    </contour>
    <contour>
      <point x="389" y="546" type="line"/>
      <point x="412" y="567" type="line"/>
      <point x="280" y="743" type="line"/>
      <point x="248" y="743" type="line"/>
      <point x="116" y="567" type="line"/>
      <point x="139" y="546" type="line"/>
      <point x="306" y="699" type="line"/>
      <point x="222" y="699" type="line"/>
    </contour>
  </outline>
</glyph>
<glyph name="Cdotaccent" format="1">
  <advance width="632"/>
  <unicode hex="010A"/>
  <outline>
    <contour>
      <point x="390" y="35" type="curve" smooth="yes"/>
      <point x="251" y="35"/>
      <point x="153" y="140"/>
      <point x="153" y="335" type="curve" smooth="yes"/>
      <point x="153" y="530"/>
      <point x="262" y="635"/>
      <point x="397" y="635" type="curve" smooth="yes"/>
      <point x="445" y="635"/>
      <point x="501" y="618"/>
      <point x="558" y="565" type="curve"/>
      <point x="558" y="626" type="line"/>
      <point x="496" y="640" type="line"/>
      <point x="521" y="492" type="line"/>
      <point x="582" y="492" type="line"/>
      <point x="578" y="637" type="line"/>
      <point x="510" y="676"/>
      <point x="439" y="685"/>
      <point x="385" y="685" type="curve" smooth="yes"/>
      <point x="190" y="685"/>
      <point x="48" y="535"/>
      <point x="48" y="335" type="curve" smooth="yes"/>
      <point x="48" y="131"/>
      <point x="184" y="-15"/>
      <point x="386" y="-15" type="curve" smooth="yes"/>
      <point x="456" y="-15"/>
      <point x="525" y="-1"/>
      <point x="588" y="33" type="curve"/>
      <point x="592" y="178" type="line"/>
      <point x="531" y="178" type="line"/>
      <point x="506" y="30" type="line"/>
      <point x="568" y="44" type="line"/>
      <point x="568" y="99" type="line"/>
      <point x="511" y="52"/>
      <point x="447" y="35"/>
    </contour>
    <contour>
      <point x="371" y="738" type="curve" smooth="yes"/>
      <point x="408" y="738"/>
      <point x="437" y="764"/>
      <point x="437" y="801" type="curve" smooth="yes"/>
      <point x="437" y="838"/>
      <point x="408" y="864"/>
      <point x="371" y="864" type="curve" smooth="yes"/>
      <point x="334" y="864"/>
      <point x="305" y="838"/>
      <point x="305" y="801" type="curve" smooth="yes"/>
      <point x="305" y="764"/>
      <point x="334" y="738"/>
    </contour>
  </outline>
</glyph>
<glyph name="dcaron" format="1">
  <advance width="600"/>
  <unicode hex="010F"/>
  <outline>
    <contour>
      <point x="131" y="235" type="curve" smooth="yes"/>
      <point x="131" y="372"/>
      <point x="196" y="432"/>
      <point x="271" y="432" type="curve" smooth="yes"/>
      <point x="309" y="432"/>
      <point x="349" y="416"/>
      <point x="407" y="360" type="curve"/>
      <point x="417" y="386" type="line"/>
      <point x="365" y="464"/>
      <point x="316" y="487"/>
      <point x="259" y="487" type="curve" smooth="yes"/>
      <point x="136" y="487"/>
      <point x="46" y="385"/>
      <point x="46" y="233" type="curve" smooth="yes"/>
      <point x="46" y="88"/>
      <point x="128" y="-13"/>
      <point x="250" y="-13" type="curve" smooth="yes"/>
      <point x="328" y="-13"/>
      <point x="375" y="28"/>
      <point x="413" y="96" type="curve"/>
      <point x="404" y="123" type="line"/>
      <point x="358" y="64"/>
      <point x="323" y="42"/>
      <point x="272" y="42" type="curve" smooth="yes"/>
      <point x="191" y="42"/>
      <point x="131" y="102"/>
    </contour>
    <contour>
      <point x="550" y="0" type="line"/>
      <point x="550" y="35" type="line"/>
      <point x="467" y="48" type="line"/>
      <point x="467" y="590" type="line"/>
      <point x="471" y="732" type="line"/>
      <point x="457" y="740" type="line"/>
      <point x="304" y="695" type="line"/>
      <point x="304" y="660" type="line"/>
      <point x="390" y="650" type="line"/>
      <point x="390" y="398" type="line"/>
      <point x="387" y="385" type="line"/>
      <point x="387" y="92" type="line"/>
      <point x="397" y="-10" type="line"/>
    </contour>
    <contour>
      <point x="606" y="750" type="curve" smooth="yes"/>
      <point x="591" y="750"/>
      <point x="576" y="746"/>
      <point x="560" y="738" type="curve"/>
      <point x="557" y="528" type="line"/>
      <point x="588" y="528" type="line"/>
      <point x="607" y="582" type="line" smooth="yes"/>
      <point x="623" y="629"/>
      <point x="641" y="685"/>
      <point x="641" y="714" type="curve" smooth="yes"/>
      <point x="641" y="736"/>
      <point x="631" y="750"/>
    </contour>
  </outline>
</glyph>
<glyph name="Ebreve" format="1">
  <advance width="604"/>
  <unicode hex="0114"/>
  <outline>
    <contour>
      <point x="175" y="615" type="line"/>
      <point x="185" y="615" type="line"/>
      <point x="185" y="670" type="line"/>
      <point x="45" y="670" type="line"/>
      <point x="45" y="630" type="line"/>
    </contour>
    <contour>
      <point x="175" y="55" type="line"/>
      <point x="45" y="40" type="line"/>
      <point x="45" y="0" type="line"/>
      <point x="185" y="0" type="line"/>
      <point x="185" y="55" type="line"/>
    </contour>
    <contour>
      <point x="140" y="310" type="line" smooth="yes"/>
      <point x="140" y="205"/>
      <point x="140" y="101"/>
      <point x="137" y="0" type="curve"/>
      <point x="233" y="0" type="line"/>
      <point x="230" y="103"/>
      <point x="230" y="207"/>
      <point x="230" y="322" type="curve" smooth="yes"/>
      <point x="230" y="360" type="line" smooth="yes"/>
      <point x="230" y="465"/>
      <point x="230" y="569"/>
      <point x="233" y="670" type="curve"/>
      <point x="137" y="670" type="line"/>
      <point x="140" y="567"/>
      <point x="140" y="463"/>
      <point x="140" y="360" type="curve" smooth="yes"/>
    </contour>
    <contour>
      <point x="379" y="335" type="line"/>
      <point x="394" y="224" type="line"/>
      <point x="439" y="224" type="line"/>
      <point x="439" y="461" type="line"/>
      <point x="394" y="461" type="line"/>
      <point x="379" y="355" type="line"/>
    </contour>
    <contour>
      <point x="411" y="365" type="line"/>
      <point x="185" y="365" type="line"/>
      <point x="185" y="319" type="line"/>
      <point x="411" y="319" type="line"/>
    </contour>
    <contour>
      <point x="493" y="492" type="line"/>
      <point x="549" y="492" type="line"/>
      <point x="542" y="670" type="line"/>
      <point x="185" y="670" type="line"/>
      <point x="185" y="620" type="line"/>
      <point x="471" y="620" type="line"/>
    </contour>
    <contour>
      <point x="513" y="178" type="line"/>
      <point x="491" y="50" type="line"/>
      <point x="185" y="50" type="line"/>
      <point x="185" y="0" type="line"/>
      <point x="562" y="0" type="line"/>
      <point x="569" y="178" type="line"/>
    </contour>
    <contour>
      <point x="180" y="859" type="line"/>
      <point x="189" y="800"/>
      <point x="234" y="732"/>
      <point x="323" y="732" type="curve" smooth="yes"/>
      <point x="412" y="732"/>
      <point x="457" y="800"/>
      <point x="466" y="859" type="curve"/>
      <point x="436" y="870" type="line"/>
      <point x="419" y="825"/>
      <point x="383" y="792"/>
      <point x="323" y="792" type="curve" smooth="yes"/>
      <point x="264" y="792"/>
      <point x="225" y="825"/>
      <point x="210" y="870" type="curve"/>
    </contour>
  </outline>
</glyph>
<glyph name="Eogonek" format="1">
  <advance width="604"/>
  <unicode hex="0118"/>
  <outline>
    <contour>
      <point x="175" y="615" type="line"/>
      <point x="185" y="615" type="line"/>
      <point x="185" y="670" type="line"/>
      <point x="45" y="670" type="line"/>
      <point x="45" y="630" type="line"/>
    </contour>
    <contour>
      <point x="175" y="55" type="line"/>
      <point x="45" y="40" type="line"/>
      <point x="45" y="0" type="line"/>
      <point x="185" y="0" type="line"/>
      <point x="185" y="55" type="line"/>
    </contour>
    <contour>
      <point x="140" y="310" type="line" smooth="yes"/>
      <point x="140" y="205"/>
      <point x="140" y="101"/>
      <point x="137" y="0" type="curve"/>
      <point x="233" y="0" type="line"/>
      <point x="230" y="103"/>
      <point x="230" y="207"/>
      <point x="230" y="322" type="curve" smooth="yes"/>
      <point x="230" y="360" type="line" smooth="yes"/>
      <point x="230" y="465"/>
      <point x="230" y="569"/>
      <point x="233" y="670" type="curve"/>
      <point x="137" y="670" type="line"/>
      <point x="140" y="567"/>
      <point x="140" y="463"/>
      <point x="140" y="360" type="curve" smooth="yes"/>
    </contour>
    <contour>
      <point x="379" y="335" type="line"/>
      <point x="394" y="224" type="line"/>
      <point x="439" y="224" type="line"/>
      <point x="439" y="461" type="line"/>
      <point x="394" y="461" type="line"/>
      <point x="379" y="355" type="line"/>
    </contour>
    <contour>
      <point x="411" y="365" type="line"/>
      <point x="185" y="365" type="line"/>
      <point x="185" y="319" type="line"/>
      <point x="411" y="319" type="line"/>
    </contour>
    <contour>
      <point x="493" y="492" type="line"/>
      <point x="549" y="492" type="line"/>
      <point x="542" y="670" type="line"/>
      <point x="185" y="670" type="line"/>
      <point x="185" y="620" type="line"/>
      <point x="471" y="620" type="line"/>
    </contour>
    <contour>
      <point x="513" y="178" type="line"/>
      <point x="491" y="50" type="line"/>
      <point x="185" y="50" type="line"/>
      <point x="185" y="0" type="line"/>
      <point x="562" y="0" type="line"/>
      <point x="569" y="178" type="line"/>
    </contour>
    <contour>
      <point x="375" y="-132" type="curve" smooth="yes"/>
      <point x="375" y="-187"/>
      <point x="414" y="-220"/>
      <point x="468" y="-220" type="curve" smooth="yes"/>
      <point x="503" y="-220"/>
      <point x="546" y="-207"/>
      <point x="569" y="-174" type="curve"/>
      <point x="556" y="-150" type="line"/>
      <point x="536" y="-162"/>
      <point x="516" y="-165"/>
      <point x="503" y="-165" type="curve" smooth="yes"/>
      <point x="465" y="-165"/>
      <point x="436" y="-140"/>
      <point x="436" y="-97" type="curve" smooth="yes"/>
      <point x="436" y="-57"/>
      <point x="461" y="-14"/>
      <point x="503" y="13" type="curve"/>
      <point x="475" y="13" type="line"/>
      <point x="422" y="-14"/>
      <point x="375" y="-71"/>
    </contour>
    <contour>
      <point x="327" y="691" type="move" name="aboveUC"/>
    </contour>
  </outline>
</glyph>
<glyph name="Gbreve" format="1">
  <advance width="682"/>
  <unicode hex="011E"/>
  <outline>
    <contour>
      <point x="537" y="268" type="line"/>
      <point x="557" y="268" type="line"/>
      <point x="667" y="278" type="line"/>
      <point x="667" y="318" type="line"/>
      <point x="407" y="318" type="line"/>
      <point x="407" y="278" type="line"/>
    </contour>
    <contour>
      <point x="604" y="88" type="line" smooth="yes"/>
      <point x="604" y="166"/>
      <point x="605" y="243"/>
      <point x="607" y="318" type="curve"/>
      <point x="511" y="318" type="line"/>
      <point x="513" y="242"/>
      <point x="514" y="164"/>
      <point x="514" y="88" type="curve" smooth="yes"/>
      <point x="514" y="30" type="line"/>
      <point x="559" y="77" type="line"/>
      <point x="502" y="49"/>
      <point x="460" y="36"/>
      <point x="403" y="36" type="curve" smooth="yes"/>
      <point x="247" y="36"/>
      <point x="153" y="145"/>
      <point x="153" y="335" type="curve" smooth="yes"/>
      <point x="153" y="526"/>
      <point x="256" y="635"/>
      <point x="396" y="635" type="curve" smooth="yes"/>
      <point x="460" y="635"/>
      <point x="515" y="613"/>
      <point x="569" y="563" type="curve"/>
      <point x="569" y="620" type="line"/>
      <point x="507" y="640" type="line"/>
      <point x="532" y="492" type="line"/>
      <point x="593" y="492" type="line"/>
      <point x="589" y="637" type="line"/>
      <point x="533" y="670"/>
      <point x="471" y="685"/>
      <point x="388" y="685" type="curve" smooth="yes"/>
      <point x="185" y="685"/>
      <point x="48" y="536"/>
      <point x="48" y="335" type="curve" smooth="yes"/>
      <point x="48" y="134"/>
      <point x="184" y="-15"/>
      <point x="384" y="-15" type="curve" smooth="yes"/>
      <point x="467" y="-15"/>
      <point x="535" y="8"/>
      <point x="604" y="44" type="curve"/>
    </contour>
    <contour>
      <point x="239" y="859" type="line"/>
      <point x="248" y="800"/>
      <point x="293" y="732"/>
      <point x="382" y="732" type="curve" smooth="yes"/>
      <point x="471" y="732"/>
      <point x="516" y="800"/>
      <point x="525" y="859" type="curve"/>
      <point x="495" y="870" type="line"/>
      <point x="478" y="825"/>
      <point x="442" y="792"/>
      <point x="382" y="792" type="curve" smooth="yes"/>
      <point x="323" y="792"/>
      <point x="284" y="825"/>
      <point x="269" y="870" type="curve"/>
    </contour>
  </outline>
</glyph>
<glyph name="Gdotaccent" format="1">
  <advance width="682"/>
  <unicode hex="0120"/>
  <outline>
    <contour>
      <point x="537" y="268" type="line"/>
      <point x="557" y="268" type="line"/>
      <point x="667" y="278" type="line"/>
      <point x="667" y="318" type="line"/>
      <point x="407" y="318" type="line"/>
      <point x="407" y="278" type="line"/>
    </contour>
    <contour>
      <point x="604" y="88" type="line" smooth="yes"/>
      <point x="604" y="166"/>
      <point x="605" y="243"/>
      <point x="607" y="318" type="curve"/>
      <point x="511" y="318" type="line"/>
      <point x="513" y="242"/>
      <point x="514" y="164"/>
      <point x="514" y="88" type="curve" smooth="yes"/>
      <point x="514" y="30" type="line"/>
      <point x="559" y="77" type="line"/>
      <point x="502" y="49"/>
      <point x="460" y="36"/>
      <point x="403" y="36" type="curve" smooth="yes"/>
      <point x="247" y="36"/>
      <point x="153" y="145"/>
      <point x="153" y="335" type="curve" smooth="yes"/>
      <point x="153" y="526"/>
      <point x="256" y="635"/>
      <point x="396" y="635" type="curve" smooth="yes"/>
      <point x="460" y="635"/>
      <point x="515" y="613"/>
      <point x="569" y="563" type="curve"/>
      <point x="569" y="620" type="line"/>
      <point x="507" y="640" type="line"/>
      <point x="532" y="492" type="line"/>
      <point x="593" y="492" type="line"/>
      <point x="589" y="637" type="line"/>
      <point x="533" y="670"/>
      <point x="471" y="685"/>
      <point x="388" y="685" type="curve" smooth="yes"/>
      <point x="185" y="685"/>
      <point x="48" y="536"/>
      <point x="48" y="335" type="curve" smooth="yes"/>
      <point x="48" y="134"/>
      <point x="184" y="-15"/>
      <point x="384" y="-15" type="curve" smooth="yes"/>
      <point x="467" y="-15"/>
      <point x="535" y="8"/>
      <point x="604" y="44" type="curve"/>
    </contour>
    <contour>
      <point x="388" y="738" type="curve" smooth="yes"/>
      <point x="425" y="738"/>
      <point x="454" y="764"/>
      <point x="454" y="801" type="curve" smooth="yes"/>
      <point x="454" y="838"/>
      <point x="425" y="864"/>
      <point x="388" y="864" type="curve" smooth="yes"/>
      <point x="351" y="864"/>
      <point x="322" y="838"/>
      <point x="322" y="801" type="curve" smooth="yes"/>
      <point x="322" y="764"/>
      <point x="351" y="738"/>
    </contour>
  </outline>
</glyph>
<glyph name="Gcommaaccent" format="1">
  <advance width="682"/>
  <unicode hex="0122"/>
  <outline>
    <contour>
      <point x="537" y="268" type="line"/>
      <point x="557" y="268" type="line"/>
      <point x="667" y="278" type="line"/>
      <point x="667" y="318" type="line"/>
      <point x="407" y="318" type="line"/>
      <point x="407" y="278" type="line"/>
    </contour>
    <contour>
      <point x="604" y="88" type="line" smooth="yes"/>
      <point x="604" y="166"/>
      <point x="605" y="243"/>
      <point x="607" y="318" type="curve"/>
      <point x="511" y="318" type="line"/>
      <point x="513" y="242"/>
      <point x="514" y="164"/>
      <point x="514" y="88" type="curve" smooth="yes"/>
      <point x="514" y="30" type="line"/>
      <point x="559" y="77" type="line"/>
      <point x="502" y="49"/>
      <point x="460" y="36"/>
      <point x="403" y="36" type="curve" smooth="yes"/>
      <point x="247" y="36"/>
      <point x="153" y="145"/>
      <point x="153" y="335" type="curve" smooth="yes"/>
      <point x="153" y="526"/>
      <point x="256" y="635"/>
      <point x="396" y="635" type="curve" smooth="yes"/>
      <point x="460" y="635"/>
      <point x="515" y="613"/>
      <point x="569" y="563" type="curve"/>
      <point x="569" y="620" type="line"/>
      <point x="507" y="640" type="line"/>
      <point x="532" y="492" type="line"/>
      <point x="593" y="492" type="line"/>
      <point x="589" y="637" type="line"/>
      <point x="533" y="670"/>
      <point x="471" y="685"/>
      <point x="388" y="685" type="curve" smooth="yes"/>
      <point x="185" y="685"/>
      <point x="48" y="536"/>
      <point x="48" y="335" type="curve" smooth="yes"/>
      <point x="48" y="134"/>
      <point x="184" y="-15"/>
      <point x="384" y="-15" type="curve" smooth="yes"/>
      <point x="467" y="-15"/>
      <point x="535" y="8"/>
      <point x="604" y="44" type="curve"/>
    </contour>
    <contour>
      <point x="447" y="-117" type="curve" smooth="yes"/>
      <point x="447" y="-104"/>
      <point x="445" y="-92"/>
      <point x="438" y="-71" type="curve"/>
      <point x="424" y="-58"/>
      <point x="409" y="-52"/>
      <point x="393" y="-52" type="curve" smooth="yes"/>
      <point x="366" y="-52"/>
      <point x="343" y="-72"/>
      <point x="343" y="-100" type="curve" smooth="yes"/>
      <point x="343" y="-133"/>
      <point x="375" y="-163"/>
      <point x="412" y="-172" type="curve"/>
      <point x="408" y="-132" type="line"/>
      <point x="384" y="-181"/>
      <point x="353" y="-203"/>
      <point x="304" y="-222" type="curve"/>
      <point x="314" y="-250" type="line"/>
      <point x="384" y="-227"/>
      <point x="447" y="-187"/>
    </contour>
  </outline>
</glyph>
<glyph name="Itilde" format="1">
  <advance width="370"/>
  <unicode hex="0128"/>
  <outline>
    <contour>
      <point x="175" y="55" type="line"/>
      <point x="45" y="40" type="line"/>
      <point x="45" y="0" type="line"/>
      <point x="325" y="0" type="line"/>
      <point x="325" y="40" type="line"/>
      <point x="195" y="55" type="line"/>
    </contour>
    <contour>
      <point x="175" y="615" type="line"/>
      <point x="195" y="615" type="line"/>
      <point x="325" y="630" type="line"/>
      <point x="325" y="670" type="line"/>
      <point x="45" y="670" type="line"/>
      <point x="45" y="630" type="line"/>
    </contour>
    <contour>
      <point x="140" y="310" type="line" smooth="yes"/>
      <point x="140" y="205"/>
      <point x="140" y="101"/>
      <point x="137" y="0" type="curve"/>
      <point x="233" y="0" type="line"/>
      <point x="230" y="103"/>
      <point x="230" y="207"/>
      <point x="230" y="310" type="curve" smooth="yes"/>
      <point x="230" y="360" type="line" smooth="yes"/>
      <point x="230" y="465"/>
      <point x="230" y="569"/>
      <point x="233" y="670" type="curve"/>
      <point x="137" y="670" type="line"/>
      <point x="140" y="567"/>
      <point x="140" y="463"/>
      <point x="140" y="360" type="curve" smooth="yes"/>
    </contour>
    <contour>
      <point x="5" y="735" type="curve"/>
      <point x="34" y="726" type="line"/>
      <point x="50" y="776"/>
      <point x="70" y="807"/>
      <point x="103" y="807" type="curve" smooth="yes"/>
      <point x="133" y="807"/>
      <point x="154" y="779"/>
      <point x="179" y="758" type="curve" smooth="yes"/>
      <point x="201" y="740"/>
      <point x="224" y="724"/>
      <point x="261" y="724" type="curve" smooth="yes"/>
      <point x="323" y="724"/>
      <point x="352" y="775"/>
      <point x="365" y="852" type="curve"/>
      <point x="336" y="861" type="line"/>
      <point x="320" y="811"/>
      <point x="301" y="780"/>
      <point x="267" y="780" type="curve" smooth="yes"/>
      <point x="237" y="780"/>
      <point x="216" y="808"/>
      <point x="191" y="829" type="curve" smooth="yes"/>
      <point x="168" y="847"/>
      <point x="146" y="863"/>
      <point x="109" y="863" type="curve" smooth="yes"/>
      <point x="48" y="863"/>
      <point x="17" y="812"/>
    </contour>
  </outline>
</glyph>
<glyph name="itilde" format="1">
  <advance width="297"/>
  <unicode hex="0129"/>
  <outline>
    <contour>
      <point x="110" y="0" type="curve"/>
      <point x="196" y="0" type="line"/>
      <point x="194" y="45"/>
      <point x="193" y="148"/>
      <point x="193" y="210" type="curve" smooth="yes"/>
      <point x="193" y="342" type="line"/>
      <point x="196" y="477" type="line"/>
      <point x="181" y="487" type="line"/>
      <point x="30" y="427" type="line"/>
      <point x="30" y="392" type="line"/>
      <point x="110" y="383" type="line"/>
      <point x="112" y="343"/>
      <point x="113" y="312"/>
      <point x="113" y="257" type="curve" smooth="yes"/>
      <point x="113" y="210" type="line" smooth="yes"/>
      <point x="113" y="148"/>
      <point x="112" y="45"/>
    </contour>
    <contour>
      <point x="35" y="0" type="line"/>
      <point x="265" y="0" type="line"/>
      <point x="265" y="35" type="line"/>
      <point x="165" y="55" type="line"/>
      <point x="145" y="55" type="line"/>
      <point x="35" y="35" type="line"/>
    </contour>
    <contour>
      <point x="-14" y="586" type="curve"/>
      <point x="12" y="577" type="line"/>
      <point x="26" y="627"/>
      <point x="44" y="658"/>
      <point x="74" y="658" type="curve" smooth="yes"/>
      <point x="101" y="658"/>
      <point x="120" y="630"/>
      <point x="143" y="609" type="curve" smooth="yes"/>
      <point x="162" y="591"/>
      <point x="183" y="575"/>
      <point x="216" y="575" type="curve" smooth="yes"/>
      <point x="272" y="575"/>
      <point x="298" y="626"/>
      <point x="310" y="703" type="curve"/>
      <point x="284" y="712" type="line"/>
      <point x="270" y="662"/>
      <point x="252" y="631"/>
      <point x="222" y="631" type="curve" smooth="yes"/>
      <point x="195" y="631"/>
      <point x="176" y="659"/>
      <point x="153" y="680" type="curve" smooth="yes"/>
      <point x="133" y="698"/>
      <point x="113" y="714"/>
      <point x="80" y="714" type="curve" smooth="yes"/>
      <point x="25" y="714"/>
      <point x="-3" y="663"/>
    </contour>
  </outline>
</glyph>
<glyph name="Iogonek" format="1">
  <advance width="370"/>
  <unicode hex="012E"/>
  <outline>
    <contour>
      <point x="175" y="55" type="line"/>
      <point x="45" y="40" type="line"/>
      <point x="45" y="0" type="line"/>
      <point x="325" y="0" type="line"/>
      <point x="325" y="40" type="line"/>
      <point x="195" y="55" type="line"/>
    </contour>
    <contour>
      <point x="175" y="615" type="line"/>
      <point x="195" y="615" type="line"/>
      <point x="325" y="630" type="line"/>
      <point x="325" y="670" type="line"/>
      <point x="45" y="670" type="line"/>
      <point x="45" y="630" type="line"/>
    </contour>
    <contour>
      <point x="140" y="310" type="line" smooth="yes"/>
      <point x="140" y="205"/>
      <point x="140" y="101"/>
      <point x="137" y="0" type="curve"/>
      <point x="233" y="0" type="line"/>
      <point x="230" y="103"/>
      <point x="230" y="207"/>
      <point x="230" y="310" type="curve" smooth="yes"/>
      <point x="230" y="360" type="line" smooth="yes"/>
      <point x="230" y="465"/>
      <point x="230" y="569"/>
      <point x="233" y="670" type="curve"/>
      <point x="137" y="670" type="line"/>
      <point x="140" y="567"/>
      <point x="140" y="463"/>
      <point x="140" y="360" type="curve" smooth="yes"/>
    </contour>
    <contour>
      <point x="109" y="-132" type="curve" smooth="yes"/>
      <point x="109" y="-187"/>
      <point x="148" y="-220"/>
      <point x="202" y="-220" type="curve" smooth="yes"/>
      <point x="237" y="-220"/>
      <point x="280" y="-207"/>
      <point x="303" y="-174" type="curve"/>
      <point x="290" y="-150" type="line"/>
      <point x="270" y="-162"/>
      <point x="250" y="-165"/>
      <point x="237" y="-165" type="curve" smooth="yes"/>
      <point x="199" y="-165"/>
      <point x="170" y="-140"/>
      <point x="170" y="-97" type="curve" smooth="yes"/>
      <point x="170" y="-57"/>
      <point x="195" y="-14"/>
      <point x="237" y="13" type="curve"/>
      <point x="209" y="13" type="line"/>
      <point x="156" y="-14"/>
      <point x="109" y="-71"/>
    </contour>
    <contour>
      <point x="185" y="691" type="move" name="aboveUC"/>
    </contour>
  </outline>
</glyph>
<glyph name="iogonek" format="1">
  <advance width="297"/>
  <unicode hex="012F"/>
  <outline>
    <contour>
      <point x="152" y="600" type="curve" smooth="yes"/>
      <point x="189" y="600"/>
      <point x="218" y="626"/>
      <point x="218" y="663" type="curve" smooth="yes"/>
      <point x="218" y="701"/>
      <point x="189" y="726"/>
      <point x="152" y="726" type="curve" smooth="yes"/>
      <point x="115" y="726"/>
      <point x="86" y="701"/>
      <point x="86" y="663" type="curve" smooth="yes"/>
      <point x="86" y="626"/>
      <point x="115" y="600"/>
    </contour>
    <contour>
      <point x="195" y="0" type="line"/>
      <point x="193" y="45"/>
      <point x="192" y="148"/>
      <point x="192" y="210" type="curve" smooth="yes"/>
      <point x="192" y="342" type="line"/>
      <point x="195" y="477" type="line"/>
      <point x="180" y="487" type="line"/>
      <point x="29" y="427" type="line"/>
      <point x="29" y="392" type="line"/>
      <point x="111" y="383" type="line"/>
      <point x="113" y="343"/>
      <point x="114" y="312"/>
      <point x="114" y="257" type="curve" smooth="yes"/>
      <point x="114" y="210" type="line" smooth="yes"/>
      <point x="114" y="148"/>
      <point x="113" y="45"/>
      <point x="111" y="0" type="curve"/>
    </contour>
    <contour>
      <point x="165" y="55" type="line"/>
      <point x="145" y="55" type="line"/>
      <point x="35" y="35" type="line"/>
      <point x="35" y="0" type="line"/>
      <point x="265" y="0" type="line"/>
      <point x="265" y="35" type="line"/>
    </contour>
    <contour>
      <point x="73" y="-132" type="curve" smooth="yes"/>
      <point x="73" y="-187"/>
      <point x="112" y="-220"/>
      <point x="166" y="-220" type="curve" smooth="yes"/>
      <point x="201" y="-220"/>
      <point x="244" y="-207"/>
      <point x="267" y="-174" type="curve"/>
      <point x="254" y="-150" type="line"/>
      <point x="234" y="-162"/>
      <point x="214" y="-165"/>
      <point x="201" y="-165" type="curve" smooth="yes"/>
      <point x="163" y="-165"/>
      <point x="134" y="-140"/>
      <point x="134" y="-97" type="curve" smooth="yes"/>
      <point x="134" y="-57"/>
      <point x="159" y="-14"/>
      <point x="201" y="13" type="curve"/>
      <point x="173" y="13" type="line"/>
      <point x="120" y="-14"/>
      <point x="73" y="-71"/>
    </contour>
  </outline>
</glyph>
<glyph name="IJ" format="1">
  <advance width="743"/>
  <unicode hex="0132"/>
  <outline>
    <contour>
      <point x="175" y="55" type="line"/>
      <point x="45" y="40" type="line"/>
      <point x="45" y="0" type="line"/>
      <point x="325" y="0" type="line"/>
      <point x="325" y="40" type="line"/>
      <point x="195" y="55" type="line"/>
    </contour>
    <contour>
      <point x="175" y="615" type="line"/>
      <point x="195" y="615" type="line"/>
      <point x="325" y="630" type="line"/>
      <point x="325" y="670" type="line"/>
      <point x="45" y="670" type="line"/>
      <point x="45" y="630" type="line"/>
    </contour>
    <contour>
      <point x="140" y="310" type="line" smooth="yes"/>
      <point x="140" y="205"/>
      <point x="140" y="101"/>
      <point x="137" y="0" type="curve"/>
      <point x="233" y="0" type="line"/>
      <point x="230" y="103"/>
      <point x="230" y="207"/>
      <point x="230" y="310" type="curve" smooth="yes"/>
      <point x="230" y="360" type="line" smooth="yes"/>
      <point x="230" y="465"/>
      <point x="230" y="569"/>
      <point x="233" y="670" type="curve"/>
      <point x="137" y="670" type="line"/>
      <point x="140" y="567"/>
      <point x="140" y="463"/>
      <point x="140" y="360" type="curve" smooth="yes"/>
    </contour>
    <contour>
      <point x="520" y="670" type="line"/>
      <point x="525" y="169"/>
      <point x="530" y="65"/>
      <point x="530" y="5" type="curve" smooth="yes"/>
      <point x="530" y="-58"/>
      <point x="517" y="-95"/>
      <point x="479" y="-124" type="curve"/>
      <point x="481" y="-132" type="line"/>
      <point x="489" y="-131" type="line"/>
      <point x="497" y="-120" type="line"/>
      <point x="464" y="-95" type="line" smooth="yes"/>
      <point x="436" y="-74"/>
      <point x="415" y="-66"/>
      <point x="390" y="-66" type="curve" smooth="yes"/>
      <point x="359" y="-66"/>
      <point x="336" y="-78"/>
      <point x="330" y="-114" type="curve"/>
      <point x="339" y="-152"/>
      <point x="378" y="-162"/>
      <point x="415" y="-162" type="curve" smooth="yes"/>
      <point x="498" y="-162"/>
      <point x="582" y="-113"/>
      <point x="601" y="-13" type="curve" smooth="yes"/>
      <point x="611" y="38"/>
      <point x="613" y="89"/>
      <point x="613" y="201" type="curve" smooth="yes"/>
      <point x="613" y="360" type="line" smooth="yes"/>
      <point x="613" y="465"/>
      <point x="613" y="569"/>
      <point x="616" y="670" type="curve"/>
    </contour>
    <contour>
      <point x="418" y="630" type="line"/>
      <point x="558" y="615" type="line"/>
      <point x="578" y="615" type="line"/>
      <point x="708" y="630" type="line"/>
      <point x="708" y="670" type="line"/>
      <point x="418" y="670" type="line"/>
    </contour>
  </outline>
</glyph>
<glyph name="ij" format="1">
  <advance width="572"/>
  <unicode hex="0133"/>
  <outline>
    <contour>
      <point x="152" y="600" type="curve" smooth="yes"/>
      <point x="189" y="600"/>
      <point x="218" y="626"/>
      <point x="218" y="663" type="curve" smooth="yes"/>
      <point x="218" y="701"/>
      <point x="189" y="726"/>
      <point x="152" y="726" type="curve" smooth="yes"/>
      <point x="115" y="726"/>
      <point x="86" y="701"/>
      <point x="86" y="663" type="curve" smooth="yes"/>
      <point x="86" y="626"/>
      <point x="115" y="600"/>
    </contour>
    <contour>
      <point x="195" y="0" type="line"/>
      <point x="193" y="45"/>
      <point x="192" y="148"/>
      <point x="192" y="210" type="curve" smooth="yes"/>
      <point x="192" y="342" type="line"/>
      <point x="195" y="477" type="line"/>
      <point x="180" y="487" type="line"/>
      <point x="29" y="427" type="line"/>
      <point x="29" y="392" type="line"/>
      <point x="111" y="383" type="line"/>
      <point x="113" y="343"/>
      <point x="114" y="312"/>
      <point x="114" y="257" type="curve" smooth="yes"/>
      <point x="114" y="210" type="line" smooth="yes"/>
      <point x="114" y="148"/>
      <point x="113" y="45"/>
      <point x="111" y="0" type="curve"/>
    </contour>
    <contour>
      <point x="165" y="55" type="line"/>
      <point x="145" y="55" type="line"/>
      <point x="35" y="35" type="line"/>
      <point x="35" y="0" type="line"/>
      <point x="265" y="0" type="line"/>
      <point x="265" y="35" type="line"/>
    </contour>
    <contour>
      <point x="449" y="600" type="curve" smooth="yes"/>
      <point x="486" y="600"/>
      <point x="515" y="626"/>
      <point x="515" y="663" type="curve" smooth="yes"/>
      <point x="515" y="701"/>
      <point x="486" y="726"/>
      <point x="449" y="726" type="curve" smooth="yes"/>
      <point x="412" y="726"/>
      <point x="383" y="701"/>
      <point x="383" y="663" type="curve" smooth="yes"/>
      <point x="383" y="626"/>
      <point x="412" y="600"/>
    </contour>
    <contour>
      <point x="410" y="103" type="line" smooth="yes"/>
      <point x="410" y="-51"/>
      <point x="404" y="-131"/>
      <point x="388" y="-173" type="curve" smooth="yes"/>
      <point x="373" y="-210"/>
      <point x="350" y="-216"/>
      <point x="322" y="-216" type="curve" smooth="yes"/>
      <point x="302" y="-216"/>
      <point x="274" y="-207"/>
      <point x="264" y="-193" type="curve"/>
      <point x="264" y="-232" type="line"/>
      <point x="393" y="-215" type="line"/>
      <point x="348" y="-183" type="line" smooth="yes"/>
      <point x="321" y="-164"/>
      <point x="300" y="-154"/>
      <point x="274" y="-154" type="curve" smooth="yes"/>
      <point x="245" y="-154"/>
      <point x="225" y="-167"/>
      <point x="216" y="-193" type="curve"/>
      <point x="216" y="-219"/>
      <point x="243" y="-250"/>
      <point x="303" y="-250" type="curve" smooth="yes"/>
      <point x="362" y="-250"/>
      <point x="396" y="-228"/>
      <point x="427" y="-194" type="curve" smooth="yes"/>
      <point x="480" y="-137"/>
      <point x="486" y="-63"/>
      <point x="486" y="103" type="curve" smooth="yes"/>
      <point x="486" y="342" type="line"/>
      <point x="489" y="477" type="line"/>
      <point x="474" y="487" type="line"/>
      <point x="327" y="427" type="line"/>
      <point x="327" y="392" type="line"/>
      <point x="407" y="383" type="line"/>
      <point x="409" y="343"/>
      <point x="410" y="312"/>
      <point x="410" y="257" type="curve" smooth="yes"/>
    </contour>
  </outline>
</glyph>
<glyph name="Jcircumflex" format="1">
  <advance width="373"/>
  <unicode hex="0134"/>
  <outline>
    <contour>
      <point x="150" y="670" type="line"/>
      <point x="155" y="169"/>
      <point x="160" y="65"/>
      <point x="160" y="5" type="curve" smooth="yes"/>
      <point x="160" y="-58"/>
      <point x="147" y="-95"/>
      <point x="109" y="-124" type="curve"/>
      <point x="111" y="-132" type="line"/>
      <point x="119" y="-131" type="line"/>
      <point x="127" y="-120" type="line"/>
      <point x="94" y="-95" type="line" smooth="yes"/>
      <point x="66" y="-74"/>
      <point x="45" y="-66"/>
      <point x="20" y="-66" type="curve" smooth="yes"/>
      <point x="-11" y="-66"/>
      <point x="-34" y="-78"/>
      <point x="-40" y="-114" type="curve"/>
      <point x="-31" y="-152"/>
      <point x="8" y="-162"/>
      <point x="45" y="-162" type="curve" smooth="yes"/>
      <point x="128" y="-162"/>
      <point x="212" y="-113"/>
      <point x="231" y="-13" type="curve" smooth="yes"/>
      <point x="241" y="38"/>
      <point x="243" y="89"/>
      <point x="243" y="201" type="curve" smooth="yes"/>
      <point x="243" y="360" type="line" smooth="yes"/>
      <point x="243" y="465"/>
      <point x="243" y="569"/>
      <point x="246" y="670" type="curve"/>
    </contour>
    <contour>
      <point x="48" y="630" type="line"/>
      <point x="188" y="615" type="line"/>
      <point x="208" y="615" type="line"/>
      <point x="338" y="630" type="line"/>
      <point x="338" y="670" type="line"/>
      <point x="48" y="670" type="line"/>
    </contour>
    <contour>
      <point x="215" y="855" type="line"/>
      <point x="183" y="855" type="line"/>
      <point x="53" y="742" type="line"/>
      <point x="72" y="718" type="line"/>
      <point x="241" y="815" type="line"/>
      <point x="157" y="815" type="line"/>
      <point x="326" y="718" type="line"/>
      <point x="345" y="742" type="line"/>
    </contour>
  </outline>
</glyph>
<glyph name="jcircumflex" format="1">
  <advance width="275"/>
  <unicode hex="0135"/>
  <outline>
    <contour>
      <point x="113" y="77" type="line" smooth="yes"/>
      <point x="113" y="-102"/>
      <point x="111" y="-121"/>
      <point x="80" y="-179" type="curve" smooth="yes"/>
      <point x="73" y="-192"/>
      <point x="52" y="-216"/>
      <point x="29" y="-216" type="curve" smooth="yes"/>
      <point x="-3" y="-216"/>
      <point x="-23" y="-207"/>
      <point x="-33" y="-193" type="curve"/>
      <point x="-33" y="-232" type="line"/>
      <point x="96" y="-215" type="line"/>
      <point x="51" y="-183" type="line" smooth="yes"/>
      <point x="24" y="-164"/>
      <point x="3" y="-154"/>
      <point x="-23" y="-154" type="curve" smooth="yes"/>
      <point x="-52" y="-154"/>
      <point x="-72" y="-167"/>
      <point x="-81" y="-193" type="curve"/>
      <point x="-81" y="-219"/>
      <point x="-54" y="-250"/>
      <point x="16" y="-250" type="curve" smooth="yes"/>
      <point x="65" y="-250"/>
      <point x="99" y="-234"/>
      <point x="130" y="-200" type="curve" smooth="yes"/>
      <point x="183" y="-143"/>
      <point x="190" y="-73"/>
      <point x="190" y="93" type="curve" smooth="yes"/>
      <point x="190" y="342" type="line"/>
      <point x="193" y="477" type="line"/>
      <point x="178" y="487" type="line"/>
      <point x="30" y="427" type="line"/>
      <point x="30" y="392" type="line"/>
      <point x="110" y="383" type="line"/>
      <point x="112" y="343"/>
      <point x="113" y="312"/>
      <point x="113" y="257" type="curve" smooth="yes"/>
    </contour>
    <contour>
      <point x="263" y="546" type="line"/>
      <point x="286" y="567" type="line"/>
      <point x="154" y="743" type="line"/>
      <point x="122" y="743" type="line"/>
      <point x="-10" y="567" type="line"/>
      <point x="13" y="546" type="line"/>
      <point x="180" y="699" type="line"/>
      <point x="96" y="699" type="line"/>
    </contour>
  </outline>
</glyph>
<glyph name="Kcommaaccent" format="1">
  <advance width="665"/>
  <unicode hex="0136"/>
  <outline>
    <contour>
      <point x="140" y="310" type="line" smooth="yes"/>
      <point x="140" y="205"/>
      <point x="140" y="101"/>
      <point x="137" y="0" type="curve"/>
      <point x="230" y="0" type="line"/>
      <point x="227" y="103"/>
      <point x="227" y="207"/>
      <point x="227" y="284" type="curve" smooth="yes"/>
      <point x="227" y="360" type="line" smooth="yes"/>
      <point x="227" y="465"/>
      <point x="227" y="569"/>
      <point x="230" y="670" type="curve"/>
      <point x="137" y="670" type="line"/>
      <point x="140" y="567"/>
      <point x="140" y="463"/>
      <point x="140" y="360" type="curve" smooth="yes"/>
    </contour>
    <contour>
      <point x="175" y="55" type="line"/>
      <point x="45" y="40" type="line"/>
      <point x="45" y="0" type="line"/>
      <point x="325" y="0" type="line"/>
      <point x="325" y="40" type="line"/>
      <point x="195" y="55" type="line"/>
    </contour>
    <contour>
      <point x="175" y="615" type="line"/>
      <point x="195" y="615" type="line"/>
      <point x="325" y="630" type="line"/>
      <point x="325" y="670" type="line"/>
      <point x="45" y="670" type="line"/>
      <point x="45" y="630" type="line"/>
    </contour>
    <contour>
      <point x="516" y="610" type="line"/>
      <point x="536" y="615" type="line"/>
      <point x="646" y="630" type="line"/>
      <point x="646" y="670" type="line"/>
      <point x="416" y="670" type="line"/>
      <point x="416" y="630" type="line"/>
    </contour>
    <contour>
      <point x="316" y="373" type="line"/>
      <point x="516" y="0" type="line"/>
      <point x="610" y="0" type="line"/>
      <point x="368" y="435" type="line"/>
    </contour>
    <contour>
      <point x="183" y="177" type="line"/>
      <point x="593" y="670" type="line"/>
      <point x="533" y="670" type="line"/>
      <point x="183" y="242" type="line"/>
    </contour>
    <contour>
      <point x="405" y="0" type="line"/>
      <point x="660" y="0" type="line"/>
      <point x="660" y="40" type="line"/>
      <point x="540" y="55" type="line"/>
      <point x="525" y="55" type="line"/>
      <point x="405" y="40" type="line"/>
    </contour>
    <contour>
      <point x="413" y="-117" type="curve" smooth="yes"/>
      <point x="413" y="-104"/>
      <point x="411" y="-92"/>
      <point x="404" y="-71" type="curve"/>
      <point x="390" y="-58"/>
      <point x="375" y="-52"/>
      <point x="359" y="-52" type="curve" smooth="yes"/>
      <point x="332" y="-52"/>
      <point x="309" y="-72"/>
      <point x="309" y="-100" type="curve" smooth="yes"/>
      <point x="309" y="-133"/>
      <point x="341" y="-163"/>
      <point x="378" y="-172" type="curve"/>
      <point x="374" y="-132" type="line"/>
      <point x="350" y="-181"/>
      <point x="319" y="-203"/>
      <point x="270" y="-222" type="curve"/>
      <point x="280" y="-250" type="line"/>
      <point x="350" y="-227"/>
      <point x="413" y="-187"/>
    </contour>
  </outline>
</glyph>
<glyph name="kcommaaccent" format="1">
  <advance width="544"/>
  <unicode hex="0137"/>
  <outline>
    <contour>
      <point x="407" y="419" type="line"/>
      <point x="518" y="436" type="line"/>
      <point x="518" y="474" type="line"/>
      <point x="286" y="474" type="line"/>
      <point x="286" y="436" type="line"/>
      <point x="377" y="413" type="line"/>
    </contour>
    <contour>
      <point x="414" y="474" type="line"/>
      <point x="148" y="196" type="line"/>
      <point x="148" y="138" type="line"/>
      <point x="475" y="474" type="line"/>
    </contour>
    <contour>
      <point x="25" y="695" type="line"/>
      <point x="25" y="660" type="line"/>
      <point x="108" y="650" type="line"/>
      <point x="108" y="210" type="line" smooth="yes"/>
      <point x="108" y="140"/>
      <point x="107" y="70"/>
      <point x="105" y="0" type="curve"/>
      <point x="191" y="0" type="line"/>
      <point x="189" y="70"/>
      <point x="188" y="140"/>
      <point x="188" y="210" type="curve" smooth="yes"/>
      <point x="188" y="590" type="line"/>
      <point x="192" y="732" type="line"/>
      <point x="178" y="740" type="line"/>
    </contour>
    <contour>
      <point x="158" y="55" type="line"/>
      <point x="138" y="55" type="line"/>
      <point x="25" y="35" type="line"/>
      <point x="25" y="0" type="line"/>
      <point x="271" y="0" type="line"/>
      <point x="271" y="35" type="line"/>
    </contour>
    <contour>
      <point x="544" y="35" type="line"/>
      <point x="478" y="47" type="line"/>
      <point x="301" y="324" type="line"/>
      <point x="245" y="266" type="line"/>
      <point x="412" y="0" type="line"/>
      <point x="544" y="0" type="line"/>
    </contour>
    <contour>
      <point x="343" y="-117" type="curve" smooth="yes"/>
      <point x="343" y="-104"/>
      <point x="341" y="-92"/>
      <point x="334" y="-71" type="curve"/>
      <point x="320" y="-58"/>
      <point x="305" y="-52"/>
      <point x="289" y="-52" type="curve" smooth="yes"/>
      <point x="262" y="-52"/>
      <point x="239" y="-72"/>
      <point x="239" y="-100" type="curve" smooth="yes"/>
      <point x="239" y="-133"/>
      <point x="271" y="-163"/>
      <point x="308" y="-172" type="curve"/>
      <point x="304" y="-132" type="line"/>
      <point x="280" y="-181"/>
      <point x="249" y="-203"/>
      <point x="200" y="-222" type="curve"/>
      <point x="210" y="-250" type="line"/>
      <point x="280" y="-227"/>
      <point x="343" y="-187"/>
    </contour>
  </outline>
</glyph>
<glyph name="Lacute" format="1">
  <advance width="597"/>
  <unicode hex="0139"/>
  <outline>
    <contour>
      <point x="175" y="55" type="line"/>
      <point x="45" y="40" type="line"/>
      <point x="45" y="0" type="line"/>
      <point x="185" y="0" type="line"/>
      <point x="185" y="55" type="line"/>
    </contour>
    <contour>
      <point x="175" y="615" type="line"/>
      <point x="195" y="615" type="line"/>
      <point x="325" y="630" type="line"/>
      <point x="325" y="670" type="line"/>
      <point x="45" y="670" type="line"/>
      <point x="45" y="630" type="line"/>
    </contour>
    <contour>
      <point x="140" y="360" type="curve" smooth="yes"/>
      <point x="140" y="310" type="line" smooth="yes"/>
      <point x="140" y="207"/>
      <point x="140" y="103"/>
      <point x="137" y="0" type="curve"/>
      <point x="233" y="0" type="line"/>
      <point x="230" y="101"/>
      <point x="230" y="205"/>
      <point x="230" y="290" type="curve" smooth="yes"/>
      <point x="230" y="360" type="line" smooth="yes"/>
      <point x="230" y="463"/>
      <point x="230" y="567"/>
      <point x="233" y="670" type="curve"/>
      <point x="137" y="670" type="line"/>
      <point x="140" y="569"/>
      <point x="140" y="465"/>
    </contour>
    <contour>
      <point x="492" y="188" type="line"/>
      <point x="463" y="50" type="line"/>
      <point x="185" y="50" type="line"/>
      <point x="185" y="0" type="line"/>
      <point x="542" y="0" type="line"/>
      <point x="552" y="188" type="line"/>
    </contour>
    <contour>
      <point x="186" y="746" type="curve"/>
      <point x="204" y="722" type="line"/>
      <point x="245" y="743"/>
      <point x="287" y="766"/>
      <point x="328" y="789" type="curve" smooth="yes"/>
      <point x="365" y="810"/>
      <point x="378" y="826"/>
      <point x="378" y="844" type="curve" smooth="yes"/>
      <point x="378" y="864"/>
      <point x="361" y="877"/>
      <point x="341" y="877" type="curve" smooth="yes"/>
      <point x="324" y="877"/>
      <point x="307" y="867"/>
      <point x="279" y="839" type="curve" smooth="yes"/>
      <point x="248" y="809"/>
      <point x="217" y="778"/>
    </contour>
  </outline>
</glyph>
<glyph name="lacute" format="1">
  <advance width="296"/>
  <unicode hex="013A"/>
  <outline>
    <contour>
      <point x="158" y="55" type="line"/>
      <point x="138" y="55" type="line"/>
      <point x="25" y="35" type="line"/>
      <point x="25" y="0" type="line"/>
      <point x="271" y="0" type="line"/>
      <point x="271" y="35" type="line"/>
    </contour>
    <contour>
      <point x="25" y="695" type="line"/>
      <point x="25" y="660" type="line"/>
      <point x="108" y="650" type="line"/>
      <point x="108" y="210" type="line" smooth="yes"/>
      <point x="108" y="140"/>
      <point x="107" y="70"/>
      <point x="105" y="0" type="curve"/>
      <point x="191" y="0" type="line"/>
      <point x="189" y="70"/>
      <point x="188" y="140"/>
      <point x="188" y="210" type="curve" smooth="yes"/>
      <point x="188" y="590" type="line"/>
      <point x="192" y="732" type="line"/>
      <point x="178" y="740" type="line"/>
    </contour>
    <contour>
      <point x="92" y="787" type="curve"/>
      <point x="110" y="763" type="line"/>
      <point x="151" y="784"/>
      <point x="193" y="807"/>
      <point x="234" y="830" type="curve" smooth="yes"/>
      <point x="271" y="851"/>
      <point x="284" y="867"/>
      <point x="284" y="885" type="curve" smooth="yes"/>
      <point x="284" y="905"/>
      <point x="267" y="918"/>
      <point x="247" y="918" type="curve" smooth="yes"/>
      <point x="230" y="918"/>
      <point x="213" y="908"/>
      <point x="185" y="880" type="curve" smooth="yes"/>
      <point x="154" y="850"/>
      <point x="123" y="819"/>
    </contour>
  </outline>
</glyph>
<glyph name="Lcommaaccent" format="1">
  <advance width="597"/>
  <unicode hex="013B"/>
  <outline>
    <contour>
      <point x="175" y="55" type="line"/>
      <point x="45" y="40" type="line"/>
      <point x="45" y="0" type="line"/>
      <point x="185" y="0" type="line"/>
      <point x="185" y="55" type="line"/>
    </contour>
    <contour>
      <point x="175" y="615" type="line"/>
      <point x="195" y="615" type="line"/>
      <point x="325" y="630" type="line"/>
      <point x="325" y="670" type="line"/>
      <point x="45" y="670" type="line"/>
      <point x="45" y="630" type="line"/>
    </contour>
    <contour>
      <point x="140" y="360" type="curve" smooth="yes"/>
      <point x="140" y="310" type="line" smooth="yes"/>
      <point x="140" y="207"/>
      <point x="140" y="103"/>
      <point x="137" y="0" type="curve"/>
      <point x="233" y="0" type="line"/>
      <point x="230" y="101"/>
      <point x="230" y="205"/>
      <point x="230" y="290" type="curve" smooth="yes"/>
      <point x="230" y="360" type="line" smooth="yes"/>
      <point x="230" y="463"/>
      <point x="230" y="567"/>
      <point x="233" y="670" type="curve"/>
      <point x="137" y="670" type="line"/>
      <point x="140" y="569"/>
      <point x="140" y="465"/>
    </contour>
    <contour>
      <point x="492" y="188" type="line"/>
      <point x="463" y="50" type="line"/>
      <point x="185" y="50" type="line"/>
      <point x="185" y="0" type="line"/>
      <point x="542" y="0" type="line"/>
      <point x="552" y="188" type="line"/>
    </contour>
    <contour>
      <point x="364" y="-117" type="curve" smooth="yes"/>
      <point x="364" y="-104"/>
      <point x="362" y="-92"/>
      <point x="355" y="-71" type="curve"/>
      <point x="341" y="-58"/>
      <point x="326" y="-52"/>
      <point x="310" y="-52" type="curve" smooth="yes"/>
      <point x="283" y="-52"/>
      <point x="260" y="-72"/>
      <point x="260" y="-100" type="curve" smooth="yes"/>
      <point x="260" y="-133"/>
      <point x="292" y="-163"/>
      <point x="329" y="-172" type="curve"/>
      <point x="325" y="-132" type="line"/>
      <point x="301" y="-181"/>
      <point x="270" y="-203"/>
      <point x="221" y="-222" type="curve"/>
      <point x="231" y="-250" type="line"/>
      <point x="301" y="-227"/>
      <point x="364" y="-187"/>
    </contour>
  </outline>
</glyph>
<glyph name="lcommaaccent" format="1">
  <advance width="296"/>
  <unicode hex="013C"/>
  <outline>
    <contour>
      <point x="158" y="55" type="line"/>
      <point x="138" y="55" type="line"/>
      <point x="25" y="35" type="line"/>
      <point x="25" y="0" type="line"/>
      <point x="271" y="0" type="line"/>
      <point x="271" y="35" type="line"/>
    </contour>
    <contour>
      <point x="25" y="695" type="line"/>
      <point x="25" y="660" type="line"/>
      <point x="108" y="650" type="line"/>
      <point x="108" y="210" type="line" smooth="yes"/>
      <point x="108" y="140"/>
      <point x="107" y="70"/>
      <point x="105" y="0" type="curve"/>
      <point x="191" y="0" type="line"/>
      <point x="189" y="70"/>
      <point x="188" y="140"/>
      <point x="188" y="210" type="curve" smooth="yes"/>
      <point x="188" y="590" type="line"/>
      <point x="192" y="732" type="line"/>
      <point x="178" y="740" type="line"/>
    </contour>
    <contour>
      <point x="201" y="-117" type="curve" smooth="yes"/>
      <point x="201" y="-104"/>
      <point x="199" y="-92"/>
      <point x="192" y="-71" type="curve"/>
      <point x="178" y="-58"/>
      <point x="163" y="-52"/>
      <point x="147" y="-52" type="curve" smooth="yes"/>
      <point x="120" y="-52"/>
      <point x="97" y="-72"/>
      <point x="97" y="-100" type="curve" smooth="yes"/>
      <point x="97" y="-133"/>
      <point x="129" y="-163"/>
      <point x="166" y="-172" type="curve"/>
      <point x="162" y="-132" type="line"/>
      <point x="138" y="-181"/>
      <point x="107" y="-203"/>
      <point x="58" y="-222" type="curve"/>
      <point x="68" y="-250" type="line"/>
      <point x="138" y="-227"/>
      <point x="201" y="-187"/>
    </contour>
  </outline>
</glyph>
<glyph name="Lcaron" format="1">
  <advance width="597"/>
  <unicode hex="013D"/>
  <outline>
    <contour>
      <point x="175" y="55" type="line"/>
      <point x="45" y="40" type="line"/>
      <point x="45" y="0" type="line"/>
      <point x="185" y="0" type="line"/>
      <point x="185" y="55" type="line"/>
    </contour>
    <contour>
      <point x="175" y="615" type="line"/>
      <point x="195" y="615" type="line"/>
      <point x="325" y="630" type="line"/>
      <point x="325" y="670" type="line"/>
      <point x="45" y="670" type="line"/>
      <point x="45" y="630" type="line"/>
    </contour>
    <contour>
      <point x="140" y="360" type="curve" smooth="yes"/>
      <point x="140" y="310" type="line" smooth="yes"/>
      <point x="140" y="207"/>
      <point x="140" y="103"/>
      <point x="137" y="0" type="curve"/>
      <point x="233" y="0" type="line"/>
      <point x="230" y="101"/>
      <point x="230" y="205"/>
      <point x="230" y="290" type="curve" smooth="yes"/>
      <point x="230" y="360" type="line" smooth="yes"/>
      <point x="230" y="463"/>
      <point x="230" y="567"/>
      <point x="233" y="670" type="curve"/>
      <point x="137" y="670" type="line"/>
      <point x="140" y="569"/>
      <point x="140" y="465"/>
    </contour>
    <contour>
      <point x="492" y="188" type="line"/>
      <point x="463" y="50" type="line"/>
      <point x="185" y="50" type="line"/>
      <point x="185" y="0" type="line"/>
      <point x="542" y="0" type="line"/>
      <point x="552" y="188" type="line"/>
    </contour>
    <contour>
      <point x="478" y="740" type="curve" smooth="yes"/>
      <point x="463" y="740"/>
      <point x="448" y="736"/>
      <point x="432" y="728" type="curve"/>
      <point x="429" y="518" type="line"/>
      <point x="460" y="518" type="line"/>
      <point x="479" y="572" type="line" smooth="yes"/>
      <point x="495" y="619"/>
      <point x="513" y="675"/>
      <point x="513" y="704" type="curve" smooth="yes"/>
      <point x="513" y="726"/>
      <point x="503" y="740"/>
    </contour>
  </outline>
</glyph>
<glyph name="lcaron" format="1">
  <advance width="321"/>
  <unicode hex="013E"/>
  <outline>
    <contour>
      <point x="158" y="55" type="line"/>
      <point x="138" y="55" type="line"/>
      <point x="25" y="35" type="line"/>
      <point x="25" y="0" type="line"/>
      <point x="271" y="0" type="line"/>
      <point x="271" y="35" type="line"/>
    </contour>
    <contour>
      <point x="25" y="695" type="line"/>
      <point x="25" y="660" type="line"/>
      <point x="108" y="650" type="line"/>
      <point x="108" y="210" type="line" smooth="yes"/>
      <point x="108" y="140"/>
      <point x="107" y="70"/>
      <point x="105" y="0" type="curve"/>
      <point x="191" y="0" type="line"/>
      <point x="189" y="70"/>
      <point x="188" y="140"/>
      <point x="188" y="210" type="curve" smooth="yes"/>
      <point x="188" y="590" type="line"/>
      <point x="192" y="732" type="line"/>
      <point x="178" y="740" type="line"/>
    </contour>
    <contour>
      <point x="327" y="750" type="curve" smooth="yes"/>
      <point x="312" y="750"/>
      <point x="297" y="746"/>
      <point x="281" y="738" type="curve"/>
      <point x="278" y="528" type="line"/>
      <point x="309" y="528" type="line"/>
      <point x="328" y="582" type="line" smooth="yes"/>
      <point x="344" y="629"/>
      <point x="362" y="685"/>
      <point x="362" y="714" type="curve" smooth="yes"/>
      <point x="362" y="736"/>
      <point x="352" y="750"/>
    </contour>
  </outline>
</glyph>
<glyph name="Ldot" format="1">
  <advance width="597"/>
  <unicode hex="013F"/>
  <outline>
    <contour>
      <point x="175" y="55" type="line"/>
      <point x="45" y="40" type="line"/>
      <point x="45" y="0" type="line"/>
      <point x="185" y="0" type="line"/>
      <point x="185" y="55" type="line"/>
    </contour>
    <contour>
      <point x="175" y="615" type="line"/>
      <point x="195" y="615" type="line"/>
      <point x="325" y="630" type="line"/>
      <point x="325" y="670" type="line"/>
      <point x="45" y="670" type="line"/>
      <point x="45" y="630" type="line"/>
    </contour>
    <contour>
      <point x="140" y="360" type="curve" smooth="yes"/>
      <point x="140" y="310" type="line" smooth="yes"/>
      <point x="140" y="207"/>
      <point x="140" y="103"/>
      <point x="137" y="0" type="curve"/>
      <point x="233" y="0" type="line"/>
      <point x="230" y="101"/>
      <point x="230" y="205"/>
      <point x="230" y="290" type="curve" smooth="yes"/>
      <point x="230" y="360" type="line" smooth="yes"/>
      <point x="230" y="463"/>
      <point x="230" y="567"/>
      <point x="233" y="670" type="curve"/>
      <point x="137" y="670" type="line"/>
      <point x="140" y="569"/>
      <point x="140" y="465"/>
    </contour>
    <contour>
      <point x="492" y="188" type="line"/>
      <point x="463" y="50" type="line"/>
      <point x="185" y="50" type="line"/>
      <point x="185" y="0" type="line"/>
      <point x="542" y="0" type="line"/>
      <point x="552" y="188" type="line"/>
    </contour>
    <contour>
      <point x="471" y="311" type="curve" smooth="yes"/>
      <point x="510" y="311"/>
      <point x="541" y="343"/>
      <point x="541" y="381" type="curve" smooth="yes"/>
      <point x="541" y="420"/>
      <point x="510" y="452"/>
      <point x="471" y="452" type="curve" smooth="yes"/>
      <point x="432" y="452"/>
      <point x="401" y="420"/>
      <point x="401" y="381" type="curve" smooth="yes"/>
      <point x="401" y="343"/>
      <point x="432" y="311"/>
    </contour>
  </outline>
</glyph>
<glyph name="ldot" format="1">
  <advance width="308"/>
  <unicode hex="0140"/>
  <outline>
    <contour>
      <point x="158" y="55" type="line"/>
      <point x="138" y="55" type="line"/>
      <point x="25" y="35" type="line"/>
      <point x="25" y="0" type="line"/>
      <point x="271" y="0" type="line"/>
      <point x="271" y="35" type="line"/>
    </contour>
    <contour>
      <point x="25" y="695" type="line"/>
      <point x="25" y="660" type="line"/>
      <point x="108" y="650" type="line"/>
      <point x="108" y="210" type="line" smooth="yes"/>
      <point x="108" y="140"/>
      <point x="107" y="70"/>
      <point x="105" y="0" type="curve"/>
      <point x="191" y="0" type="line"/>
      <point x="189" y="70"/>
      <point x="188" y="140"/>
      <point x="188" y="210" type="curve" smooth="yes"/>
      <point x="188" y="590" type="line"/>
      <point x="192" y="732" type="line"/>
      <point x="178" y="740" type="line"/>
    </contour>
    <contour>
      <point x="302" y="301" type="curve" smooth="yes"/>
      <point x="341" y="301"/>
      <point x="372" y="333"/>
      <point x="372" y="371" type="curve" smooth="yes"/>
      <point x="372" y="410"/>
      <point x="341" y="442"/>
      <point x="302" y="442" type="curve" smooth="yes"/>
      <point x="263" y="442"/>
      <point x="232" y="410"/>
      <point x="232" y="371" type="curve" smooth="yes"/>
      <point x="232" y="333"/>
      <point x="263" y="301"/>
    </contour>
  </outline>
</glyph>
<glyph name="Lslash" format="1">
  <advance width="597"/>
  <unicode hex="0141"/>
  <outline>
    <contour>
      <point x="396" y="460" type="line"/>
      <point x="185" y="339" type="line"/>
      <point x="185" y="289" type="line"/>
      <point x="396" y="410" type="line"/>
    </contour>
    <contour>
      <point x="185" y="344" type="line"/>
      <point x="45" y="264" type="line"/>
      <point x="45" y="215" type="line"/>
      <point x="185" y="294" type="line"/>
    </contour>
    <contour>
      <point x="175" y="55" type="line"/>
      <point x="45" y="40" type="line"/>
      <point x="45" y="0" type="line"/>
      <point x="185" y="0" type="line"/>
      <point x="185" y="55" type="line"/>
    </contour>
    <contour>
      <point x="175" y="615" type="line"/>
      <point x="195" y="615" type="line"/>
      <point x="325" y="630" type="line"/>
      <point x="325" y="670" type="line"/>
      <point x="45" y="670" type="line"/>
      <point x="45" y="630" type="line"/>
    </contour>
    <contour>
      <point x="140" y="360" type="curve" smooth="yes"/>
      <point x="140" y="310" type="line" smooth="yes"/>
      <point x="140" y="207"/>
      <point x="140" y="103"/>
      <point x="137" y="0" type="curve"/>
      <point x="233" y="0" type="line"/>
      <point x="230" y="101"/>
      <point x="230" y="205"/>
      <point x="230" y="290" type="curve" smooth="yes"/>
      <point x="230" y="360" type="line" smooth="yes"/>
      <point x="230" y="463"/>
      <point x="230" y="567"/>
      <point x="233" y="670" type="curve"/>
      <point x="137" y="670" type="line"/>
      <point x="140" y="569"/>
      <point x="140" y="465"/>
    </contour>
    <contour>
      <point x="492" y="188" type="line"/>
      <point x="463" y="50" type="line"/>
      <point x="185" y="50" type="line"/>
      <point x="185" y="0" type="line"/>
      <point x="542" y="0" type="line"/>
      <point x="552" y="188" type="line"/>
    </contour>
  </outline>
</glyph>
<glyph name="Nacute" format="1">
  <advance width="735"/>
  <unicode hex="0143"/>
  <outline>
    <contour>
      <point x="40" y="0" type="line"/>
      <point x="280" y="0" type="line"/>
      <point x="280" y="40" type="line"/>
      <point x="165" y="55" type="line"/>
      <point x="145" y="55" type="line"/>
      <point x="40" y="40" type="line"/>
    </contour>
    <contour>
      <point x="125" y="0" type="line"/>
      <point x="175" y="0" type="line"/>
      <point x="175" y="647" type="line"/>
      <point x="125" y="647" type="line"/>
    </contour>
    <contour>
      <point x="455" y="630" type="line"/>
      <point x="575" y="615" type="line"/>
      <point x="595" y="615" type="line"/>
      <point x="695" y="630" type="line"/>
      <point x="695" y="670" type="line"/>
      <point x="455" y="670" type="line"/>
    </contour>
    <contour>
      <point x="578" y="-7" type="line"/>
      <point x="610" y="-7" type="line"/>
      <point x="610" y="670" type="line"/>
      <point x="560" y="670" type="line"/>
      <point x="560" y="168" type="line"/>
      <point x="195" y="670" type="line"/>
      <point x="45" y="670" type="line"/>
      <point x="45" y="630" type="line"/>
      <point x="116" y="621" type="line"/>
    </contour>
    <contour>
      <point x="311" y="731" type="curve"/>
      <point x="329" y="707" type="line"/>
      <point x="370" y="728"/>
      <point x="412" y="751"/>
      <point x="453" y="774" type="curve" smooth="yes"/>
      <point x="490" y="795"/>
      <point x="503" y="811"/>
      <point x="503" y="829" type="curve" smooth="yes"/>
      <point x="503" y="849"/>
      <point x="486" y="862"/>
      <point x="466" y="862" type="curve" smooth="yes"/>
      <point x="449" y="862"/>
      <point x="432" y="852"/>
      <point x="404" y="824" type="curve" smooth="yes"/>
      <point x="373" y="794"/>
      <point x="342" y="763"/>
    </contour>
  </outline>
</glyph>
<glyph name="nacute" format="1">
  <advance width="605"/>
  <unicode hex="0144"/>
  <outline>
    <contour>
      <point x="201" y="0" type="line"/>
      <point x="199" y="45"/>
      <point x="198" y="148"/>
      <point x="198" y="210" type="curve" smooth="yes"/>
      <point x="198" y="361" type="line"/>
      <point x="186" y="477" type="line"/>
      <point x="171" y="487" type="line"/>
      <point x="35" y="427" type="line"/>
      <point x="35" y="392" type="line"/>
      <point x="115" y="383" type="line"/>
      <point x="117" y="343"/>
      <point x="118" y="312"/>
      <point x="118" y="257" type="curve" smooth="yes"/>
      <point x="118" y="210" type="line" smooth="yes"/>
      <point x="118" y="148"/>
      <point x="117" y="45"/>
      <point x="115" y="0" type="curve"/>
    </contour>
    <contour>
      <point x="171" y="55" type="line"/>
      <point x="151" y="55" type="line"/>
      <point x="41" y="35" type="line"/>
      <point x="41" y="0" type="line"/>
      <point x="271" y="0" type="line"/>
      <point x="271" y="35" type="line"/>
    </contour>
    <contour>
      <point x="455" y="55" type="line"/>
      <point x="345" y="35" type="line"/>
      <point x="345" y="0" type="line"/>
      <point x="575" y="0" type="line"/>
      <point x="575" y="35" type="line"/>
      <point x="475" y="55" type="line"/>
    </contour>
    <contour>
      <point x="375" y="487" type="curve" smooth="yes"/>
      <point x="304" y="487"/>
      <point x="224" y="438"/>
      <point x="177" y="375" type="curve"/>
      <point x="190" y="348" type="line"/>
      <point x="247" y="397"/>
      <point x="288" y="417"/>
      <point x="338" y="417" type="curve" smooth="yes"/>
      <point x="398" y="417"/>
      <point x="422" y="387"/>
      <point x="422" y="294" type="curve" smooth="yes"/>
      <point x="422" y="210" type="line" smooth="yes"/>
      <point x="422" y="146"/>
      <point x="421" y="45"/>
      <point x="419" y="0" type="curve"/>
      <point x="505" y="0" type="line"/>
      <point x="503" y="45"/>
      <point x="502" y="146"/>
      <point x="502" y="210" type="curve" smooth="yes"/>
      <point x="502" y="302" type="line" smooth="yes"/>
      <point x="502" y="434"/>
      <point x="461" y="487"/>
    </contour>
    <contour>
      <point x="284" y="576" type="curve"/>
      <point x="309" y="557" type="line"/>
      <point x="351" y="594"/>
      <point x="391" y="630"/>
      <point x="431" y="667" type="curve" smooth="yes"/>
      <point x="458" y="692"/>
      <point x="463" y="707"/>
      <point x="463" y="720" type="curve" smooth="yes"/>
      <point x="463" y="745"/>
      <point x="445" y="757"/>
      <point x="426" y="757" type="curve" smooth="yes"/>
      <point x="409" y="757"/>
      <point x="392" y="747"/>
      <point x="373" y="717" type="curve" smooth="yes"/>
      <point x="342" y="670"/>
      <point x="313" y="623"/>
    </contour>
  </outline>
</glyph>
<glyph name="Ncommaaccent" format="1">
  <advance width="735"/>
  <unicode hex="0145"/>
  <outline>
    <contour>
      <point x="40" y="0" type="line"/>
      <point x="280" y="0" type="line"/>
      <point x="280" y="40" type="line"/>
      <point x="165" y="55" type="line"/>
      <point x="145" y="55" type="line"/>
      <point x="40" y="40" type="line"/>
    </contour>
    <contour>
      <point x="125" y="0" type="line"/>
      <point x="175" y="0" type="line"/>
      <point x="175" y="647" type="line"/>
      <point x="125" y="647" type="line"/>
    </contour>
    <contour>
      <point x="455" y="630" type="line"/>
      <point x="575" y="615" type="line"/>
      <point x="595" y="615" type="line"/>
      <point x="695" y="630" type="line"/>
      <point x="695" y="670" type="line"/>
      <point x="455" y="670" type="line"/>
    </contour>
    <contour>
      <point x="578" y="-7" type="line"/>
      <point x="610" y="-7" type="line"/>
      <point x="610" y="670" type="line"/>
      <point x="560" y="670" type="line"/>
      <point x="560" y="168" type="line"/>
      <point x="195" y="670" type="line"/>
      <point x="45" y="670" type="line"/>
      <point x="45" y="630" type="line"/>
      <point x="116" y="621" type="line"/>
    </contour>
    <contour>
      <point x="445" y="-107" type="curve" smooth="yes"/>
      <point x="445" y="-94"/>
      <point x="443" y="-82"/>
      <point x="436" y="-61" type="curve"/>
      <point x="422" y="-48"/>
      <point x="407" y="-42"/>
      <point x="391" y="-42" type="curve" smooth="yes"/>
      <point x="364" y="-42"/>
      <point x="341" y="-62"/>
      <point x="341" y="-90" type="curve" smooth="yes"/>
      <point x="341" y="-123"/>
      <point x="373" y="-153"/>
      <point x="410" y="-162" type="curve"/>
      <point x="406" y="-122" type="line"/>
      <point x="382" y="-171"/>
      <point x="351" y="-193"/>
      <point x="302" y="-212" type="curve"/>
      <point x="312" y="-240" type="line"/>
      <point x="382" y="-217"/>
      <point x="445" y="-177"/>
    </contour>
  </outline>
</glyph>
<glyph name="napostrophe" format="1">
  <advance width="770"/>
  <unicode hex="0149"/>
  <outline>
    <contour>
      <point x="366" y="0" type="line"/>
      <point x="364" y="45"/>
      <point x="363" y="148"/>
      <point x="363" y="210" type="curve" smooth="yes"/>
      <point x="363" y="361" type="line"/>
      <point x="351" y="477" type="line"/>
      <point x="336" y="487" type="line"/>
      <point x="200" y="427" type="line"/>
      <point x="200" y="392" type="line"/>
      <point x="280" y="383" type="line"/>
      <point x="282" y="343"/>
      <point x="283" y="312"/>
      <point x="283" y="257" type="curve" smooth="yes"/>
      <point x="283" y="210" type="line" smooth="yes"/>
      <point x="283" y="148"/>
      <point x="282" y="45"/>
      <point x="280" y="0" type="curve"/>
    </contour>
    <contour>
      <point x="336" y="55" type="line"/>
      <point x="316" y="55" type="line"/>
      <point x="206" y="35" type="line"/>
      <point x="206" y="0" type="line"/>
      <point x="436" y="0" type="line"/>
      <point x="436" y="35" type="line"/>
    </contour>
    <contour>
      <point x="620" y="55" type="line"/>
      <point x="510" y="35" type="line"/>
      <point x="510" y="0" type="line"/>
      <point x="740" y="0" type="line"/>
      <point x="740" y="35" type="line"/>
      <point x="640" y="55" type="line"/>
    </contour>
    <contour>
      <point x="540" y="487" type="curve" smooth="yes"/>
      <point x="469" y="487"/>
      <point x="389" y="438"/>
      <point x="342" y="375" type="curve"/>
      <point x="355" y="348" type="line"/>
      <point x="412" y="397"/>
      <point x="453" y="417"/>
      <point x="503" y="417" type="curve" smooth="yes"/>
      <point x="563" y="417"/>
      <point x="587" y="387"/>
      <point x="587" y="294" type="curve" smooth="yes"/>
      <point x="587" y="210" type="line" smooth="yes"/>
      <point x="587" y="146"/>
      <point x="586" y="45"/>
      <point x="584" y="0" type="curve"/>
      <point x="670" y="0" type="line"/>
      <point x="668" y="45"/>
      <point x="667" y="146"/>
      <point x="667" y="210" type="curve" smooth="yes"/>
      <point x="667" y="302" type="line" smooth="yes"/>
      <point x="667" y="434"/>
      <point x="626" y="487"/>
    </contour>
    <contour>
      <point x="174" y="660" type="curve" smooth="yes"/>
      <point x="174" y="685"/>
      <point x="169" y="709"/>
      <point x="161" y="730" type="curve"/>
      <point x="145" y="745"/>
      <point x="127" y="750"/>
      <point x="107" y="750" type="curve" smooth="yes"/>
      <point x="72" y="750"/>
      <point x="50" y="732"/>
      <point x="50" y="692" type="curve" smooth="yes"/>
      <point x="50" y="667"/>
      <point x="59" y="644"/>
      <point x="89" y="618" type="curve" smooth="yes"/>
      <point x="133" y="577" type="line"/>
      <point x="125" y="613" type="line"/>
      <point x="100" y="545"/>
      <point x="74" y="515"/>
      <point x="18" y="471" type="curve"/>
      <point x="37" y="444" type="line"/>
      <point x="111" y="493"/>
      <point x="174" y="573"/>
    </contour>
  </outline>
</glyph>
<glyph name="Omacron" format="1">
  <advance width="707"/>
  <unicode hex="014C"/>
  <outline>
    <contour>
      <point x="153" y="335" type="curve" smooth="yes"/>
      <point x="153" y="485"/>
      <point x="213" y="635"/>
      <point x="354" y="635" type="curve" smooth="yes"/>
      <point x="495" y="635"/>
      <point x="554" y="485"/>
      <point x="554" y="335" type="curve" smooth="yes"/>
      <point x="554" y="185"/>
      <point x="495" y="35"/>
      <point x="354" y="35" type="curve" smooth="yes"/>
      <point x="213" y="35"/>
      <point x="153" y="185"/>
    </contour>
    <contour>
      <point x="354" y="685" type="curve" smooth="yes"/>
      <point x="200" y="685"/>
      <point x="48" y="554"/>
      <point x="48" y="335" type="curve" smooth="yes"/>
      <point x="48" y="107"/>
      <point x="199" y="-15"/>
      <point x="354" y="-15" type="curve" smooth="yes"/>
      <point x="509" y="-15"/>
      <point x="659" y="116"/>
      <point x="659" y="335" type="curve" smooth="yes"/>
      <point x="659" y="563"/>
      <point x="508" y="685"/>
    </contour>
    <contour>
      <point x="204" y="760" type="line"/>
      <point x="504" y="760" type="line"/>
      <point x="504" y="821" type="line"/>
      <point x="204" y="821" type="line"/>
    </contour>
  </outline>
</glyph>
<glyph name="Obreve" format="1">
  <advance width="707"/>
  <unicode hex="014E"/>
  <outline>
    <contour>
      <point x="153" y="335" type="curve" smooth="yes"/>
      <point x="153" y="485"/>
      <point x="213" y="635"/>
      <point x="354" y="635" type="curve" smooth="yes"/>
      <point x="495" y="635"/>
      <point x="554" y="485"/>
      <point x="554" y="335" type="curve" smooth="yes"/>
      <point x="554" y="185"/>
      <point x="495" y="35"/>
      <point x="354" y="35" type="curve" smooth="yes"/>
      <point x="213" y="35"/>
      <point x="153" y="185"/>
    </contour>
    <contour>
      <point x="354" y="685" type="curve" smooth="yes"/>
      <point x="200" y="685"/>
      <point x="48" y="554"/>
      <point x="48" y="335" type="curve" smooth="yes"/>
      <point x="48" y="107"/>
      <point x="199" y="-15"/>
      <point x="354" y="-15" type="curve" smooth="yes"/>
      <point x="509" y="-15"/>
      <point x="659" y="116"/>
      <point x="659" y="335" type="curve" smooth="yes"/>
      <point x="659" y="563"/>
      <point x="508" y="685"/>
    </contour>
    <contour>
      <point x="211" y="869" type="line"/>
      <point x="220" y="810"/>
      <point x="265" y="742"/>
      <point x="354" y="742" type="curve" smooth="yes"/>
      <point x="443" y="742"/>
      <point x="488" y="810"/>
      <point x="497" y="869" type="curve"/>
      <point x="467" y="880" type="line"/>
      <point x="450" y="835"/>
      <point x="414" y="802"/>
      <point x="354" y="802" type="curve" smooth="yes"/>
      <point x="295" y="802"/>
      <point x="256" y="835"/>
      <point x="241" y="880" type="curve"/>
    </contour>
  </outline>
</glyph>
<glyph name="obreve" format="1">
  <advance width="548"/>
  <unicode hex="014F"/>
  <outline>
    <contour>
      <point x="274" y="-13" type="curve" smooth="yes"/>
      <point x="387" y="-13"/>
      <point x="502" y="69"/>
      <point x="502" y="235" type="curve" smooth="yes"/>
      <point x="502" y="401"/>
      <point x="387" y="487"/>
      <point x="274" y="487" type="curve" smooth="yes"/>
      <point x="159" y="487"/>
      <point x="46" y="401"/>
      <point x="46" y="235" type="curve" smooth="yes"/>
      <point x="46" y="69"/>
      <point x="159" y="-13"/>
    </contour>
    <contour>
      <point x="274" y="32" type="curve" smooth="yes"/>
      <point x="185" y="32"/>
      <point x="136" y="101"/>
      <point x="136" y="235" type="curve" smooth="yes"/>
      <point x="136" y="369"/>
      <point x="185" y="442"/>
      <point x="274" y="442" type="curve" smooth="yes"/>
      <point x="361" y="442"/>
      <point x="412" y="369"/>
      <point x="412" y="235" type="curve" smooth="yes"/>
      <point x="412" y="101"/>
      <point x="361" y="32"/>
    </contour>
    <contour>
      <point x="124" y="723" type="line"/>
      <point x="133" y="646"/>
      <point x="183" y="575"/>
      <point x="274" y="575" type="curve" smooth="yes"/>
      <point x="365" y="575"/>
      <point x="415" y="646"/>
      <point x="424" y="723" type="curve"/>
      <point x="395" y="734" type="line"/>
      <point x="375" y="682"/>
      <point x="341" y="640"/>
      <point x="274" y="640" type="curve" smooth="yes"/>
      <point x="207" y="640"/>
      <point x="173" y="682"/>
      <point x="153" y="734" type="curve"/>
    </contour>
  </outline>
</glyph>
<glyph name="Ohungarumlaut" format="1">
  <advance width="707"/>
  <unicode hex="0150"/>
  <outline>
    <contour>
      <point x="153" y="335" type="curve" smooth="yes"/>
      <point x="153" y="485"/>
      <point x="213" y="635"/>
      <point x="354" y="635" type="curve" smooth="yes"/>
      <point x="495" y="635"/>
      <point x="554" y="485"/>
      <point x="554" y="335" type="curve" smooth="yes"/>
      <point x="554" y="185"/>
      <point x="495" y="35"/>
      <point x="354" y="35" type="curve" smooth="yes"/>
      <point x="213" y="35"/>
      <point x="153" y="185"/>
    </contour>
    <contour>
      <point x="354" y="685" type="curve" smooth="yes"/>
      <point x="200" y="685"/>
      <point x="48" y="554"/>
      <point x="48" y="335" type="curve" smooth="yes"/>
      <point x="48" y="107"/>
      <point x="199" y="-15"/>
      <point x="354" y="-15" type="curve" smooth="yes"/>
      <point x="509" y="-15"/>
      <point x="659" y="116"/>
      <point x="659" y="335" type="curve" smooth="yes"/>
      <point x="659" y="563"/>
      <point x="508" y="685"/>
    </contour>
    <contour>
      <point x="258" y="730" type="line"/>
      <point x="283" y="712" type="line"/>
      <point x="379" y="810" type="line" smooth="yes"/>
      <point x="395" y="827"/>
      <point x="401" y="842"/>
      <point x="401" y="854" type="curve" smooth="yes"/>
      <point x="401" y="874"/>
      <point x="385" y="887"/>
      <point x="366" y="887" type="curve" smooth="yes"/>
      <point x="350" y="887"/>
      <point x="329" y="877"/>
      <point x="314" y="846" type="curve" smooth="yes"/>
    </contour>
    <contour>
      <point x="410" y="730" type="line"/>
      <point x="435" y="712" type="line"/>
      <point x="531" y="810" type="line" smooth="yes"/>
      <point x="547" y="827"/>
      <point x="553" y="842"/>
      <point x="553" y="854" type="curve" smooth="yes"/>
      <point x="553" y="874"/>
      <point x="537" y="887"/>
      <point x="518" y="887" type="curve" smooth="yes"/>
      <point x="502" y="887"/>
      <point x="481" y="877"/>
      <point x="466" y="846" type="curve" smooth="yes"/>
    </contour>
  </outline>
</glyph>
<glyph name="ohungarumlaut" format="1">
  <advance width="548"/>
  <unicode hex="0151"/>
  <outline>
    <contour>
      <point x="274" y="-13" type="curve" smooth="yes"/>
      <point x="387" y="-13"/>
      <point x="502" y="69"/>
      <point x="502" y="235" type="curve" smooth="yes"/>
      <point x="502" y="401"/>
      <point x="387" y="487"/>
      <point x="274" y="487" type="curve" smooth="yes"/>
      <point x="159" y="487"/>
      <point x="46" y="401"/>
      <point x="46" y="235" type="curve" smooth="yes"/>
      <point x="46" y="69"/>
      <point x="159" y="-13"/>
    </contour>
    <contour>
      <point x="274" y="32" type="curve" smooth="yes"/>
      <point x="185" y="32"/>
      <point x="136" y="101"/>
      <point x="136" y="235" type="curve" smooth="yes"/>
      <point x="136" y="369"/>
      <point x="185" y="442"/>
      <point x="274" y="442" type="curve" smooth="yes"/>
      <point x="361" y="442"/>
      <point x="412" y="369"/>
      <point x="412" y="235" type="curve" smooth="yes"/>
      <point x="412" y="101"/>
      <point x="361" y="32"/>
    </contour>
    <contour>
      <point x="182" y="567" type="line"/>
      <point x="209" y="551" type="line"/>
      <point x="302" y="668" type="line" smooth="yes"/>
      <point x="321" y="692"/>
      <point x="324" y="708"/>
      <point x="324" y="718" type="curve" smooth="yes"/>
      <point x="324" y="740"/>
      <point x="308" y="754"/>
      <point x="289" y="754" type="curve" smooth="yes"/>
      <point x="272" y="754"/>
      <point x="250" y="743"/>
      <point x="237" y="709" type="curve" smooth="yes"/>
    </contour>
    <contour>
      <point x="324" y="567" type="line"/>
      <point x="351" y="551" type="line"/>
      <point x="444" y="668" type="line" smooth="yes"/>
      <point x="463" y="692"/>
      <point x="466" y="708"/>
      <point x="466" y="718" type="curve" smooth="yes"/>
      <point x="466" y="740"/>
      <point x="450" y="754"/>
      <point x="431" y="754" type="curve" smooth="yes"/>
      <point x="414" y="754"/>
      <point x="392" y="743"/>
      <point x="379" y="709" type="curve" smooth="yes"/>
    </contour>
  </outline>
</glyph>
<glyph name="racute" format="1">
  <advance width="420"/>
  <unicode hex="0155"/>
  <outline>
    <contour>
      <point x="115" y="0" type="curve"/>
      <point x="201" y="0" type="line"/>
      <point x="199" y="45"/>
      <point x="198" y="148"/>
      <point x="198" y="210" type="curve" smooth="yes"/>
      <point x="198" y="352" type="line"/>
      <point x="186" y="477" type="line"/>
      <point x="171" y="487" type="line"/>
      <point x="35" y="427" type="line"/>
      <point x="35" y="392" type="line"/>
      <point x="115" y="383" type="line"/>
      <point x="117" y="343"/>
      <point x="118" y="312"/>
      <point x="118" y="257" type="curve" smooth="yes"/>
      <point x="118" y="210" type="line" smooth="yes"/>
      <point x="118" y="148"/>
      <point x="117" y="45"/>
    </contour>
    <contour>
      <point x="43" y="0" type="line"/>
      <point x="283" y="0" type="line"/>
      <point x="283" y="35" type="line"/>
      <point x="173" y="55" type="line"/>
      <point x="153" y="55" type="line"/>
      <point x="43" y="35" type="line"/>
    </contour>
    <contour>
      <point x="196" y="278" type="line"/>
      <point x="219" y="355"/>
      <point x="255" y="405"/>
      <point x="317" y="437" type="curve"/>
      <point x="268" y="427" type="line"/>
      <point x="295" y="404" type="line" smooth="yes"/>
      <point x="313" y="389"/>
      <point x="332" y="380"/>
      <point x="355" y="380" type="curve" smooth="yes"/>
      <point x="395" y="380"/>
      <point x="413" y="406"/>
      <point x="413" y="453" type="curve"/>
      <point x="401" y="473"/>
      <point x="371" y="487"/>
      <point x="342" y="487" type="curve" smooth="yes"/>
      <point x="283" y="487"/>
      <point x="222" y="431"/>
      <point x="190" y="338" type="curve"/>
    </contour>
    <contour>
      <point x="212" y="576" type="curve"/>
      <point x="237" y="557" type="line"/>
      <point x="279" y="594"/>
      <point x="319" y="630"/>
      <point x="359" y="667" type="curve" smooth="yes"/>
      <point x="386" y="692"/>
      <point x="391" y="707"/>
      <point x="391" y="720" type="curve" smooth="yes"/>
      <point x="391" y="745"/>
      <point x="373" y="757"/>
      <point x="354" y="757" type="curve" smooth="yes"/>
      <point x="337" y="757"/>
      <point x="320" y="747"/>
      <point x="301" y="717" type="curve" smooth="yes"/>
      <point x="270" y="670"/>
      <point x="241" y="623"/>
    </contour>
  </outline>
</glyph>
<glyph name="sacute" format="1">
  <advance width="433"/>
  <unicode hex="015B"/>
  <outline>
    <contour>
      <point x="200" y="-13" type="curve" smooth="yes"/>
      <point x="328" y="-13"/>
      <point x="393" y="55"/>
      <point x="393" y="129" type="curve" smooth="yes"/>
      <point x="393" y="191"/>
      <point x="355" y="238"/>
      <point x="255" y="275" type="curve" smooth="yes"/>
      <point x="225" y="286" type="line" smooth="yes"/>
      <point x="157" y="311"/>
      <point x="132" y="328"/>
      <point x="132" y="373" type="curve" smooth="yes"/>
      <point x="132" y="415"/>
      <point x="164" y="442"/>
      <point x="226" y="442" type="curve" smooth="yes"/>
      <point x="262" y="442"/>
      <point x="296" y="429"/>
      <point x="328" y="404" type="curve"/>
      <point x="328" y="430" type="line"/>
      <point x="292" y="446" type="line"/>
      <point x="312" y="345" type="line"/>
      <point x="362" y="345" type="line"/>
      <point x="366" y="446" type="line"/>
      <point x="323" y="472"/>
      <point x="281" y="487"/>
      <point x="227" y="487" type="curve" smooth="yes"/>
      <point x="116" y="487"/>
      <point x="55" y="420"/>
      <point x="55" y="348" type="curve" smooth="yes"/>
      <point x="55" y="280"/>
      <point x="103" y="241"/>
      <point x="176" y="214" type="curve" smooth="yes"/>
      <point x="222" y="197" type="line" smooth="yes"/>
      <point x="285" y="174"/>
      <point x="315" y="152"/>
      <point x="315" y="109" type="curve" smooth="yes"/>
      <point x="315" y="63"/>
      <point x="279" y="32"/>
      <point x="202" y="32" type="curve" smooth="yes"/>
      <point x="152" y="32"/>
      <point x="114" y="46"/>
      <point x="79" y="73" type="curve"/>
      <point x="79" y="39" type="line"/>
      <point x="128" y="16" type="line"/>
      <point x="101" y="134" type="line"/>
      <point x="48" y="134" type="line"/>
      <point x="52" y="25" type="line"/>
      <point x="101" y="0"/>
      <point x="144" y="-13"/>
    </contour>
    <contour>
      <point x="188" y="576" type="curve"/>
      <point x="213" y="557" type="line"/>
      <point x="255" y="594"/>
      <point x="295" y="630"/>
      <point x="335" y="667" type="curve" smooth="yes"/>
      <point x="362" y="692"/>
      <point x="367" y="707"/>
      <point x="367" y="720" type="curve" smooth="yes"/>
      <point x="367" y="745"/>
      <point x="349" y="757"/>
      <point x="330" y="757" type="curve" smooth="yes"/>
      <point x="313" y="757"/>
      <point x="296" y="747"/>
      <point x="277" y="717" type="curve" smooth="yes"/>
      <point x="246" y="670"/>
      <point x="217" y="623"/>
    </contour>
  </outline>
</glyph>
<glyph name="scedilla" format="1">
  <advance width="433"/>
  <unicode hex="015F"/>
  <outline>
    <contour>
      <point x="200" y="-13" type="curve" smooth="yes"/>
      <point x="328" y="-13"/>
      <point x="393" y="55"/>
      <point x="393" y="129" type="curve" smooth="yes"/>
      <point x="393" y="191"/>
      <point x="355" y="238"/>
      <point x="255" y="275" type="curve" smooth="yes"/>
      <point x="225" y="286" type="line" smooth="yes"/>
      <point x="157" y="311"/>
      <point x="132" y="328"/>
      <point x="132" y="373" type="curve" smooth="yes"/>
      <point x="132" y="415"/>
      <point x="164" y="442"/>
      <point x="226" y="442" type="curve" smooth="yes"/>
      <point x="262" y="442"/>
      <point x="296" y="429"/>
      <point x="328" y="404" type="curve"/>
      <point x="328" y="430" type="line"/>
      <point x="292" y="446" type="line"/>
      <point x="312" y="345" type="line"/>
      <point x="362" y="345" type="line"/>
      <point x="366" y="446" type="line"/>
      <point x="323" y="472"/>
      <point x="281" y="487"/>
      <point x="227" y="487" type="curve" smooth="yes"/>
      <point x="116" y="487"/>
      <point x="55" y="420"/>
      <point x="55" y="348" type="curve" smooth="yes"/>
      <point x="55" y="280"/>
      <point x="103" y="241"/>
      <point x="176" y="214" type="curve" smooth="yes"/>
      <point x="222" y="197" type="line" smooth="yes"/>
      <point x="285" y="174"/>
      <point x="315" y="152"/>
      <point x="315" y="109" type="curve" smooth="yes"/>
      <point x="315" y="63"/>
      <point x="279" y="32"/>
      <point x="202" y="32" type="curve" smooth="yes"/>
      <point x="152" y="32"/>
      <point x="114" y="46"/>
      <point x="79" y="73" type="curve"/>
      <point x="79" y="39" type="line"/>
      <point x="128" y="16" type="line"/>
      <point x="101" y="134" type="line"/>
      <point x="48" y="134" type="line"/>
      <point x="52" y="25" type="line"/>
      <point x="101" y="0"/>
      <point x="144" y="-13"/>
    </contour>
    <contour>
      <point x="183" y="-86" type="line"/>
      <point x="232" y="-93"/>
      <point x="255" y="-107"/>
      <point x="255" y="-138" type="curve" smooth="yes"/>
      <point x="255" y="-166"/>
      <point x="236" y="-184"/>
      <point x="197" y="-184" type="curve" smooth="yes"/>
      <point x="179" y="-184"/>
      <point x="165" y="-183"/>
      <point x="149" y="-181" type="curve"/>
      <point x="142" y="-211" type="line"/>
      <point x="155" y="-215"/>
      <point x="176" y="-220"/>
      <point x="204" y="-220" type="curve" smooth="yes"/>
      <point x="277" y="-220"/>
      <point x="315" y="-186"/>
      <point x="315" y="-140" type="curve" smooth="yes"/>
      <point x="315" y="-85"/>
      <point x="261" y="-59"/>
      <point x="202" y="-56" type="curve"/>
      <point x="222" y="-77" type="line"/>
      <point x="232" y="3" type="line"/>
      <point x="196" y="3" type="line"/>
    </contour>
  </outline>
</glyph>
<glyph name="Tcedilla" format="1">
  <advance width="602"/>
  <unicode hex="0162"/>
  <outline>
    <contour>
      <point x="291" y="55" type="line"/>
      <point x="151" y="40" type="line"/>
      <point x="151" y="0" type="line"/>
      <point x="451" y="0" type="line"/>
      <point x="451" y="40" type="line"/>
      <point x="311" y="55" type="line"/>
    </contour>
    <contour>
      <point x="256" y="310" type="line" smooth="yes"/>
      <point x="256" y="205"/>
      <point x="256" y="101"/>
      <point x="253" y="0" type="curve"/>
      <point x="349" y="0" type="line"/>
      <point x="346" y="103"/>
      <point x="346" y="207"/>
      <point x="346" y="310" type="curve" smooth="yes"/>
      <point x="346" y="360" type="line" smooth="yes"/>
      <point x="346" y="465"/>
      <point x="346" y="569"/>
      <point x="349" y="670" type="curve"/>
      <point x="253" y="670" type="line"/>
      <point x="256" y="567"/>
      <point x="256" y="463"/>
      <point x="256" y="360" type="curve" smooth="yes"/>
    </contour>
    <contour>
      <point x="539" y="620" type="line"/>
      <point x="494" y="670" type="line"/>
      <point x="526" y="492" type="line"/>
      <point x="582" y="492" type="line"/>
      <point x="574" y="670" type="line"/>
      <point x="28" y="670" type="line"/>
      <point x="20" y="492" type="line"/>
      <point x="76" y="492" type="line"/>
      <point x="108" y="670" type="line"/>
      <point x="63" y="620" type="line"/>
    </contour>
    <contour>
      <point x="268" y="-86" type="line"/>
      <point x="317" y="-93"/>
      <point x="340" y="-107"/>
      <point x="340" y="-138" type="curve" smooth="yes"/>
      <point x="340" y="-166"/>
      <point x="321" y="-184"/>
      <point x="282" y="-184" type="curve" smooth="yes"/>
      <point x="264" y="-184"/>
      <point x="250" y="-183"/>
      <point x="234" y="-181" type="curve"/>
      <point x="227" y="-211" type="line"/>
      <point x="240" y="-215"/>
      <point x="261" y="-220"/>
      <point x="289" y="-220" type="curve" smooth="yes"/>
      <point x="362" y="-220"/>
      <point x="400" y="-186"/>
      <point x="400" y="-140" type="curve" smooth="yes"/>
      <point x="400" y="-85"/>
      <point x="346" y="-59"/>
      <point x="287" y="-56" type="curve"/>
      <point x="307" y="-77" type="line"/>
      <point x="317" y="3" type="line"/>
      <point x="281" y="3" type="line"/>
    </contour>
  </outline>
</glyph>
<glyph name="Tbar" format="1">
  <advance width="602"/>
  <unicode hex="0166"/>
  <outline>
    <contour>
      <point x="81" y="307" type="line"/>
      <point x="521" y="307" type="line"/>
      <point x="521" y="353" type="line"/>
      <point x="81" y="353" type="line"/>
    </contour>
    <contour>
      <point x="291" y="55" type="line"/>
      <point x="151" y="40" type="line"/>
      <point x="151" y="0" type="line"/>
      <point x="451" y="0" type="line"/>
      <point x="451" y="40" type="line"/>
      <point x="311" y="55" type="line"/>
    </contour>
    <contour>
      <point x="256" y="310" type="line" smooth="yes"/>
      <point x="256" y="205"/>
      <point x="256" y="101"/>
      <point x="253" y="0" type="curve"/>
      <point x="349" y="0" type="line"/>
      <point x="346" y="103"/>
      <point x="346" y="207"/>
      <point x="346" y="310" type="curve" smooth="yes"/>
      <point x="346" y="360" type="line" smooth="yes"/>
      <point x="346" y="465"/>
      <point x="346" y="569"/>
      <point x="349" y="670" type="curve"/>
      <point x="253" y="670" type="line"/>
      <point x="256" y="567"/>
      <point x="256" y="463"/>
      <point x="256" y="360" type="curve" smooth="yes"/>
    </contour>
    <contour>
      <point x="539" y="620" type="line"/>
      <point x="494" y="670" type="line"/>
      <point x="526" y="492" type="line"/>
      <point x="582" y="492" type="line"/>
      <point x="574" y="670" type="line"/>
      <point x="28" y="670" type="line"/>
      <point x="20" y="492" type="line"/>
      <point x="76" y="492" type="line"/>
      <point x="108" y="670" type="line"/>
      <point x="63" y="620" type="line"/>
    </contour>
  </outline>
</glyph>
<glyph name="utilde" format="1">
  <advance width="582"/>
  <unicode hex="0169"/>
  <outline>
    <contour>
      <point x="174" y="330" type="line"/>
      <point x="179" y="470" type="line"/>
      <point x="169" y="480" type="line"/>
      <point x="25" y="467" type="line"/>
      <point x="25" y="432" type="line"/>
      <point x="118" y="412" type="line"/>
      <point x="97" y="431" type="line"/>
      <point x="94" y="167" type="line" smooth="yes"/>
      <point x="93" y="35"/>
      <point x="143" y="-13"/>
      <point x="223" y="-13" type="curve" smooth="yes"/>
      <point x="288" y="-13"/>
      <point x="356" y="19"/>
      <point x="413" y="96" type="curve"/>
      <point x="408" y="132" type="line"/>
      <point x="358" y="82"/>
      <point x="306" y="57"/>
      <point x="255" y="57" type="curve" smooth="yes"/>
      <point x="200" y="57"/>
      <point x="174" y="88"/>
      <point x="174" y="177" type="curve" smooth="yes"/>
    </contour>
    <contour>
      <point x="547" y="0" type="line"/>
      <point x="547" y="35" type="line"/>
      <point x="478" y="50" type="line"/>
      <point x="478" y="330" type="line"/>
      <point x="481" y="470" type="line"/>
      <point x="471" y="480" type="line"/>
      <point x="329" y="467" type="line"/>
      <point x="329" y="432" type="line"/>
      <point x="401" y="417" type="line"/>
      <point x="398" y="109" type="line"/>
      <point x="412" y="-8" type="line"/>
    </contour>
    <contour>
      <point x="129" y="586" type="curve"/>
      <point x="155" y="577" type="line"/>
      <point x="169" y="627"/>
      <point x="187" y="658"/>
      <point x="217" y="658" type="curve" smooth="yes"/>
      <point x="244" y="658"/>
      <point x="263" y="630"/>
      <point x="286" y="609" type="curve" smooth="yes"/>
      <point x="305" y="591"/>
      <point x="326" y="575"/>
      <point x="359" y="575" type="curve" smooth="yes"/>
      <point x="415" y="575"/>
      <point x="441" y="626"/>
      <point x="453" y="703" type="curve"/>
      <point x="427" y="712" type="line"/>
      <point x="413" y="662"/>
      <point x="395" y="631"/>
      <point x="365" y="631" type="curve" smooth="yes"/>
      <point x="338" y="631"/>
      <point x="319" y="659"/>
      <point x="296" y="680" type="curve" smooth="yes"/>
      <point x="276" y="698"/>
      <point x="256" y="714"/>
      <point x="223" y="714" type="curve" smooth="yes"/>
      <point x="168" y="714"/>
      <point x="140" y="663"/>
    </contour>
  </outline>
</glyph>
<glyph name="Ubreve" format="1">
  <advance width="727"/>
  <unicode hex="016C"/>
  <outline>
    <contour>
      <point x="582" y="615" type="line"/>
      <point x="692" y="630" type="line"/>
      <point x="692" y="670" type="line"/>
      <point x="452" y="670" type="line"/>
      <point x="452" y="630" type="line"/>
      <point x="562" y="615" type="line"/>
    </contour>
    <contour>
      <point x="170" y="615" type="line"/>
      <point x="190" y="615" type="line"/>
      <point x="320" y="630" type="line"/>
      <point x="320" y="670" type="line"/>
      <point x="40" y="670" type="line"/>
      <point x="40" y="630" type="line"/>
    </contour>
    <contour>
      <point x="215" y="281" type="curve" smooth="yes"/>
      <point x="215" y="360" type="line" smooth="yes"/>
      <point x="215" y="465"/>
      <point x="215" y="569"/>
      <point x="218" y="670" type="curve"/>
      <point x="122" y="670" type="line"/>
      <point x="125" y="567"/>
      <point x="125" y="463"/>
      <point x="125" y="360" type="curve" smooth="yes"/>
      <point x="125" y="252" type="line" smooth="yes"/>
      <point x="125" y="66"/>
      <point x="223" y="-15"/>
      <point x="368" y="-15" type="curve" smooth="yes"/>
      <point x="503" y="-15"/>
      <point x="605" y="63"/>
      <point x="605" y="273" type="curve" smooth="yes"/>
      <point x="605" y="670" type="line"/>
      <point x="555" y="670" type="line"/>
      <point x="555" y="299" type="line" smooth="yes"/>
      <point x="555" y="120"/>
      <point x="497" y="55"/>
      <point x="382" y="55" type="curve" smooth="yes"/>
      <point x="280" y="55"/>
      <point x="215" y="109"/>
    </contour>
    <contour>
      <point x="241" y="859" type="line"/>
      <point x="250" y="800"/>
      <point x="295" y="732"/>
      <point x="384" y="732" type="curve" smooth="yes"/>
      <point x="473" y="732"/>
      <point x="518" y="800"/>
      <point x="527" y="859" type="curve"/>
      <point x="497" y="870" type="line"/>
      <point x="480" y="825"/>
      <point x="444" y="792"/>
      <point x="384" y="792" type="curve" smooth="yes"/>
      <point x="325" y="792"/>
      <point x="286" y="825"/>
      <point x="271" y="870" type="curve"/>
    </contour>
  </outline>
</glyph>
<glyph name="ubreve" format="1">
  <advance width="582"/>
  <unicode hex="016D"/>
  <outline>
    <contour>
      <point x="174" y="330" type="line"/>
      <point x="179" y="470" type="line"/>
      <point x="169" y="480" type="line"/>
      <point x="25" y="467" type="line"/>
      <point x="25" y="432" type="line"/>
      <point x="118" y="412" type="line"/>
      <point x="97" y="431" type="line"/>
      <point x="94" y="167" type="line" smooth="yes"/>
      <point x="93" y="35"/>
      <point x="143" y="-13"/>
      <point x="223" y="-13" type="curve" smooth="yes"/>
      <point x="288" y="-13"/>
      <point x="356" y="19"/>
      <point x="413" y="96" type="curve"/>
      <point x="408" y="132" type="line"/>
      <point x="358" y="82"/>
      <point x="306" y="57"/>
      <point x="255" y="57" type="curve" smooth="yes"/>
      <point x="200" y="57"/>
      <point x="174" y="88"/>
      <point x="174" y="177" type="curve" smooth="yes"/>
    </contour>
    <contour>
      <point x="547" y="0" type="line"/>
      <point x="547" y="35" type="line"/>
      <point x="478" y="50" type="line"/>
      <point x="478" y="330" type="line"/>
      <point x="481" y="470" type="line"/>
      <point x="471" y="480" type="line"/>
      <point x="329" y="467" type="line"/>
      <point x="329" y="432" type="line"/>
      <point x="401" y="417" type="line"/>
      <point x="398" y="109" type="line"/>
      <point x="412" y="-8" type="line"/>
    </contour>
    <contour>
      <point x="141" y="723" type="line"/>
      <point x="150" y="646"/>
      <point x="200" y="575"/>
      <point x="291" y="575" type="curve" smooth="yes"/>
      <point x="382" y="575"/>
      <point x="432" y="646"/>
      <point x="441" y="723" type="curve"/>
      <point x="412" y="734" type="line"/>
      <point x="392" y="682"/>
      <point x="358" y="640"/>
      <point x="291" y="640" type="curve" smooth="yes"/>
      <point x="224" y="640"/>
      <point x="190" y="682"/>
      <point x="170" y="734" type="curve"/>
    </contour>
  </outline>
</glyph>
<glyph name="uring" format="1">
  <advance width="582"/>
  <unicode hex="016F"/>
  <outline>
    <contour>
      <point x="174" y="330" type="line"/>
      <point x="179" y="470" type="line"/>
      <point x="169" y="480" type="line"/>
      <point x="25" y="467" type="line"/>
      <point x="25" y="432" type="line"/>
      <point x="118" y="412" type="line"/>
      <point x="97" y="431" type="line"/>
      <point x="94" y="167" type="line" smooth="yes"/>
      <point x="93" y="35"/>
      <point x="143" y="-13"/>
      <point x="223" y="-13" type="curve" smooth="yes"/>
      <point x="288" y="-13"/>
      <point x="356" y="19"/>
      <point x="413" y="96" type="curve"/>
      <point x="408" y="132" type="line"/>
      <point x="358" y="82"/>
      <point x="306" y="57"/>
      <point x="255" y="57" type="curve" smooth="yes"/>
      <point x="200" y="57"/>
      <point x="174" y="88"/>
      <point x="174" y="177" type="curve" smooth="yes"/>
    </contour>
    <contour>
      <point x="547" y="0" type="line"/>
      <point x="547" y="35" type="line"/>
      <point x="478" y="50" type="line"/>
      <point x="478" y="330" type="line"/>
      <point x="481" y="470" type="line"/>
      <point x="471" y="480" type="line"/>
      <point x="329" y="467" type="line"/>
      <point x="329" y="432" type="line"/>
      <point x="401" y="417" type="line"/>
      <point x="398" y="109" type="line"/>
      <point x="412" y="-8" type="line"/>
    </contour>
    <contour>
      <point x="286" y="589" type="curve" smooth="yes"/>
      <point x="249" y="589"/>
      <point x="229" y="620"/>
      <point x="229" y="651" type="curve" smooth="yes"/>
      <point x="229" y="682"/>
      <point x="250" y="712"/>
      <point x="286" y="712" type="curve" smooth="yes"/>
      <point x="323" y="712"/>
      <point x="343" y="682"/>
      <point x="343" y="651" type="curve" smooth="yes"/>
      <point x="343" y="620"/>
      <point x="322" y="589"/>
    </contour>
    <contour>
      <point x="286" y="550" type="curve" smooth="yes"/>
      <point x="339" y="550"/>
      <point x="390" y="588"/>
      <point x="390" y="651" type="curve" smooth="yes"/>
      <point x="390" y="716"/>
      <point x="339" y="751"/>
      <point x="286" y="751" type="curve" smooth="yes"/>
      <point x="233" y="751"/>
      <point x="182" y="713"/>
      <point x="182" y="651" type="curve" smooth="yes"/>
      <point x="182" y="586"/>
      <point x="233" y="550"/>
    </contour>
  </outline>
</glyph>
<glyph name="Uhungarumlaut" format="1">
  <advance width="727"/>
  <unicode hex="0170"/>
  <outline>
    <contour>
      <point x="582" y="615" type="line"/>
      <point x="692" y="630" type="line"/>
      <point x="692" y="670" type="line"/>
      <point x="452" y="670" type="line"/>
      <point x="452" y="630" type="line"/>
      <point x="562" y="615" type="line"/>
    </contour>
    <contour>
      <point x="170" y="615" type="line"/>
      <point x="190" y="615" type="line"/>
      <point x="320" y="630" type="line"/>
      <point x="320" y="670" type="line"/>
      <point x="40" y="670" type="line"/>
      <point x="40" y="630" type="line"/>
    </contour>
    <contour>
      <point x="215" y="281" type="curve" smooth="yes"/>
      <point x="215" y="360" type="line" smooth="yes"/>
      <point x="215" y="465"/>
      <point x="215" y="569"/>
      <point x="218" y="670" type="curve"/>
      <point x="122" y="670" type="line"/>
      <point x="125" y="567"/>
      <point x="125" y="463"/>
      <point x="125" y="360" type="curve" smooth="yes"/>
      <point x="125" y="252" type="line" smooth="yes"/>
      <point x="125" y="66"/>
      <point x="223" y="-15"/>
      <point x="368" y="-15" type="curve" smooth="yes"/>
      <point x="503" y="-15"/>
      <point x="605" y="63"/>
      <point x="605" y="273" type="curve" smooth="yes"/>
      <point x="605" y="670" type="line"/>
      <point x="555" y="670" type="line"/>
      <point x="555" y="299" type="line" smooth="yes"/>
      <point x="555" y="120"/>
      <point x="497" y="55"/>
      <point x="382" y="55" type="curve" smooth="yes"/>
      <point x="280" y="55"/>
      <point x="215" y="109"/>
    </contour>
    <contour>
      <point x="282" y="730" type="line"/>
      <point x="307" y="712" type="line"/>
      <point x="403" y="810" type="line" smooth="yes"/>
      <point x="419" y="827"/>
      <point x="425" y="842"/>
      <point x="425" y="854" type="curve" smooth="yes"/>
      <point x="425" y="874"/>
      <point x="409" y="887"/>
      <point x="390" y="887" type="curve" smooth="yes"/>
      <point x="374" y="887"/>
      <point x="353" y="877"/>
      <point x="338" y="846" type="curve" smooth="yes"/>
    </contour>
    <contour>
      <point x="434" y="730" type="line"/>
      <point x="459" y="712" type="line"/>
      <point x="555" y="810" type="line" smooth="yes"/>
      <point x="571" y="827"/>
      <point x="577" y="842"/>
      <point x="577" y="854" type="curve" smooth="yes"/>
      <point x="577" y="874"/>
      <point x="561" y="887"/>
      <point x="542" y="887" type="curve" smooth="yes"/>
      <point x="526" y="887"/>
      <point x="505" y="877"/>
      <point x="490" y="846" type="curve" smooth="yes"/>
    </contour>
  </outline>
</glyph>
<glyph name="uhungarumlaut" format="1">
  <advance width="582"/>
  <unicode hex="0171"/>
  <outline>
    <contour>
      <point x="174" y="330" type="line"/>
      <point x="179" y="470" type="line"/>
      <point x="169" y="480" type="line"/>
      <point x="25" y="467" type="line"/>
      <point x="25" y="432" type="line"/>
      <point x="118" y="412" type="line"/>
      <point x="97" y="431" type="line"/>
      <point x="94" y="167" type="line" smooth="yes"/>
      <point x="93" y="35"/>
      <point x="143" y="-13"/>
      <point x="223" y="-13" type="curve" smooth="yes"/>
      <point x="288" y="-13"/>
      <point x="356" y="19"/>
      <point x="413" y="96" type="curve"/>
      <point x="408" y="132" type="line"/>
      <point x="358" y="82"/>
      <point x="306" y="57"/>
      <point x="255" y="57" type="curve" smooth="yes"/>
      <point x="200" y="57"/>
      <point x="174" y="88"/>
      <point x="174" y="177" type="curve" smooth="yes"/>
    </contour>
    <contour>
      <point x="547" y="0" type="line"/>
      <point x="547" y="35" type="line"/>
      <point x="478" y="50" type="line"/>
      <point x="478" y="330" type="line"/>
      <point x="481" y="470" type="line"/>
      <point x="471" y="480" type="line"/>
      <point x="329" y="467" type="line"/>
      <point x="329" y="432" type="line"/>
      <point x="401" y="417" type="line"/>
      <point x="398" y="109" type="line"/>
      <point x="412" y="-8" type="line"/>
    </contour>
    <contour>
      <point x="189" y="567" type="line"/>
      <point x="216" y="551" type="line"/>
      <point x="309" y="668" type="line" smooth="yes"/>
      <point x="328" y="692"/>
      <point x="331" y="708"/>
      <point x="331" y="718" type="curve" smooth="yes"/>
      <point x="331" y="740"/>
      <point x="315" y="754"/>
      <point x="296" y="754" type="curve" smooth="yes"/>
      <point x="279" y="754"/>
      <point x="257" y="743"/>
      <point x="244" y="709" type="curve" smooth="yes"/>
    </contour>
    <contour>
      <point x="331" y="567" type="line"/>
      <point x="358" y="551" type="line"/>
      <point x="451" y="668" type="line" smooth="yes"/>
      <point x="470" y="692"/>
      <point x="473" y="708"/>
      <point x="473" y="718" type="curve" smooth="yes"/>
      <point x="473" y="740"/>
      <point x="457" y="754"/>
      <point x="438" y="754" type="curve" smooth="yes"/>
      <point x="421" y="754"/>
      <point x="399" y="743"/>
      <point x="386" y="709" type="curve" smooth="yes"/>
    </contour>
  </outline>
</glyph>
<glyph name="uogonek" format="1">
  <advance width="582"/>
  <unicode hex="0173"/>
  <outline>
    <contour>
      <point x="385" y="-132" type="curve" smooth="yes"/>
      <point x="385" y="-187"/>
      <point x="422" y="-220"/>
      <point x="475" y="-220" type="curve" smooth="yes"/>
      <point x="518" y="-220"/>
      <point x="554" y="-206"/>
      <point x="578" y="-172" type="curve"/>
      <point x="566" y="-150" type="line"/>
      <point x="546" y="-162"/>
      <point x="527" y="-165"/>
      <point x="514" y="-165" type="curve" smooth="yes"/>
      <point x="475" y="-165"/>
      <point x="446" y="-140"/>
      <point x="446" y="-97" type="curve" smooth="yes"/>
      <point x="446" y="-61"/>
      <point x="474" y="-24"/>
      <point x="517" y="3" type="curve"/>
      <point x="489" y="3" type="line"/>
      <point x="435" y="-24"/>
      <point x="385" y="-75"/>
    </contour>
    <contour>
      <point x="174" y="330" type="line"/>
      <point x="179" y="470" type="line"/>
      <point x="169" y="480" type="line"/>
      <point x="25" y="467" type="line"/>
      <point x="25" y="432" type="line"/>
      <point x="118" y="412" type="line"/>
      <point x="97" y="431" type="line"/>
      <point x="94" y="167" type="line" smooth="yes"/>
      <point x="93" y="35"/>
      <point x="143" y="-13"/>
      <point x="223" y="-13" type="curve" smooth="yes"/>
      <point x="288" y="-13"/>
      <point x="356" y="19"/>
      <point x="413" y="96" type="curve"/>
      <point x="408" y="132" type="line"/>
      <point x="358" y="82"/>
      <point x="306" y="57"/>
      <point x="255" y="57" type="curve" smooth="yes"/>
      <point x="200" y="57"/>
      <point x="174" y="88"/>
      <point x="174" y="177" type="curve" smooth="yes"/>
    </contour>
    <contour>
      <point x="547" y="0" type="line"/>
      <point x="547" y="35" type="line"/>
      <point x="478" y="50" type="line"/>
      <point x="478" y="330" type="line"/>
      <point x="481" y="470" type="line"/>
      <point x="471" y="480" type="line"/>
      <point x="329" y="467" type="line"/>
      <point x="329" y="432" type="line"/>
      <point x="401" y="417" type="line"/>
      <point x="398" y="109" type="line"/>
      <point x="412" y="-8" type="line"/>
    </contour>
    <contour>
      <point x="282" y="506" type="move" name="aboveLC"/>
    </contour>
  </outline>
</glyph>
<glyph name="Wcircumflex" format="1">
  <advance width="961"/>
  <unicode hex="0174"/>
  <outline>
    <contour>
      <point x="848" y="615" type="line"/>
      <point x="951" y="630" type="line"/>
      <point x="951" y="670" type="line"/>
      <point x="723" y="670" type="line"/>
      <point x="723" y="630" type="line"/>
      <point x="828" y="615" type="line"/>
    </contour>
    <contour>
      <point x="517" y="615" type="line"/>
      <point x="639" y="630" type="line"/>
      <point x="639" y="670" type="line"/>
      <point x="369" y="670" type="line"/>
      <point x="369" y="630" type="line"/>
      <point x="497" y="615" type="line"/>
    </contour>
    <contour>
      <point x="165" y="615" type="line"/>
      <point x="285" y="630" type="line"/>
      <point x="285" y="670" type="line"/>
      <point x="15" y="670" type="line"/>
      <point x="15" y="630" type="line"/>
      <point x="145" y="615" type="line"/>
    </contour>
    <contour>
      <point x="659" y="-7" type="line"/>
      <point x="699" y="-7" type="line"/>
      <point x="881" y="670" type="line"/>
      <point x="831" y="670" type="line"/>
      <point x="688" y="151" type="line"/>
      <point x="520" y="670" type="line"/>
      <point x="488" y="670" type="line"/>
      <point x="316" y="155" type="line"/>
      <point x="178" y="670" type="line"/>
      <point x="85" y="670" type="line"/>
      <point x="280" y="-7" type="line"/>
      <point x="319" y="-7" type="line"/>
      <point x="484" y="515" type="line"/>
    </contour>
    <contour>
      <point x="519" y="855" type="line"/>
      <point x="487" y="855" type="line"/>
      <point x="357" y="742" type="line"/>
      <point x="376" y="718" type="line"/>
      <point x="545" y="815" type="line"/>
      <point x="461" y="815" type="line"/>
      <point x="630" y="718" type="line"/>
      <point x="649" y="742" type="line"/>
    </contour>
  </outline>
</glyph>
<glyph name="wcircumflex" format="1">
  <advance width="762"/>
  <unicode hex="0175"/>
  <outline>
    <contour>
      <point x="395" y="419" type="line"/>
      <point x="415" y="419" type="line"/>
      <point x="510" y="436" type="line"/>
      <point x="510" y="474" type="line"/>
      <point x="290" y="474" type="line"/>
      <point x="290" y="436" type="line"/>
    </contour>
    <contour>
      <point x="118" y="419" type="line"/>
      <point x="226" y="436" type="line"/>
      <point x="226" y="474" type="line"/>
      <point x="0" y="474" type="line"/>
      <point x="0" y="436" type="line"/>
      <point x="98" y="419" type="line"/>
    </contour>
    <contour>
      <point x="682" y="419" type="line"/>
      <point x="752" y="436" type="line"/>
      <point x="752" y="474" type="line"/>
      <point x="569" y="474" type="line"/>
      <point x="569" y="436" type="line"/>
      <point x="662" y="419" type="line"/>
    </contour>
    <contour>
      <point x="384" y="474" type="line"/>
      <point x="252" y="114" type="line"/>
      <point x="130" y="474" type="line"/>
      <point x="40" y="474" type="line"/>
      <point x="219" y="-6" type="line"/>
      <point x="254" y="-6" type="line"/>
      <point x="387" y="350" type="line"/>
      <point x="518" y="-6" type="line"/>
      <point x="553" y="-6" type="line"/>
      <point x="716" y="474" type="line"/>
      <point x="660" y="474" type="line"/>
      <point x="550" y="115" type="line"/>
      <point x="414" y="474" type="line"/>
    </contour>
    <contour>
      <point x="526" y="546" type="line"/>
      <point x="549" y="567" type="line"/>
      <point x="417" y="743" type="line"/>
      <point x="385" y="743" type="line"/>
      <point x="253" y="567" type="line"/>
      <point x="276" y="546" type="line"/>
      <point x="443" y="699" type="line"/>
      <point x="359" y="699" type="line"/>
    </contour>
  </outline>
</glyph>
